<?xml version="1.0" encoding="UTF-8" standalone="no"?>
<!DOCTYPE svg  PUBLIC '-//W3C//DTD SVG 1.1//EN'  'http://www.w3.org/Graphics/SVG/1.1/DTD/svg11.dtd'>
<svg xmlns="http://www.w3.org/2000/svg">
<defs>
<font id="BrandonGrotesque-Regular" horiz-adv-x="482">
<font-face underline-position="-100" font-weight="390" descent="-200" panose-1="2 11 5 3 2 2 3 6 2 2" units-per-em="1000" unicode-range="U+0020-2215" bbox="-129 -374 925 1032" x-height="400" underline-thickness="50" font-family="BrandonGrotesque" ascent="800" cap-height="700"/>
<missing-glyph horiz-adv-x="1000"/>
<glyph glyph-name=".notdef" horiz-adv-x="1000"/>
<glyph glyph-name=".null" horiz-adv-x="0"/>
<glyph glyph-name="nonmarkingreturn" horiz-adv-x="1000"/>
<glyph glyph-name="space" horiz-adv-x="222" unicode=" "/>
<glyph glyph-name="exclam" horiz-adv-x="298" unicode="!" d="M92 47q0 25 17 41t40 16q25 0 41 -16t16 -41q0 -23 -16 -40t-41 -17q-23 0 -40 17t-17 40zM143 272q-7 0 -13 5t-6 11l-19 279v114q-1 7 5 13t14 6h50q8 0 14 -6t5 -13v-112l-19 -281q0 -6 -6 -11t-13 -5h-12z"/>
<glyph glyph-name="quotedbl" horiz-adv-x="307" unicode='&quot;' d="M68 501q-8 -1 -14 5t-5 14v161q-1 7 5 13t14 6h34q10 0 16 -8t2 -17l-28 -159q-4 -15 -18 -15h-6zM219 501q-7 -1 -13 5t-6 14v161q0 7 6 13t13 6h34q9 0 15 -8q4 -5 4 -10q0 -3 -1 -7l-28 -159q-4 -15 -18 -15h-6z"/>
<glyph glyph-name="numbersign" horiz-adv-x="542" unicode="#" d="M182 240h153l23 171h-151zM106 22l25 173h-70q-7 -1 -13 5t-6 14v7q0 19 19 19h77l24 171h-72q-8 -1 -14 5t-5 14v7q-1 7 5 13t14 6h78l32 228q1 6 6 11t12 5h7q7 0 13 -6t5 -16l-30 -222h151l31 228q1 6 7 11t12 5h6q8 0 14 -6t5 -16l-30 -222h70q7 0 13 -6t6 -13v-7 q0 -19 -17 -19h-78l-24 -171h71q8 0 14 -6t5 -13v-7q0 -8 -5 -14t-12 -5h-80l-26 -179q-2 -16 -19 -16h-6q-9 0 -15 6t-4 16l26 173h-153l-25 -179q-2 -16 -19 -16h-6q-9 0 -15 6t-4 16z"/>
<glyph glyph-name="dollar" horiz-adv-x="524" unicode="$" d="M287 58q50 4 84 36t34 73q-1 41 -29 71t-89 61v-241zM244 400v242q-58 -6 -87 -40t-29 -69q0 -43 29 -75t87 -58zM58 71q-11 9 -11 19q0 7 5 15q10 16 24 28t26 0q8 -9 22 -21t50 -30t70 -23v260q-87 35 -133 75t-55 102q-2 11 -2 36q0 35 18 72q18 36 63 68t109 37v32 q0 7 6 13t13 6h7q8 0 13 -6t5 -13v-32q38 -3 76 -15t56 -24l18 -11q7 -3 10 -11t-4 -23q-6 -9 -11 -17t-10 -12t-11 -4t-15 5l-8 5q-8 4 -18 10t-23 11q-13 6 -29 11t-31 7l-1 -259q50 -21 83 -40t61 -44q28 -24 41 -56t13 -72q0 -74 -58 -124t-140 -55v-104q0 -18 -22 -18 q-21 0 -21 18v104q-46 3 -92 23t-64 32t-30 25z"/>
<glyph glyph-name="percent" horiz-adv-x="675" unicode="%" d="M408 124q0 -34 22 -56t56 -22q32 0 54 22t22 56q0 32 -22 54t-54 22q-34 0 -56 -22t-22 -54zM351 124q-1 56 39 96t96 39q56 1 96 -39t39 -96q1 -56 -39 -96t-96 -39q-56 -1 -96 39t-39 96zM170 498q32 0 54 22t22 56q0 32 -22 54t-54 22q-34 0 -56 -22t-22 -54 q0 -34 22 -56t56 -22zM128 27l343 663q6 10 17 10h16q10 0 16 -8q3 -4 3 -10q0 -4 -2 -9l-345 -663q-5 -10 -17 -10h-14q-11 0 -17 8t0 19zM170 441q-56 -1 -96 39t-39 96q-1 56 39 96t96 39q56 1 96 -39t39 -96q1 -56 -39 -96t-96 -39z"/>
<glyph glyph-name="ampersand" horiz-adv-x="666" unicode="&amp;" d="M152 173q0 -53 36 -87t90 -34q101 0 171 85l-185 194q-112 -68 -112 -158zM280 410q26 16 40 25t36 29q24 20 36 42t11 48q-1 39 -29 68t-76 29t-76 -30t-28 -75q-1 -30 15 -56t49 -58zM82 174q0 118 139 200v2l-24 26q-72 76 -70 146q0 64 46 113t131 49q78 0 124 -44 t45 -110q0 -100 -148 -192l165 -165q40 82 40 178q0 15 5 19t18 4h24q19 0 19 -21v-2q0 -120 -59 -225l96 -96q12 -13 12 -21t-13 -25l-12 -11q-10 -9 -19 -9l-23 12l-85 88q-89 -100 -218 -100q-91 0 -142 53t-51 131z"/>
<glyph glyph-name="quotesingle" horiz-adv-x="156" unicode="&apos;" d="M68 501q-8 -1 -14 5t-5 14v161q-1 7 5 13t14 6h34q10 0 16 -8q4 -5 3 -10q0 -3 -1 -7l-28 -159q-4 -15 -18 -15h-6z"/>
<glyph glyph-name="parenleft" horiz-adv-x="344" unicode="(" d="M294 -78q-46 2 -86 23t-74 65q-36 44 -56 121q-20 78 -20 184t20 184q20 77 56 121q34 44 74 65t86 23h5q13 0 13 -10l2 -27q1 -3 1 -5q0 -10 -11 -12q-92 -18 -134 -103t-42 -236t42 -236t134 -103q11 -2 11 -12q0 -2 -1 -5l-2 -27q-1 -10 -13 -10h-5z"/>
<glyph glyph-name="parenright" horiz-adv-x="344" unicode=")" d="M40 -24q92 18 134 103t42 236t-42 236t-134 103q-11 2 -11 12q0 2 1 5l2 27q1 10 13 10h5q46 -2 86 -23t74 -65q36 -44 56 -121q20 -78 20 -184t-20 -184q-20 -77 -56 -121q-34 -44 -74 -65t-86 -23h-5q-13 0 -13 10l-2 27q-1 3 -1 5q0 10 11 12z"/>
<glyph glyph-name="asterisk" horiz-adv-x="328" unicode="*" d="M157 415q-7 -1 -13 5t-6 14l2 82l-67 -48q-6 -4 -14 -2t-12 8l-7 10q-4 6 -4 12q0 8 9 15l75 47l-77 47q-9 7 -9 15q0 5 4 11l8 11q4 6 12 8t13 -2l69 -49l-2 83q0 6 6 12t13 6h13q8 0 14 -6t5 -12l-2 -82l67 50q15 8 26 -6l7 -11q4 -7 4 -12q0 -8 -9 -14l-77 -49l78 -49 q10 -6 10 -15q0 -5 -4 -11l-7 -11q-10 -15 -27 -6l-68 49l2 -81q1 -8 -5 -14t-14 -5h-13z"/>
<glyph glyph-name="plus" horiz-adv-x="501" unicode="+" d="M217 157v157h-157q-8 0 -14 6t-5 13v28q-1 7 5 13t14 6h157v158q-1 6 5 12t14 6h28q8 0 14 -6t5 -12v-158h158q7 0 13 -6t5 -13v-28q1 -7 -5 -13t-13 -6h-158v-157q1 -7 -5 -13t-14 -5h-28q-8 -1 -14 5t-5 13z"/>
<glyph glyph-name="comma" horiz-adv-x="233" unicode="," d="M55 47q0 25 17 41t40 16q66 0 66 -90q0 -56 -26 -106t-58 -79q-8 -7 -14 -7q-5 0 -10 5l-14 14q-4 4 -4 8q0 7 10 16q62 56 62 126q-4 -1 -12 -1q-23 0 -40 17t-17 40z"/>
<glyph glyph-name="hyphen" horiz-adv-x="413" unicode="-" d="M102 220q-8 0 -14 5t-5 13v19q0 19 19 19h209q19 0 19 -19v-19q0 -8 -6 -13t-13 -5h-209z"/>
<glyph glyph-name="period" horiz-adv-x="226" unicode="." d="M56 47q0 25 17 41t40 16q25 0 41 -16t16 -41q0 -23 -16 -40t-41 -17q-23 0 -40 17t-17 40z"/>
<glyph glyph-name="slash" horiz-adv-x="320" unicode="/" d="M40 25l196 662q4 13 18 13h22q11 0 16 -8q3 -5 3 -10q0 -3 -1 -7l-195 -662q-4 -13 -18 -13h-23q-10 0 -16 8q-4 5 -3 10q0 3 1 7z"/>
<glyph glyph-name="zero" horiz-adv-x="632" unicode="0" d="M316 55q84 0 128 74t44 211q0 136 -45 210t-127 75q-82 -1 -127 -75t-45 -210q0 -137 44 -211t128 -74zM316 -10q-116 0 -180 92t-63 258q-1 166 63 258t180 92t180 -92t63 -258q1 -166 -63 -258t-180 -92z"/>
<glyph glyph-name="one" horiz-adv-x="326" unicode="1" d="M149 19v537l-72 -56q-13 -10 -23 1l-19 21q-4 5 -4 10q0 6 6 12l140 136h27q6 0 12 -6t6 -13v-642q0 -7 -6 -13t-12 -6h-36q-8 0 -14 6t-5 13z"/>
<glyph glyph-name="two" horiz-adv-x="519" unicode="2" d="M42 19v30l245 265q101 110 101 181q0 51 -34 89t-106 38t-142 -75q-14 -13 -27 0l-20 19q-12 14 -1 26l14 16q14 15 36 33q22 17 60 33t80 16q102 0 159 -56t57 -137q0 -59 -31 -109t-94 -118l-192 -205h294q7 1 13 -5t6 -14v-27q0 -7 -6 -13t-13 -6h-380q-7 0 -13 6 t-6 13z"/>
<glyph glyph-name="three" horiz-adv-x="532" unicode="3" d="M47 79q-6 7 -6 13t7 11l27 23q6 4 12 4q8 0 15 -9q10 -11 24 -23t50 -30q36 -16 75 -16q60 0 102 34t42 91q-1 55 -45 93t-132 38h-56q-19 0 -19 22v24q0 22 21 22h55q77 0 118 34t41 87q0 59 -38 93t-93 34q-74 0 -131 -65q-12 -14 -26 -2l-24 19q-14 12 0 26l21 22 q21 22 67 44t93 22q92 0 149 -50t57 -133q0 -53 -32 -97t-71 -61v-3q44 -20 82 -62t38 -100q0 -84 -60 -139t-162 -55q-123 0 -201 89z"/>
<glyph glyph-name="four" horiz-adv-x="586" unicode="4" d="M100 216h282v348zM35 154q-7 0 -13 6t-6 13v37l379 475q6 6 15 6h20q8 1 14 -5t5 -14l1 -457h81q7 0 13 -5t6 -13v-22q0 -7 -6 -13t-13 -6h-81v-137q0 -7 -6 -13t-13 -6h-34q-7 0 -13 6t-6 13v135h-343z"/>
<glyph glyph-name="five" horiz-adv-x="533" unicode="5" d="M67 73q-9 10 -9 19q0 8 7 15q3 4 11 11t12 11q15 13 25 -1q9 -12 23 -26t48 -31q36 -17 77 -17q69 0 113 50t44 114q0 62 -40 103t-117 41h-152q-15 0 -23 11t-8 24v264q0 7 6 13t13 6h302q7 0 13 -6t6 -13v-29q0 -8 -6 -14t-13 -5h-254v-184h116q111 1 171 -55t60 -155 q0 -95 -66 -162t-166 -67q-124 0 -193 83z"/>
<glyph glyph-name="six" horiz-adv-x="543" unicode="6" d="M286 56q62 0 106 47t44 112t-44 111t-107 45q-41 -1 -81 -17t-58 -32l-19 -16q-5 -21 -5 -43q0 -19 4 -39q8 -44 23 -80q16 -38 52 -63t85 -25zM53 275q0 76 25 143q25 68 61 112q37 44 85 82t84 56q36 20 74 35q4 2 8 2q9 0 14 -12l11 -24q2 -5 2 -10q0 -13 -20 -19 q-15 -4 -41 -18t-59 -38q-35 -24 -65 -51q-30 -28 -56 -66t-36 -76l19 11q19 12 57 23t76 11q88 0 152 -60t63 -157q1 -93 -65 -161t-156 -68q-116 0 -174 79t-59 206z"/>
<glyph glyph-name="seven" horiz-adv-x="474" unicode="7" d="M91 19v11l279 583h-327q-7 -1 -13 5t-6 14v29q0 7 6 13t13 6h402q7 0 13 -6t6 -13v-7l-292 -628q-12 -26 -33 -26h-29q-8 0 -14 6t-5 13z"/>
<glyph glyph-name="eight" horiz-adv-x="573" unicode="8" d="M137 176q-1 -56 43 -91t105 -35q66 0 109 34t43 92q0 48 -41 88t-109 47q-69 -7 -109 -47t-41 -88zM287 385q65 7 99 39t34 80q0 56 -38 91t-99 35q-55 0 -92 -36t-37 -90q0 -49 33 -81t100 -38zM62 183q0 58 38 103t83 64v3q-39 17 -71 59t-32 95q0 83 58 133t148 50 q92 0 150 -50t58 -133q0 -53 -32 -95t-71 -59v-3q45 -19 83 -64t38 -103q0 -85 -62 -139t-165 -54q-101 0 -162 54t-61 139z"/>
<glyph glyph-name="nine" horiz-adv-x="543" unicode="9" d="M258 315q40 1 80 17t59 32l19 16q5 21 5 43q1 19 -3 39q-8 44 -24 80q-16 38 -52 63t-85 25q-63 0 -107 -47t-43 -112q0 -65 44 -111t107 -45zM128 17q-2 5 -2 10q0 13 20 19q14 4 40 18t60 38t64 51q30 28 57 66q26 38 36 76l-19 -11q-19 -12 -57 -23t-76 -11 q-87 0 -151 60t-64 157q0 93 66 161t155 68q117 0 175 -79t58 -206q0 -76 -25 -143q-25 -68 -61 -112t-84 -82t-86 -56q-36 -20 -73 -35q-4 -2 -8 -2q-9 0 -14 12z"/>
<glyph glyph-name="colon" horiz-adv-x="256" unicode=":" d="M71 47q0 25 17 41t40 16q24 0 40 -16t17 -41q-1 -23 -17 -40t-40 -17q-23 0 -40 17t-17 40zM128 296q-23 0 -40 17t-17 40q0 25 17 41t40 16q24 0 40 -16t17 -41q-1 -23 -17 -40t-40 -17z"/>
<glyph glyph-name="semicolon" horiz-adv-x="259" unicode=";" d="M70 47q0 25 17 41t40 16q66 0 66 -90q-1 -56 -27 -106t-57 -79q-8 -7 -14 -7q-5 0 -10 5l-14 14q-4 4 -4 8q0 7 10 16q62 56 62 126q-4 -1 -12 -1q-23 0 -40 17t-17 40zM127 296q-23 0 -40 17t-17 40q0 25 17 41t40 16q25 0 41 -16t16 -41q0 -23 -16 -40t-41 -17z"/>
<glyph glyph-name="less" horiz-adv-x="439" unicode="&lt;" d="M35 210q-10 6 -10 17v5q0 11 10 17l340 212q5 3 11 3q4 0 8 -2q9 -5 9 -17v-36q0 -12 -11 -19l-261 -160l261 -154q11 -7 11 -19v-36q0 -12 -9 -17q-4 -2 -8 -2q-5 0 -11 3z"/>
<glyph glyph-name="equal" horiz-adv-x="510" unicode="=" d="M105 140q-7 0 -13 6t-6 13v31q0 8 6 14t13 5h299q8 1 14 -5t5 -14v-31q1 -7 -5 -13t-14 -6h-299zM105 351q-7 -1 -13 5t-6 14v30q0 8 6 14t13 5h299q8 1 14 -5t5 -14v-30q1 -8 -5 -14t-14 -5h-299z"/>
<glyph glyph-name="greater" horiz-adv-x="439" unicode="&gt;" d="M36 21v36q0 13 11 19l261 154l-261 160q-11 7 -11 19v36q0 12 9 17q4 2 8 2q5 0 11 -3l340 -212q10 -6 10 -17v-5q0 -11 -10 -17l-340 -205q-5 -3 -11 -3q-4 0 -8 2q-9 5 -9 17z"/>
<glyph glyph-name="question" horiz-adv-x="461" unicode="?" d="M156 47q0 25 17 41t40 16q25 0 41 -16t16 -41q0 -23 -16 -40t-41 -17q-23 0 -40 17t-17 40zM201 272q-7 0 -13 6t-6 13v42q0 33 16 59t37 42l44 32q21 16 37 40t16 54q0 36 -26 62t-73 26q-23 0 -43 -5t-35 -13t-27 -17t-19 -17l-14 -16q-13 -13 -26 -1l-19 17 q-6 6 -6 12t6 14l12 14q12 14 32 30t58 30t81 14q78 0 126 -42t48 -111q-1 -36 -17 -65q-16 -30 -39 -48t-46 -34t-39 -36t-17 -41v-41q0 -20 -21 -20h-27z"/>
<glyph glyph-name="at" horiz-adv-x="981" unicode="@" d="M356 200q0 -68 34 -106t83 -38q46 0 72 27t36 67v142l-11 14q-10 14 -36 28t-60 14q-52 0 -85 -39t-33 -109zM43 223q-1 215 125 351t335 136q196 0 309 -118t113 -304q0 -53 -11 -103t-34 -95q-24 -44 -66 -72t-98 -28q-50 0 -78 22t-37 56h-8q-17 -34 -50 -56t-76 -22 q-77 0 -126 58t-49 153q0 97 50 153t128 56q36 0 64 -13t40 -27l11 -13q4 13 6 23q3 10 9 15t19 5h10q7 0 13 -6t6 -13v-213q0 -70 18 -96t54 -26q60 0 102 65t41 177q-1 162 -95 264t-267 102q-181 0 -288 -116t-107 -315q0 -137 72 -237t192 -153q10 -5 12 -10t-3 -15 l-11 -27q-4 -10 -12 -10q-3 0 -8 2q-139 58 -222 175t-83 275z"/>
<glyph glyph-name="A" horiz-adv-x="663" unicode="A" d="M181 238h300l-146 328h-8zM23 0q-11 0 -17 8q-3 4 -2 9q0 4 2 9l304 673q6 11 17 11h10q11 0 17 -11l302 -673q2 -5 2 -9q0 -5 -2 -9q-6 -8 -17 -8h-40q-13 0 -17 11l-74 165h-355l-73 -165q-4 -11 -17 -11h-40z"/>
<glyph glyph-name="B" horiz-adv-x="625" unicode="B" d="M175 67h182q54 1 90 37t36 90q0 53 -42 88t-101 35h-165v-250zM177 386h163q56 0 88 36t32 89q0 55 -32 87t-88 33h-163v-245zM102 19v662q0 7 6 13t13 6h219q91 0 148 -52t57 -132q0 -53 -29 -95t-69 -65q49 -20 85 -60t35 -103q0 -85 -61 -139t-157 -54h-228 q-7 0 -13 6t-6 13z"/>
<glyph glyph-name="C" horiz-adv-x="707" unicode="C" d="M51 349q-1 149 105 255t256 106q133 0 242 -93q7 -8 7 -15t-6 -13l-27 -27q-11 -14 -26 1q-87 75 -191 75q-117 0 -198 -85t-81 -203q0 -117 81 -202t198 -85q41 -1 77 11t59 26q22 14 55 38q13 10 24 3l30 -27q6 -5 6 -12q0 -9 -7 -15q-100 -97 -243 -97 q-150 0 -256 104t-105 255z"/>
<glyph glyph-name="D" horiz-adv-x="747" unicode="D" d="M178 69h150q123 -1 203 79t80 203t-80 202t-203 79h-150v-563zM102 19v662q0 7 6 13t12 6h224q145 0 248 -102t103 -247t-103 -248t-248 -103h-224q-6 0 -12 6t-6 13z"/>
<glyph glyph-name="E" horiz-adv-x="592" unicode="E" d="M102 19v662q0 7 6 13t13 6h394q7 0 13 -6t6 -13v-29q0 -8 -6 -14t-13 -5h-336v-244h287q8 1 14 -5t5 -14v-29q1 -7 -5 -13t-14 -6h-287v-255h336q7 1 13 -5t6 -14v-29q0 -7 -6 -13t-13 -6h-394q-7 0 -13 6t-6 13z"/>
<glyph glyph-name="F" horiz-adv-x="569" unicode="F" d="M102 19v662q0 7 6 13t13 6h394q7 0 13 -6t6 -13v-29q0 -8 -6 -14t-13 -5h-336v-274h287q8 1 14 -5t5 -14v-29q1 -7 -5 -13t-14 -6h-287v-273q1 -7 -5 -13t-14 -6h-39q-7 0 -13 6t-6 13z"/>
<glyph glyph-name="G" horiz-adv-x="732" unicode="G" d="M51 349q-1 149 105 255t256 106q133 0 242 -93q7 -8 7 -15t-6 -13l-28 -28q-11 -12 -26 1q-41 34 -91 56t-99 22q-117 0 -197 -84t-81 -203q1 -117 81 -203t197 -86q49 0 94 10t65 22l21 10v140h-115q-8 0 -14 5t-5 13v37q0 19 19 19h173q7 0 13 -6t5 -13v-229 q0 -10 -8 -16l-29 -16q-30 -18 -92 -34t-126 -16q-150 0 -256 104t-105 255z"/>
<glyph glyph-name="H" horiz-adv-x="764" unicode="H" d="M102 19v662q0 7 6 13t13 6h39q8 0 14 -6t5 -13v-292h406v292q-1 7 5 13t14 6h39q7 0 13 -6t6 -13v-662q0 -7 -6 -13t-13 -6h-39q-8 0 -14 6t-5 13v303h-406v-303q1 -7 -5 -13t-14 -6h-39q-7 0 -13 6t-6 13z"/>
<glyph glyph-name="I" horiz-adv-x="282" unicode="I" d="M102 19v662q0 7 6 13t13 6h40q7 0 13 -6t6 -13v-662q0 -7 -6 -13t-13 -6h-40q-7 0 -13 6t-6 13z"/>
<glyph glyph-name="J" horiz-adv-x="405" unicode="J" d="M-20 64q-4 6 -4 11q0 7 6 14l21 24q8 7 16 7l18 -10q47 -53 97 -53t86 38t36 112v474q0 7 6 13t13 6h39q8 0 14 -6t5 -13v-472q1 -103 -55 -161t-146 -58q-92 0 -152 74z"/>
<glyph glyph-name="K" horiz-adv-x="618" unicode="K" d="M102 24v652q0 10 7 17t17 7h29q10 0 17 -7t7 -17v-283l312 297q8 10 19 10h49q15 0 19 -12t-7 -23l-316 -295l331 -339q4 -3 4 -9q0 -4 -2 -9q-4 -13 -19 -13h-51q-13 0 -18 7l-321 335v-318q0 -10 -7 -17t-17 -7h-29q-10 0 -17 7t-7 17z"/>
<glyph glyph-name="L" horiz-adv-x="491" unicode="L" d="M102 19v662q0 7 6 13t13 6h39q8 0 14 -6t5 -13v-614h288q7 1 13 -5t6 -14v-29q0 -7 -6 -13t-13 -6h-346q-7 0 -13 6t-6 13z"/>
<glyph glyph-name="M" horiz-adv-x="862" unicode="M" d="M52 24l129 672q3 14 18 14h16q13 0 17 -11l198 -551h5l195 551q4 11 17 11h16q15 0 18 -14l129 -672q1 -4 1 -8q0 -16 -19 -16h-40q-14 0 -18 14l-89 515h-4l-184 -528q-4 -11 -17 -11h-18q-13 0 -17 11l-186 528h-4l-87 -515q0 -6 -6 -10t-12 -4h-40q-19 0 -19 16 q0 4 1 8z"/>
<glyph glyph-name="N" horiz-adv-x="774" unicode="N" d="M102 19v673q0 6 6 12t13 6h25l451 -562h2v533q-1 7 5 13t14 6h35q7 0 13 -6t6 -13v-673q0 -6 -6 -12t-13 -6h-18l-459 573h-1v-544q1 -7 -5 -13t-14 -6h-35q-7 0 -13 6t-6 13z"/>
<glyph glyph-name="O" horiz-adv-x="821" unicode="O" d="M121 349q0 -119 85 -204t204 -85q118 0 204 85t86 204t-86 205t-204 86q-119 0 -204 -86t-85 -205zM51 349q1 149 105 255t254 106t255 -106t105 -255q0 -151 -105 -255t-255 -104t-254 104t-105 255z"/>
<glyph glyph-name="P" horiz-adv-x="596" unicode="P" d="M178 328h159q62 0 107 44t45 109q0 59 -45 101t-107 42h-159v-296zM102 19v662q0 7 6 13t13 6h221q92 0 158 -65t66 -156q0 -93 -66 -159t-157 -66h-165v-235q0 -7 -6 -13t-13 -6h-38q-7 0 -13 6t-6 13z"/>
<glyph glyph-name="Q" horiz-adv-x="822" unicode="Q" d="M121 349q0 -119 85 -204t204 -85q118 0 204 85t86 204t-86 205t-204 86q-119 0 -204 -86t-85 -205zM51 349q1 149 105 255t254 106t255 -106t105 -255q0 -109 -58 -197t-155 -132l117 -188q8 -10 2 -20t-18 -10h-50q-10 0 -16 10l-109 184q-33 -6 -73 -6q-150 0 -254 104 t-105 255z"/>
<glyph glyph-name="R" horiz-adv-x="661" unicode="R" d="M181 340h194q58 0 101 42t43 104q0 57 -43 99t-101 42h-194v-287zM102 19v662q0 7 6 13t13 6h259q90 0 154 -62t64 -151q0 -69 -40 -123t-108 -81l137 -254q7 -9 1 -19t-18 -10h-51q-11 0 -16 9l-133 265h-191v-255q1 -7 -5 -13t-14 -6h-39q-7 0 -13 6t-6 13z"/>
<glyph glyph-name="S" horiz-adv-x="533" unicode="S" d="M63 71q-11 9 -11 19q0 7 5 15q3 3 8 9t7 10q11 15 22 15q7 0 13 -6q89 -76 169 -76q58 0 96 32t38 78q0 49 -42 85t-133 73q-92 39 -134 83t-42 124q-1 28 11 57t36 57t66 46q44 18 100 18q44 0 86 -13t64 -25l21 -13q7 -3 10 -11t-4 -23l-6 -9t-6 -10q-9 -13 -21 -13 q-7 0 -14 4q-80 46 -131 46q-71 0 -105 -35t-33 -75q-1 -49 33 -81t102 -60q114 -47 168 -94t54 -128q0 -76 -64 -128t-152 -52q-52 0 -104 20t-72 34t-35 27z"/>
<glyph glyph-name="T" horiz-adv-x="478" unicode="T" d="M201 19v614h-174q-7 -1 -13 5t-6 14v29q0 7 6 13t13 6h424q7 0 13 -6t6 -13v-29q0 -8 -6 -14t-13 -5h-174v-614q1 -7 -5 -13t-14 -6h-38q-8 0 -14 6t-5 13z"/>
<glyph glyph-name="U" horiz-adv-x="716" unicode="U" d="M93 258v423q-1 7 5 13t14 6h38q8 0 14 -6t5 -13v-417q0 -88 51 -146t137 -57q87 0 139 57t51 144v419q-1 7 5 13t14 6h38q8 0 14 -6t5 -13v-423q-1 -116 -75 -192t-191 -76q-116 0 -190 76t-74 192z"/>
<glyph glyph-name="V" horiz-adv-x="664" unicode="V" d="M309 1l-302 673q-2 5 -2 9q1 5 3 9q6 8 16 8h40q13 0 17 -11l249 -560h4l249 560q4 11 17 11h40q10 0 16 -8q3 -4 3 -9q0 -4 -2 -9l-304 -673q-5 -11 -17 -11h-10q-12 0 -17 11z"/>
<glyph glyph-name="W" horiz-adv-x="902" unicode="W" d="M226 4l-189 672q-1 4 -1 7q0 6 3 10q5 7 16 7h42q14 0 18 -14l139 -518h4l167 531q4 11 17 11h18q13 0 17 -11l170 -531h4l136 518q4 14 18 14h42q11 0 16 -7q3 -4 3 -10q0 -3 -1 -7l-189 -672q-4 -14 -18 -14h-16q-12 0 -17 11l-173 541h-5l-170 -541q-5 -11 -17 -11 h-16q-14 0 -18 14z"/>
<glyph glyph-name="X" horiz-adv-x="583" unicode="X" d="M40 28l203 331l-195 313q-6 10 -1 19t18 9h54q12 0 17 -9l154 -265h1l156 265q5 9 17 9h54q13 0 18 -9t-1 -19l-195 -313l202 -331q3 -5 3 -11q0 -4 -2 -8q-5 -9 -18 -9h-46q-13 0 -17 9l-171 283h-1l-169 -283q-5 -9 -17 -9h-46q-12 0 -18 9q-3 4 -3 9t3 10z"/>
<glyph glyph-name="Y" horiz-adv-x="565" unicode="Y" d="M243 19v318l-241 334q-3 5 -3 11q0 4 2 8q5 10 17 10h47q9 0 16 -9l202 -279l202 279q7 9 16 9h47q12 0 17 -10q2 -4 2 -8q0 -5 -3 -11l-244 -333v-319q0 -7 -6 -13t-13 -6h-39q-8 0 -14 6t-5 13z"/>
<glyph glyph-name="Z" horiz-adv-x="534" unicode="Z" d="M30 19v18l363 590v3h-315q-8 0 -14 6t-5 13v32q-1 7 5 13t14 6h405q7 0 13 -6t6 -13v-13l-369 -597v-1h330q7 0 13 -6t6 -13v-32q0 -7 -6 -13t-13 -6h-414q-7 0 -13 6t-6 13z"/>
<glyph glyph-name="bracketleft" horiz-adv-x="327" unicode="[" d="M146 -237h137q7 1 13 -5t6 -13v-26q0 -7 -6 -13t-13 -6h-186q-7 0 -13 6t-6 13v962q0 7 6 13t13 6h186q7 0 13 -6t6 -13v-25q0 -8 -6 -14t-13 -5h-137v-874z"/>
<glyph glyph-name="backslash" horiz-adv-x="330" unicode="\" d="M221 13l-195 662q-1 4 -1 7q0 6 3 10q5 8 16 8h32q14 0 18 -13l196 -662q1 -4 1 -7q1 -6 -3 -10q-6 -8 -16 -8h-33q-14 0 -18 13z"/>
<glyph glyph-name="bracketright" horiz-adv-x="327" unicode="]" d="M44 -237h137v874h-137q-8 -1 -14 5t-5 14v25q-1 7 5 13t14 6h186q8 0 14 -6t5 -13v-962q1 -7 -5 -13t-14 -6h-186q-8 0 -14 6t-5 13v26q-1 7 5 13t14 5z"/>
<glyph glyph-name="asciicircum" horiz-adv-x="524" unicode="^" d="M60 398q-12 0 -17 9q-2 4 -2 8q0 5 3 11l201 278q6 10 17 10h5q11 0 17 -10l196 -278q3 -5 3 -11q0 -4 -2 -8q-5 -9 -17 -9h-33q-12 0 -19 11l-149 211l-151 -211q-8 -11 -19 -11h-33z"/>
<glyph glyph-name="underscore" horiz-adv-x="387" unicode="_" d="M25 -29q0 19 19 19h299q19 0 19 -19v-16q0 -8 -6 -13t-13 -5h-299q-8 0 -14 5t-5 13v16z"/>
<glyph glyph-name="grave" horiz-adv-x="302" unicode="`" d="M237 559l-161 67q-9 3 -9 11q0 4 3 10l18 36q2 7 12 7h3q8 0 11 -4l150 -84q8 -4 8 -11q0 -4 -2 -8l-10 -22q-3 -6 -10 -6q-5 0 -13 4z"/>
<glyph glyph-name="a" horiz-adv-x="420" unicode="a" d="M106 121q0 -31 19 -51t51 -20q35 0 65 18t45 38v79q-27 16 -84 16q-44 0 -70 -21t-26 -59zM42 121q0 59 42 96t118 37q27 0 56 -6l29 -7v9q1 53 -11 75q-12 24 -54 24q-63 0 -120 -22q-14 -6 -19 10l-8 25q-5 15 11 22q6 3 22 8q16 6 49 12q34 6 68 6q75 0 101 -38 t26 -131v-222q0 -7 -6 -13t-13 -6h-19q-12 0 -17 15l-8 27q-52 -52 -124 -52q-53 0 -88 36t-35 95z"/>
<glyph glyph-name="b" d="M142 119l8 -11q8 -10 20 -22t34 -22t47 -11q53 0 86 43t33 104q0 63 -34 103t-97 40q-34 0 -65 -12l-32 -12v-200zM72 19v662q0 7 6 13t13 6h31q8 0 14 -6t5 -13v-297l12 6q12 8 39 14t56 6q88 0 140 -60t52 -149q0 -87 -53 -149t-129 -62q-33 0 -64 13t-45 27l-14 13 l-6 -27q-4 -16 -17 -16h-21q-7 0 -13 6t-6 13z" unicode="b"/>
<glyph glyph-name="c" horiz-adv-x="441" unicode="c" d="M41 199q-1 87 61 149t145 62q88 0 143 -70q5 -7 5 -13q0 -8 -9 -15l-19 -16q-7 -6 -12 -6t-9 2l-8 8q-37 42 -92 42q-56 0 -94 -41t-39 -101q0 -60 38 -102t94 -42q21 0 39 5t28 13q12 8 22 16q10 10 17 18q8 8 16 8q7 0 14 -6l11 -8q11 -8 11 -17q0 -5 -4 -11 q-24 -38 -64 -61t-89 -23q-84 0 -144 60t-61 149z"/>
<glyph glyph-name="d" d="M112 200q0 -61 33 -104t86 -43q25 1 47 11t34 22t20 22l8 11v200l-32 12q-31 12 -65 12q-63 0 -97 -40t-34 -103zM42 201q0 89 52 149t140 60q29 0 56 -6t39 -14l12 -6v297q-1 7 5 13t14 6h31q7 0 13 -6t6 -13v-662q0 -7 -6 -13t-13 -6h-21q-13 0 -17 16l-6 27l-14 -13 q-14 -14 -45 -27t-64 -13q-76 0 -129 62t-53 149z" unicode="d"/>
<glyph glyph-name="e" horiz-adv-x="457" unicode="e" d="M112 239h238q-2 44 -34 77t-78 33q-50 1 -86 -31t-40 -79zM42 200q0 88 54 149t142 61q79 0 130 -52t51 -131q0 -13 -2 -27q-2 -17 -18 -17h-288q3 -51 43 -91t91 -39q50 0 99 30q13 7 16 8t12 -6l17 -23q6 -8 6 -13t-10 -13q-58 -46 -147 -46q-88 0 -142 60t-54 150z "/>
<glyph glyph-name="f" horiz-adv-x="320" unicode="f" d="M103 19v321h-61q-8 0 -14 6t-5 13v22q0 19 19 19h61v140q1 82 43 126t110 44q67 0 110 -41q7 -6 7 -13q0 -5 -3 -10l-16 -26q-9 -15 -26 -1q-38 29 -73 29q-37 0 -60 -26t-23 -82v-140h116q19 0 19 -19v-22q1 -7 -5 -13t-14 -6h-116v-321q0 -7 -6 -13t-13 -6h-31 q-8 0 -14 6t-5 13z"/>
<glyph glyph-name="g" horiz-adv-x="459" unicode="g" d="M117 -162q1 -36 35 -60t85 -23q52 1 93 27t41 68q1 12 -3 24t-22 26t-51 15h-111l-17 -6q-17 -5 -33 -25t-17 -46zM236 124q44 0 72 31t28 81t-28 81t-72 31q-46 0 -76 -32t-29 -80q-1 -48 29 -80t76 -32zM31 19q1 35 17 63t33 40l17 12l-8 12q-8 12 -16 37t-8 51 q0 72 46 124t123 52h169q19 0 19 -19v-17q0 -15 -11 -17l-54 -11l11 -10q11 -11 23 -39t11 -63q-1 -70 -47 -120t-121 -50q-28 0 -52 6t-33 12l-10 7l-11 -6q-11 -6 -22 -21t-11 -33q0 -21 14 -35t41 -14h144q66 0 108 -32t42 -96q1 -64 -59 -113t-148 -49q-94 0 -143 42 t-49 96q0 58 58 93v3q-27 6 -50 30t-23 65z"/>
<glyph glyph-name="h" horiz-adv-x="496" unicode="h" d="M72 19v662q0 7 6 13t13 6h31q8 0 14 -6t5 -13v-324l15 13q16 14 50 27t69 13q75 0 115 -46t40 -134v-211q0 -7 -6 -13t-13 -6h-32q-7 0 -13 6t-6 13v211q0 56 -24 84t-66 29q-34 0 -66 -14t-48 -28l-15 -14v-268q1 -7 -5 -13t-14 -6h-31q-7 0 -13 6t-6 13z"/>
<glyph glyph-name="i" horiz-adv-x="211" unicode="i" d="M71 19v362q-1 7 5 13t14 6h31q7 0 13 -6t6 -13v-362q0 -7 -6 -13t-13 -6h-31q-8 0 -14 6t-5 13zM104 585q-20 -1 -34 13t-13 34q-1 20 13 34t34 14t34 -14t14 -34t-14 -34t-34 -13z"/>
<glyph glyph-name="j" horiz-adv-x="213" unicode="j" d="M72 -140v521q0 7 6 13t13 6h31q8 0 14 -6t5 -13v-521q-1 -82 -43 -126t-110 -44q-67 0 -110 41q-7 6 -7 13q0 5 3 10l16 26q9 15 26 1q38 -29 73 -29q37 0 60 26t23 82zM106 585q-20 -1 -34 13t-13 34q-1 20 13 34t34 14t34 -14t14 -34t-14 -34t-34 -13z"/>
<glyph glyph-name="k" horiz-adv-x="448" unicode="k" d="M72 19v662q0 7 6 13t13 6h31q8 0 14 -6t5 -13v-433l170 140q14 12 24 12h54q11 0 13 -10t-4 -15l-190 -152l221 -198q5 -4 5 -10v-5q-2 -10 -15 -10h-55q-9 0 -20 8l-203 193v-182q1 -7 -5 -13t-14 -6h-31q-7 0 -13 6t-6 13z"/>
<glyph glyph-name="l" horiz-adv-x="213" unicode="l" d="M72 19v662q0 7 6 13t13 6h31q8 0 14 -6t5 -13v-662q1 -7 -5 -13t-14 -6h-31q-7 0 -13 6t-6 13z"/>
<glyph glyph-name="m" horiz-adv-x="762" unicode="m" d="M71 19v362q-1 7 5 13t14 6h19q13 0 16 -12l9 -31l14 13q14 14 46 27t70 13q88 0 128 -65q81 65 149 65q155 0 155 -180v-211q0 -7 -6 -13t-13 -6h-32q-7 0 -13 6t-6 13v211q0 113 -90 113q-62 0 -122 -56q5 -28 5 -57v-211q1 -7 -5 -13t-14 -6h-32q-8 0 -14 6t-5 13v211 q0 113 -95 113q-32 -1 -60 -15t-42 -28l-12 -14v-267q0 -7 -6 -13t-13 -6h-31q-8 0 -14 6t-5 13z"/>
<glyph glyph-name="n" horiz-adv-x="495" unicode="n" d="M71 19v362q-1 7 5 13t14 6h19q13 0 16 -12l9 -31l16 13q17 14 52 27t72 13q155 0 155 -180v-211q1 -7 -5 -13t-14 -6h-32q-8 0 -14 6t-5 13v211q1 56 -23 84t-67 29q-33 -1 -65 -15t-48 -28l-16 -14v-267q0 -7 -6 -13t-13 -6h-31q-8 0 -14 6t-5 13z"/>
<glyph glyph-name="o" d="M111 201q-1 -61 37 -103t93 -43q55 1 93 43t37 103q1 59 -37 101t-93 42t-93 -42t-37 -101zM42 201q0 85 58 147t141 62t141 -62t58 -147q0 -87 -58 -149t-141 -62t-141 62t-58 149z" unicode="o"/>
<glyph glyph-name="p" d="M142 92l12 -9q12 -9 36 -17t49 -9q57 0 94 41t37 102t-34 104t-92 43q-28 -1 -54 -13t-37 -24l-11 -12v-206zM141 23v-304q1 -7 -5 -13t-14 -6h-31q-7 0 -13 6t-6 13v662q0 7 6 13t13 6h21q11 0 16 -13l7 -19l13 10q13 12 42 22t61 10q81 0 135 -62t54 -149 q0 -89 -55 -149t-137 -60q-29 0 -56 8t-39 16z" unicode="p"/>
<glyph glyph-name="q" d="M112 200q0 -61 37 -102t94 -41q25 1 49 9t36 16l12 8v208l-11 12q-11 12 -37 24t-54 13q-58 0 -92 -43t-34 -104zM42 199q0 87 54 149t135 62q32 0 61 -10t42 -22l13 -10l7 18q5 14 19 14h18q7 0 13 -6t6 -13v-662q0 -7 -6 -13t-13 -6h-31q-8 0 -14 6t-5 13v306l-12 -9 q-12 -8 -39 -17t-56 -9q-82 0 -137 60t-55 149z" unicode="q"/>
<glyph glyph-name="r" horiz-adv-x="334" unicode="r" d="M71 19v362q-1 7 5 13t14 6h19q14 0 17 -14l8 -29l8 9q6 8 20 18t38 18t54 8q18 0 34 -2t28 -10q9 -6 9 -14q0 -3 -1 -7l-12 -34q-6 -16 -24 -9q-18 8 -39 8q-34 0 -61 -14t-38 -28l-10 -14v-267q0 -7 -6 -13t-13 -6h-31q-8 0 -14 6t-5 13z"/>
<glyph glyph-name="s" horiz-adv-x="356" unicode="s" d="M52 35q-10 8 -5 21q1 3 7 13t7 12q9 14 27 3l12 -9q12 -9 36 -17t46 -9q30 -1 48 13t17 35q0 23 -19 39t-69 41q-33 16 -55 30q-22 15 -40 41q-19 26 -19 58q0 38 32 71t95 33q66 0 111 -31q10 -7 10 -17q0 -6 -4 -14l-8 -16q-7 -12 -17 -12q-5 0 -12 3l-28 12 q-29 12 -52 12q-30 0 -44 -12t-13 -28q0 -16 12 -29t23 -19t39 -20q33 -16 51 -26q18 -11 40 -27t30 -36q10 -20 10 -47q0 -45 -39 -79t-99 -34q-72 0 -130 45z"/>
<glyph glyph-name="t" horiz-adv-x="342" unicode="t" d="M97 100v240h-51q-8 0 -14 6t-5 13v22q0 19 19 19h51v111q-1 7 5 13t14 6l32 2q6 0 12 -6t6 -13v-113h116q19 0 19 -19v-22q1 -7 -5 -13t-14 -6h-116v-234q0 -28 8 -38t25 -10q32 0 73 22q15 8 24 -6l15 -25q3 -5 3 -10q0 -8 -10 -15q-16 -10 -50 -22t-65 -12 q-55 0 -73 28t-19 82z"/>
<glyph glyph-name="u" horiz-adv-x="485" unicode="u" d="M66 171v210q0 7 6 13t13 6h32q7 0 13 -6t6 -13v-211q0 -56 24 -84t66 -29q34 1 64 15t42 28l13 14v267q-1 7 5 13t14 6h31q7 0 13 -6t6 -13v-362q0 -7 -6 -13t-13 -6h-19q-13 0 -18 17l-7 26l-14 -13q-15 -14 -47 -27t-69 -13q-155 0 -155 181z"/>
<glyph glyph-name="v" horiz-adv-x="411" unicode="v" d="M185 0l-169 377q-3 5 -3 10q1 5 3 7q4 6 15 6h31q12 0 18 -11l124 -286h1l132 286q5 11 17 11h26q12 0 16 -6q2 -3 2 -7t-3 -10l-171 -377q-4 -10 -17 -10h-5q-13 0 -17 10z"/>
<glyph glyph-name="w" horiz-adv-x="604" unicode="w" d="M144 0l-111 377q-2 6 -2 10q0 13 17 13h31q14 0 18 -11l73 -264h1l113 275q4 10 17 10h5q13 0 17 -10l112 -276h1l72 265q4 11 17 11h31q17 0 17 -13q0 -4 -2 -10l-109 -377q-3 -10 -17 -10h-5q-13 0 -17 10l-122 300l-118 -300q-4 -10 -17 -10h-5q-14 0 -17 10z"/>
<glyph glyph-name="x" horiz-adv-x="417" unicode="x" d="M37 26l131 178l-127 170q-8 10 -4 18t17 8h42q10 0 16 -8l95 -136h1l99 136q6 8 16 8h42q13 0 17 -8q1 -3 1 -6q0 -6 -5 -12l-127 -169l128 -179q4 -6 4 -12q0 -3 -1 -6q-4 -8 -16 -8h-37q-8 0 -15 9l-106 147h-1l-104 -148q-6 -8 -16 -8h-37q-12 0 -16 8q-1 3 -1 6 q0 6 4 12z"/>
<glyph glyph-name="y" horiz-adv-x="466" unicode="y" d="M200 1l-186 377q-3 5 -3 9q1 4 3 7q4 6 15 6h44q11 0 17 -11l148 -306h1l140 306q5 11 17 11h38q12 0 16 -6q2 -3 2 -7t-3 -10l-307 -665q-6 -12 -17 -12h-37q-11 0 -16 7t0 18z"/>
<glyph glyph-name="z" horiz-adv-x="365" unicode="z" d="M36 19v10l196 305v3h-168q-6 -1 -12 5t-6 14v25q0 7 5 13t13 6h251q11 0 17 -8q3 -4 3 -9t-3 -10l-191 -307v-3h154q19 0 19 -19v-25q0 -7 -6 -13t-13 -6h-240q-7 0 -13 6t-6 13z"/>
<glyph glyph-name="braceleft" horiz-adv-x="399" unicode="{" d="M109 -71v161q1 30 -23 52t-46 26q-15 2 -15 17v31q0 13 15 15q22 4 46 26t23 52v161q-1 65 23 114t62 75q38 27 78 39t82 12q20 0 20 -17v-19q0 -16 -13 -18q-77 -11 -130 -60t-53 -126v-133q0 -35 -8 -61t-22 -40t-24 -20t-25 -13v-7q15 -6 25 -12t24 -22q14 -14 22 -40 t8 -60v-133q0 -77 53 -125t130 -60q13 -2 13 -17v-20q0 -7 -6 -12t-14 -5q-42 0 -82 12t-78 39t-62 75t-23 113z"/>
<glyph glyph-name="bar" horiz-adv-x="198" unicode="|" d="M77 -282v1023q-1 7 5 13t14 6h7q8 0 13 -6t5 -13v-1023q1 -6 -5 -12t-14 -6h-6q-8 0 -14 6t-5 12z"/>
<glyph glyph-name="braceright" horiz-adv-x="399" unicode="}" d="M221 62q-1 34 7 60t22 40t25 22q10 6 25 12v7q-15 7 -25 13q-11 6 -25 20t-22 40t-7 61v133q0 77 -53 126t-130 60q-13 2 -13 18v19q0 17 20 17q43 0 83 -12t78 -39q38 -26 60 -75q24 -49 24 -114v-161q0 -30 24 -52t45 -26q15 -2 15 -15v-31q0 -15 -15 -17 q-21 -4 -45 -26t-24 -52v-161q0 -65 -24 -113t-60 -75q-38 -27 -78 -39t-83 -12q-8 0 -14 5t-6 12v20q0 15 13 17q77 12 130 60t53 125v133z"/>
<glyph glyph-name="asciitilde" horiz-adv-x="556" unicode="~" d="M79 228q-3 2 -10 8t-11 9q-7 6 -7 13q0 6 5 11l10 15q10 14 26 31t44 31q26 14 53 15q45 0 108 -45q48 -34 73 -34q16 0 31 8t24 18t17 22t13 18q7 10 15 10q6 0 12 -6l21 -17q7 -6 7 -13q0 -6 -5 -11l-10 -15q-11 -14 -27 -31t-43 -31t-55 -15q-42 0 -104 43 q-12 7 -22 15q-10 9 -25 15t-29 6q-16 0 -30 -8t-24 -18t-18 -22l-12 -18q-7 -10 -15 -10q-6 0 -12 6z"/>
<glyph glyph-name="uni00A0" horiz-adv-x="222" unicode=" "/>
<glyph glyph-name="exclamdown" horiz-adv-x="229" unicode="¡" d="M90 112q0 6 6 11t13 5h12q7 0 13 -5t6 -11l19 -279v-114q1 -7 -5 -13t-14 -6h-50q-8 0 -14 6t-5 13v112zM115 296q-25 0 -41 16t-16 41q0 23 16 40t41 17q23 0 40 -17t17 -40q0 -25 -17 -41t-40 -16z"/>
<glyph glyph-name="cent" horiz-adv-x="427" unicode="¢" d="M171 72l73 269q0 1 -9 1q-57 0 -95 -41t-38 -101q0 -42 18 -76t51 -52zM153 7q-55 23 -89 75t-34 117q0 87 60 149t146 62q8 0 26 -2l11 41q4 14 16 14q3 0 7 -1l7 -2q18 -4 13 -23l-11 -40q43 -18 74 -57q5 -7 5 -13q0 -8 -9 -15l-19 -16q-6 -6 -12 -6t-9 2q-3 4 -8 8 q-17 18 -40 30l-74 -273q7 -1 21 -1q25 0 48 10q24 10 32 18t26 24q8 8 16 8q7 0 14 -6l11 -8q11 -8 11 -17q0 -5 -4 -11q-24 -38 -64 -61t-89 -23q-23 0 -39 4l-26 -97q-1 -7 -8 -11q-5 -3 -10 -3q-3 0 -5 1l-6 2q-18 4 -14 22z"/>
<glyph glyph-name="sterling" horiz-adv-x="504" unicode="£" d="M82 19v18q46 87 46 182q0 37 -7 75h-44q-7 0 -13 6t-5 13v7q-1 8 5 14t13 5h32q-1 4 -10 34q-9 31 -15 65t-7 67q-1 93 59 149t150 56q86 0 167 -71q8 -6 8 -13q0 -6 -6 -13l-21 -26q-8 -10 -15 -10t-14 9l-16 14q-17 16 -47 30t-60 14q-58 0 -96 -39t-39 -101 q-1 -34 7 -70t16 -64t10 -31h164q8 1 14 -5t5 -14v-8q1 -8 -5 -13t-14 -5h-153q6 -22 6 -61q0 -21 -2 -48q-5 -74 -26 -121h250q8 0 13 -6t5 -13v-26q1 -7 -5 -13t-13 -6h-318q-7 0 -13 6t-6 13z"/>
<glyph glyph-name="currency" horiz-adv-x="476" unicode="¤" d="M238 260q30 0 51 21t21 51t-21 51t-51 21t-51 -21t-21 -51t21 -51t51 -21zM101 176l-20 19q-7 6 -7 13t7 14l41 41q-20 34 -20 69q0 34 20 69l-41 41q-7 7 -7 14t7 13l20 19q5 5 13 5t14 -5l41 -41q32 20 69 20t69 -19l42 42q6 6 12 6l14 -7l20 -20q7 -6 7 -13 q0 -6 -7 -13l-41 -41q20 -32 20 -70t-20 -70l41 -41q7 -6 7 -13q0 -6 -7 -13l-20 -20q-7 -7 -14 -7l-12 6l-42 42q-31 -19 -68 -19l-1 1q-38 0 -69 19l-41 -41q-6 -5 -14 -5t-13 5z"/>
<glyph glyph-name="yen" horiz-adv-x="618" unicode="¥" d="M138 123q-6 -1 -12 5t-6 14v7q0 7 6 13t12 6h131v75h-131q-6 -1 -12 5t-6 14v7q0 7 6 13t12 6h131v49l-241 334q-3 5 -3 11q0 4 2 8q5 10 17 10h47q9 0 16 -9l202 -279l202 279q7 9 16 9h47q12 0 17 -10q2 -4 2 -8q0 -5 -3 -11l-244 -333v-50h129q7 0 13 -6t6 -13v-8 q0 -8 -6 -13t-13 -5h-129v-75h129q7 0 13 -6t6 -13v-8q0 -8 -6 -13t-13 -5h-129v-104q0 -7 -6 -13t-13 -6h-39q-8 0 -14 6t-5 13v104h-131z"/>
<glyph glyph-name="brokenbar" horiz-adv-x="364" unicode="¦" d="M160 49q0 7 6 13t13 6h7q8 0 13 -6t5 -13v-331q0 -6 -6 -12t-13 -6h-6q-7 0 -13 6t-6 12v331zM179 393q-7 -1 -13 5t-6 13v330q0 7 6 13t13 6h7q8 0 13 -6t5 -13v-330q0 -7 -6 -13t-13 -5h-6z"/>
<glyph glyph-name="section" horiz-adv-x="527" unicode="§" d="M122 273q0 -24 8 -42q8 -19 32 -35t42 -26t61 -30t69 -34l16 10q16 10 32 34t17 54q0 42 -40 72t-135 69q-28 12 -42 19l-15 -8q-15 -8 -30 -31t-15 -52zM66 -110q8 10 16 10l14 -7q10 -9 28 -23t60 -34t81 -19q57 0 95 26t39 74q-1 46 -43 83t-132 75q-176 74 -176 195 q0 30 12 56t28 40q15 14 28 24l12 8l-20 16q-20 15 -40 51t-20 77q0 62 52 115t161 53q45 0 87 -13t63 -25l21 -13q7 -3 10 -11t-3 -22l-15 -23q-8 -10 -18 -10q-7 0 -15 4q-80 46 -131 46q-74 -1 -106 -31t-32 -69q0 -76 135 -131q116 -48 169 -91t53 -111q1 -38 -21 -72 t-43 -50l-21 -16l21 -16q21 -17 43 -55t21 -81q0 -78 -61 -124t-155 -46q-53 0 -105 20t-72 34t-34 27q-11 10 -11 20q0 7 5 14z"/>
<glyph glyph-name="dieresis" horiz-adv-x="414" unicode="¨" d="M127 585q-19 -1 -33 13t-14 34t14 34t33 14q20 0 34 -14t14 -34t-14 -34t-34 -13zM320 585q-20 -1 -34 13t-13 34q-1 20 13 34t34 14t34 -14t14 -34t-14 -34t-34 -13z"/>
<glyph glyph-name="copyright" horiz-adv-x="826" unicode="©" d="M235 348q1 78 55 133t132 55q67 0 115 -38q9 -7 9 -15q0 -7 -7 -14l-14 -18q-9 -12 -27 -1q-34 23 -74 23q-51 0 -85 -36t-34 -86q0 -52 34 -87t85 -35q38 0 71 22q9 6 16 6q8 0 13 -7l16 -19q6 -7 6 -13q0 -7 -7 -15q-49 -42 -117 -42q-77 0 -132 55t-55 132zM114 350 q0 -124 88 -212t211 -87q123 -1 211 87t88 212t-87 212t-212 87q-123 1 -211 -87t-88 -212zM54 350q0 148 106 254t253 106q149 0 255 -106t105 -254q1 -148 -105 -254t-255 -105q-149 -1 -254 105t-105 254z"/>
<glyph glyph-name="ordfeminine" horiz-adv-x="312" unicode="ª" d="M130 451q24 0 46 12t33 26v56q-26 13 -61 13q-28 0 -48 -16t-20 -40q0 -22 14 -36t36 -15zM124 404q-39 0 -64 26t-25 71q1 43 31 69t85 27q19 0 39 -5l21 -5q-1 45 -9 61t-36 16q-36 0 -86 -18q-11 -3 -15 11l-5 18q-3 10 7 15q7 4 35 12t68 8q16 0 28 -2t21 -8 q9 -4 16 -10t11 -14t7 -16q3 -9 5 -19q2 -11 2 -21v-20v-22v-152q0 -14 -13 -14h-18q-9 0 -12 10l-6 21q-42 -39 -87 -39z"/>
<glyph glyph-name="guillemotleft" horiz-adv-x="415" unicode="«" d="M145 39l-104 155q-4 6 -4 12t4 12l109 148q7 12 18 12h14q13 0 17 -10t-2 -21l-74 -139l71 -147q6 -12 2 -21t-17 -9h-19q-9 0 -15 8zM204 194q-4 6 -4 12t4 12l109 148q7 12 18 12h14q13 0 17 -10q2 -4 2 -8q0 -6 -4 -13l-74 -139l71 -147q6 -12 2 -21t-17 -9h-19 q-9 0 -15 8z"/>
<glyph glyph-name="logicalnot" horiz-adv-x="520" unicode="¬" d="M56 314q-8 0 -14 6t-5 13v28q-1 7 5 13t14 6h380q8 0 14 -6t5 -13v-204q1 -7 -5 -13t-14 -5h-28q-8 -1 -14 5t-5 13v157h-333z"/>
<glyph glyph-name="uni00AD" horiz-adv-x="347" unicode="­" d="M69 220q-7 0 -13 5t-6 13v19q0 19 19 19h209q19 0 19 -19v-19q1 -8 -5 -13t-14 -5h-209z"/>
<glyph glyph-name="registered" horiz-adv-x="827" unicode="®" d="M351 365h98q27 1 43 17t17 40q0 26 -16 42t-44 15h-98v-114zM288 187v328q0 7 6 13t13 6h142q51 0 87 -30t36 -82q0 -50 -26 -76t-55 -33l60 -118q5 -9 -1 -18t-16 -9h-34q-11 0 -18 14l-56 125h-74v-120q0 -7 -6 -13t-13 -6h-26q-7 0 -13 6t-6 13zM114 350 q0 -124 88 -212t211 -87q123 -1 211 87t88 212t-87 212t-212 87q-123 1 -211 -87t-88 -212zM54 350q0 148 106 254t253 106q149 0 255 -106t105 -254q1 -148 -105 -254t-255 -105q-149 -1 -254 105t-105 254z"/>
<glyph glyph-name="macron" horiz-adv-x="414" unicode="¯" d="M79 583q-7 0 -13 5t-6 13v21q0 19 19 19h256q19 0 19 -19v-21q0 -8 -6 -13t-13 -5h-256z"/>
<glyph glyph-name="degree" horiz-adv-x="334" unicode="°" d="M167 493q31 0 55 25t25 57q-1 31 -25 55t-55 25q-32 -1 -57 -25t-25 -55q0 -32 25 -57t57 -25zM167 440q-55 0 -95 40t-40 95t40 95t95 40t95 -40t40 -95t-40 -95t-95 -40z"/>
<glyph glyph-name="plusminus" horiz-adv-x="597" unicode="±" d="M89 80v28q-1 8 5 14t14 5h381q7 1 13 -5t5 -14v-28q1 -8 -5 -14t-13 -5h-381q-8 -1 -14 5t-5 14zM266 267v117h-157q-7 0 -13 6t-6 13v28q0 7 6 13t13 6h157v148q0 6 6 12t13 6h28q7 0 13 -6t6 -12v-148h158q6 0 12 -6t6 -13v-28q0 -7 -6 -13t-12 -6h-158v-117 q0 -7 -6 -13t-13 -5h-28q-7 -1 -13 5t-6 13z"/>
<glyph glyph-name="twosuperior" horiz-adv-x="307" unicode="²" d="M55 504q-10 0 -10 9v14l127 133q32 35 32 56q0 18 -14 32t-43 15q-32 0 -62 -30q-6 -6 -12 0l-20 21q-6 6 0 11l11 11q12 12 36 23t50 11q52 0 80 -25t28 -64t-49 -90l-81 -83h121q9 0 9 -10v-25q0 -9 -9 -9h-194z"/>
<glyph glyph-name="threesuperior" horiz-adv-x="298" unicode="³" d="M145 494q-65 0 -103 41q-3 3 -3 5q0 3 4 6l21 20q8 4 13 -1q39 -26 66 -26q24 1 42 13t18 32q-1 20 -19 34t-54 14h-31q-10 0 -10 9v25q0 9 10 9h31q32 1 48 13t17 31q0 21 -16 33t-38 12q-32 0 -56 -24q-6 -6 -13 0l-20 18q-8 6 0 12l11 10q11 10 35 20t47 10 q45 0 75 -23t30 -60q0 -24 -16 -43t-36 -27v-2q22 -9 42 -29t19 -46q1 -38 -31 -62t-83 -24z"/>
<glyph glyph-name="acute" horiz-adv-x="302" unicode="´" d="M83 561l-10 22q-2 4 -2 8q0 7 8 11l150 84q4 4 11 4h2q10 0 13 -7l18 -36q3 -6 3 -10q0 -8 -9 -11l-161 -67q-8 -4 -13 -4q-7 0 -10 6z"/>
<glyph glyph-name="mu" horiz-adv-x="505" unicode="µ" d="M142 10v-291q0 -7 -6 -13t-13 -6h-31q-8 0 -14 6t-5 13v662q-1 7 5 13t14 6h32q8 0 14 -6t5 -13v-211q-1 -56 23 -84t67 -29q33 1 63 15t43 28l13 14v267q0 7 6 13t13 6h31q8 0 14 -6t5 -13v-362q1 -7 -5 -13t-14 -6h-19q-13 0 -18 17l-7 26l-14 -13q-14 -14 -46 -27 t-70 -13q-52 0 -86 20z"/>
<glyph glyph-name="paragraph" horiz-adv-x="702" unicode="¶" d="M233 282q-85 0 -147 61t-61 149q1 86 57 148t137 61l442 -1q7 0 13 -6t6 -13v-20q0 -7 -6 -13t-13 -6h-111v-924q0 -8 -6 -14t-13 -5h-21q-8 -1 -14 5t-5 14v924h-156v-924q1 -8 -5 -14t-14 -5h-20q-8 -1 -14 5t-5 14v564h-44z"/>
<glyph glyph-name="periodcentered" horiz-adv-x="229" unicode="·" d="M114 204q-23 0 -40 17t-17 40q0 25 17 41t40 16q24 0 40 -16t17 -41q-1 -23 -17 -40t-40 -17z"/>
<glyph glyph-name="cedilla" horiz-adv-x="247" unicode="¸" d="M57 0h54v-53q47 -5 76 -33t29 -70q0 -44 -30 -74t-75 -30q-46 0 -76 35q-7 9 -7 15t7 11l14 11q14 10 23 0q17 -18 41 -18q20 0 32 13t12 34t-15 35t-30 20q-15 4 -38 8q-17 3 -17 20v76z"/>
<glyph glyph-name="onesuperior" horiz-adv-x="190" unicode="¹" d="M90 504q-10 0 -10 9v210l-41 -11q-9 -2 -10 4l-5 17q-1 7 3 11l70 56h28q9 0 9 -9v-278q0 -9 -9 -9h-35z"/>
<glyph glyph-name="ordmasculine" horiz-adv-x="324" unicode="º" d="M162 442q33 0 51 28t18 81t-18 81t-51 29q-33 -1 -51 -29t-18 -81t18 -81t51 -28zM162 394q-60 0 -92 42t-32 115q0 75 32 117t92 41q60 1 92 -41t32 -117q0 -73 -32 -115t-92 -42z"/>
<glyph glyph-name="guillemotright" horiz-adv-x="415" unicode="»" d="M72 31q-13 0 -17 9t2 21l71 147l-74 139q-4 7 -4 13q0 4 2 8q4 10 17 10h14q11 0 18 -12l109 -148q8 -13 0 -24l-104 -155q-6 -8 -15 -8h-19zM220 61l71 147l-74 139q-4 7 -4 13q0 4 2 8q4 10 17 10h14q11 0 18 -12l109 -148q4 -6 4 -12t-4 -12l-104 -155q-6 -8 -15 -8 h-19q-13 0 -17 9t2 21z"/>
<glyph glyph-name="onequarter" horiz-adv-x="633" unicode="¼" d="M372 103h106v118zM317 68v29l172 196q3 3 8 3h21q10 0 10 -9v-185h41q9 0 9 -8v-26q0 -8 -9 -8h-41v-51q0 -9 -10 -9h-32q-10 0 -10 9v50h-150q-9 0 -9 9zM104 404q-10 0 -10 9v210l-41 -11q-9 -2 -10 4l-5 17q-1 7 3 11l70 56h28q9 0 9 -9v-278q0 -9 -9 -9h-35zM90 27 l343 663q6 10 17 10h16q10 0 16 -8q3 -4 3 -10q0 -4 -2 -9l-345 -663q-5 -10 -17 -10h-14q-11 0 -17 8q-3 4 -2 10q0 4 2 9z"/>
<glyph glyph-name="onehalf" horiz-adv-x="626" unicode="½" d="M347 9v14l127 133q32 35 32 56q0 18 -14 32t-43 15q-32 0 -62 -30q-6 -6 -12 0l-20 21q-6 6 0 11l11 11q12 12 36 23t50 11q52 0 80 -25t28 -64t-49 -90l-81 -83h121q9 0 9 -10v-25q0 -9 -9 -9h-194q-10 0 -10 9zM104 404q-10 0 -10 9v210l-41 -11q-9 -2 -10 4l-5 17 q-1 7 3 11l70 56h28q9 0 9 -9v-278q0 -9 -9 -9h-35zM90 27l343 663q6 10 17 10h16q10 0 16 -8q3 -4 3 -10q0 -4 -2 -9l-345 -663q-5 -10 -17 -10h-14q-11 0 -17 8q-3 4 -2 10q0 4 2 9z"/>
<glyph glyph-name="threequarters" horiz-adv-x="678" unicode="¾" d="M417 103h106v118zM362 68v29l172 196q3 3 8 3h21q10 0 10 -9v-185h41q9 0 9 -8v-26q0 -8 -9 -8h-41v-51q0 -9 -10 -9h-32q-10 0 -10 9v50h-150q-9 0 -9 9zM135 27l343 663q6 10 17 10h16q11 0 17 -8q3 -4 2 -10q0 -4 -2 -9l-345 -663q-5 -10 -17 -10h-14q-10 0 -16 8 t-1 19zM148 394q-65 0 -103 41q-3 3 -3 5q0 3 4 6l21 20q8 4 13 -1q39 -26 66 -26q24 1 42 13t18 32t-18 34t-55 14h-31q-10 0 -10 9v25q0 9 10 9h31q33 1 49 13t16 31q0 21 -16 33t-38 12q-32 0 -56 -24q-6 -6 -13 0l-20 18q-8 6 0 12l11 10q10 10 34 20t48 10q45 0 75 -23 t30 -60q0 -24 -16 -43t-36 -27v-2q21 -9 41 -29t20 -46q0 -38 -32 -62t-82 -24z"/>
<glyph glyph-name="questiondown" horiz-adv-x="244" unicode="¿" d="M93 67v41q0 20 21 20h27q7 0 13 -6t6 -13v-42q0 -33 -16 -59t-37 -42l-44 -32q-21 -16 -37 -40t-16 -54q0 -36 26 -62t73 -26q23 0 43 5t35 13t27 17t19 17l14 16q13 13 26 1l19 -17q6 -6 6 -12t-6 -14l-12 -14q-12 -14 -32 -30t-58 -30t-81 -14q-78 0 -126 42t-48 111 q1 36 17 65q16 30 39 48t46 34t39 36t17 41zM129 296q-25 0 -41 16t-16 41q0 23 16 40t41 17q23 0 40 -17t17 -40q0 -25 -17 -41t-40 -16z"/>
<glyph glyph-name="Agrave" horiz-adv-x="663" unicode="À" d="M399 781l-161 67q-14 5 -6 21l18 36q2 7 12 7h3q8 0 11 -4l150 -84q12 -6 6 -19l-10 -22q-5 -10 -23 -2zM181 238h300l-146 328h-8zM23 0q-11 0 -17 8q-3 4 -2 9q0 4 2 9l304 673q6 11 17 11h10q11 0 17 -11l302 -673q2 -5 2 -9q0 -5 -2 -9q-6 -8 -17 -8h-40 q-13 0 -17 11l-74 165h-355l-73 -165q-4 -11 -17 -11h-40z"/>
<glyph glyph-name="Aacute" horiz-adv-x="663" unicode="Á" d="M241 783l-10 22q-6 13 6 19l150 84q4 4 11 4h2q10 0 13 -7l18 -36q8 -16 -6 -21l-161 -67q-18 -8 -23 2zM181 238h300l-146 328h-8zM23 0q-11 0 -17 8q-3 4 -2 9q0 4 2 9l304 673q6 11 17 11h10q11 0 17 -11l302 -673q2 -5 2 -9q0 -5 -2 -9q-6 -8 -17 -8h-40 q-13 0 -17 11l-74 165h-355l-73 -165q-4 -11 -17 -11h-40z"/>
<glyph glyph-name="Acircumflex" horiz-adv-x="663" unicode="Â" d="M207 775l-14 18q-7 10 6 19l120 94q5 4 13 4t13 -4l120 -94q13 -9 6 -19q-4 -11 -14 -21t-23 -1l-102 70l-102 -68q-15 -10 -23 2zM181 238h300l-146 328h-8zM23 0q-11 0 -17 8q-3 4 -2 9q0 4 2 9l304 673q6 11 17 11h10q11 0 17 -11l302 -673q2 -5 2 -9q0 -5 -2 -9 q-6 -8 -17 -8h-40q-13 0 -17 11l-74 165h-355l-73 -165q-4 -11 -17 -11h-40z"/>
<glyph glyph-name="Atilde" horiz-adv-x="663" unicode="Ã" d="M207 795l-18 9q-11 6 -4 22q7 12 13 30t28 36t51 18q27 0 47 -18t36 -38q16 -18 27 -18q30 0 45 51q5 16 23 8l16 -8q10 -5 4 -26q-28 -81 -89 -81q-24 0 -46 19t-37 37q-16 18 -27 19q-12 0 -22 -9q-10 -10 -14 -18t-8 -23q-4 -13 -14 -13q-5 0 -11 3zM181 238h300 l-146 328h-8zM23 0q-11 0 -17 8q-3 4 -2 9q0 4 2 9l304 673q6 11 17 11h10q11 0 17 -11l302 -673q2 -5 2 -9q0 -5 -2 -9q-6 -8 -17 -8h-40q-13 0 -17 11l-74 165h-355l-73 -165q-4 -11 -17 -11h-40z"/>
<glyph glyph-name="Adieresis" horiz-adv-x="663" unicode="Ä" d="M225 792q-19 0 -33 14t-14 33q0 20 14 34t33 14q20 0 34 -14t14 -34q0 -19 -14 -33t-34 -14zM436 792q-20 0 -34 14t-13 33q-1 20 13 34t34 14t34 -14t14 -34q0 -19 -14 -33t-34 -14zM181 238h300l-146 328h-8zM23 0q-11 0 -17 8q-3 4 -2 9q0 4 2 9l304 673q6 11 17 11 h10q11 0 17 -11l302 -673q2 -5 2 -9q0 -5 -2 -9q-6 -8 -17 -8h-40q-13 0 -17 11l-74 165h-355l-73 -165q-4 -11 -17 -11h-40z"/>
<glyph glyph-name="Aring" horiz-adv-x="663" unicode="Å" d="M331 806q23 0 41 18t18 43q0 23 -18 41t-41 18q-25 0 -43 -18t-18 -41q0 -25 18 -43t43 -18zM331 758q-45 0 -77 32t-32 77t32 77t77 32t77 -32t32 -77t-32 -77t-77 -32zM181 238h300l-146 328h-8zM23 0q-11 0 -17 8q-3 4 -2 9q0 4 2 9l304 673q6 11 17 11h10 q11 0 17 -11l302 -673q2 -5 2 -9q0 -5 -2 -9q-6 -8 -17 -8h-40q-13 0 -17 11l-74 165h-355l-73 -165q-4 -11 -17 -11h-40z"/>
<glyph glyph-name="AE" horiz-adv-x="897" unicode="Æ" d="M206 238h201v328zM6 0q-10 0 -14 8l-2 6q0 6 4 12l401 643q4 6 7 11q2 4 6 8t8 6t10 4t13 2h381q8 0 14 -6t5 -13v-29q1 -8 -5 -14t-14 -5h-342v-244h293q7 1 13 -5t6 -14v-29q0 -7 -6 -13t-13 -6h-293v-255h342q8 1 14 -5t5 -14v-29q1 -7 -5 -13t-14 -6h-394q-8 0 -14 6 t-5 13v157h-237l-104 -165q-9 -11 -19 -11h-41z"/>
<glyph glyph-name="Ccedilla" horiz-adv-x="709" unicode="Ç" d="M52 349q0 149 106 255t255 106q133 0 242 -93q8 -8 8 -15t-7 -13l-27 -27q-11 -14 -26 1q-87 75 -191 75q-117 0 -198 -85t-81 -203q0 -117 81 -202t198 -85q42 -1 78 11t58 26t55 38q13 10 24 3l30 -27q6 -5 6 -12q0 -9 -7 -15q-100 -97 -243 -97v-43q47 -5 76 -33 t29 -70q0 -44 -30 -74t-75 -30q-46 0 -76 35q-14 16 0 26l14 11q14 10 23 0q17 -18 41 -18q20 0 32 13t12 34t-15 35t-30 20q-15 4 -38 8q-17 3 -17 20v70q-131 20 -219 120t-88 235z"/>
<glyph glyph-name="Egrave" horiz-adv-x="592" unicode="È" d="M394 781l-161 67q-14 5 -6 21l18 36q3 7 13 7h2q8 0 11 -4l150 -84q12 -6 6 -19l-10 -22q-5 -10 -23 -2zM102 19v662q0 7 6 13t13 6h394q7 0 13 -6t6 -13v-29q0 -8 -6 -14t-13 -5h-336v-244h287q8 1 14 -5t5 -14v-29q1 -7 -5 -13t-14 -6h-287v-255h336q7 1 13 -5t6 -14 v-29q0 -7 -6 -13t-13 -6h-394q-7 0 -13 6t-6 13z"/>
<glyph glyph-name="Eacute" horiz-adv-x="592" unicode="É" d="M237 783l-10 22q-6 13 6 19l150 84q4 4 11 4h2q10 0 13 -7l18 -36q8 -16 -6 -21l-161 -67q-18 -8 -23 2zM102 19v662q0 7 6 13t13 6h394q7 0 13 -6t6 -13v-29q0 -8 -6 -14t-13 -5h-336v-244h287q8 1 14 -5t5 -14v-29q1 -7 -5 -13t-14 -6h-287v-255h336q7 1 13 -5t6 -14 v-29q0 -7 -6 -13t-13 -6h-394q-7 0 -13 6t-6 13z"/>
<glyph glyph-name="Ecircumflex" horiz-adv-x="592" unicode="Ê" d="M192 775l-14 18q-7 10 6 19l120 94q5 4 13 4t13 -4l120 -94q13 -9 6 -19q-4 -11 -14 -21t-23 -1l-102 70l-102 -68q-15 -10 -23 2zM102 19v662q0 7 6 13t13 6h394q7 0 13 -6t6 -13v-29q0 -8 -6 -14t-13 -5h-336v-244h287q8 1 14 -5t5 -14v-29q1 -7 -5 -13t-14 -6h-287 v-255h336q7 1 13 -5t6 -14v-29q0 -7 -6 -13t-13 -6h-394q-7 0 -13 6t-6 13z"/>
<glyph glyph-name="Edieresis" horiz-adv-x="592" unicode="Ë" d="M212 792q-20 0 -34 14t-13 33q-1 20 13 34t34 14t34 -14t14 -34q0 -19 -14 -33t-34 -14zM423 792q-19 0 -33 14t-14 33q0 20 14 34t33 14q20 0 34 -14t14 -34q0 -19 -14 -33t-34 -14zM102 19v662q0 7 6 13t13 6h394q7 0 13 -6t6 -13v-29q0 -8 -6 -14t-13 -5h-336v-244 h287q8 1 14 -5t5 -14v-29q1 -7 -5 -13t-14 -6h-287v-255h336q7 1 13 -5t6 -14v-29q0 -7 -6 -13t-13 -6h-394q-7 0 -13 6t-6 13z"/>
<glyph glyph-name="Igrave" horiz-adv-x="282" unicode="Ì" d="M208 781l-161 67q-9 3 -9 11q0 4 3 10l18 36q3 7 13 7h2q8 0 11 -4l150 -84q8 -4 8 -11q0 -4 -2 -8l-10 -22q-5 -10 -23 -2zM102 19v662q0 7 6 13t13 6h40q7 0 13 -6t6 -13v-662q0 -7 -6 -13t-13 -6h-40q-7 0 -13 6t-6 13z"/>
<glyph glyph-name="Iacute" horiz-adv-x="282" unicode="Í" d="M51 783l-10 22q-2 4 -2 8q0 7 8 11l150 84q4 4 11 4h2q10 0 13 -7l18 -36q3 -6 3 -10q0 -8 -9 -11l-161 -67q-18 -8 -23 2zM102 19v662q0 7 6 13t13 6h40q7 0 13 -6t6 -13v-662q0 -7 -6 -13t-13 -6h-40q-7 0 -13 6t-6 13z"/>
<glyph glyph-name="Icircumflex" horiz-adv-x="282" unicode="Î" d="M16 775l-14 18q-2 4 -2 7q0 6 8 12l120 94q5 4 13 4t13 -4l120 -94q8 -6 8 -12q0 -3 -2 -7q-4 -11 -14 -21t-23 -1l-102 70l-102 -68q-15 -10 -23 2zM102 19v662q0 7 6 13t13 6h40q7 0 13 -6t6 -13v-662q0 -7 -6 -13t-13 -6h-40q-7 0 -13 6t-6 13z"/>
<glyph glyph-name="Idieresis" horiz-adv-x="282" unicode="Ï" d="M36 792q-20 0 -34 14t-13 33q-1 20 13 34t34 14t34 -14t14 -34q0 -19 -14 -33t-34 -14zM247 792q-19 0 -33 14t-14 33q0 20 14 34t33 14q20 0 34 -14t14 -34q0 -19 -14 -33t-34 -14zM102 19v662q0 7 6 13t13 6h40q7 0 13 -6t6 -13v-662q0 -7 -6 -13t-13 -6h-40 q-7 0 -13 6t-6 13z"/>
<glyph glyph-name="Eth" horiz-adv-x="751" unicode="Ð" d="M182 69h150q123 -1 203 79t80 203t-80 202t-203 79h-150v-263h211q7 1 13 -5t6 -14v-8q0 -8 -6 -13t-13 -5h-211v-255zM106 19v305h-29q-7 0 -13 6t-5 13v7q-1 8 5 14t13 5h29v312q0 7 6 13t12 6h224q145 0 248 -102t103 -247t-103 -248t-248 -103h-224q-6 0 -12 6t-6 13 z"/>
<glyph glyph-name="Ntilde" horiz-adv-x="774" unicode="Ñ" d="M274 795l-18 9q-11 6 -4 22q7 12 13 30q5 18 27 36t52 18q26 0 46 -18t36 -38q16 -18 28 -18q30 0 45 51q5 16 23 8l16 -8q10 -5 4 -26q-28 -81 -89 -81q-23 0 -45 19t-38 37t-27 19q-12 0 -22 -9q-9 -10 -13 -18t-9 -23q-4 -13 -14 -13q-5 0 -11 3zM102 19v673q0 6 6 12 t13 6h25l451 -562h2v533q-1 7 5 13t14 6h35q7 0 13 -6t6 -13v-673q0 -6 -6 -12t-13 -6h-18l-459 573h-1v-544q1 -7 -5 -13t-14 -6h-35q-7 0 -13 6t-6 13z"/>
<glyph glyph-name="Ograve" horiz-adv-x="821" unicode="Ò" d="M487 781l-161 67q-14 5 -6 21l18 36q2 7 12 7h3q8 0 11 -4l150 -84q12 -6 6 -19l-10 -22q-5 -10 -23 -2zM121 349q0 -119 85 -204t204 -85q118 0 204 85t86 204t-86 205t-204 86q-119 0 -204 -86t-85 -205zM51 349q1 149 105 255t254 106t255 -106t105 -255 q0 -151 -105 -255t-255 -104t-254 104t-105 255z"/>
<glyph glyph-name="Oacute" horiz-adv-x="821" unicode="Ó" d="M330 783l-10 22q-6 13 6 19l150 84q4 4 11 4h3q10 0 12 -7l18 -36q8 -16 -6 -21l-161 -67q-18 -8 -23 2zM121 349q0 -119 85 -204t204 -85q118 0 204 85t86 204t-86 205t-204 86q-119 0 -204 -86t-85 -205zM51 349q1 149 105 255t254 106t255 -106t105 -255 q0 -151 -105 -255t-255 -104t-254 104t-105 255z"/>
<glyph glyph-name="Ocircumflex" horiz-adv-x="821" unicode="Ô" d="M285 775l-14 18q-7 10 6 19l120 94q5 4 13 4t13 -4l120 -94q13 -9 6 -19q-4 -11 -14 -21t-23 -1l-102 70l-102 -68q-15 -10 -23 2zM121 349q0 -119 85 -204t204 -85q118 0 204 85t86 204t-86 205t-204 86q-119 0 -204 -86t-85 -205zM51 349q1 149 105 255t254 106 t255 -106t105 -255q0 -151 -105 -255t-255 -104t-254 104t-105 255z"/>
<glyph glyph-name="Otilde" horiz-adv-x="821" unicode="Õ" d="M285 795l-18 9q-11 6 -4 22q7 12 13 30t28 36t51 18q27 0 47 -18t36 -38q16 -18 27 -18q30 0 45 51q5 16 23 8l16 -8q10 -5 4 -26q-28 -81 -89 -81q-24 0 -46 19t-37 37q-16 18 -27 19q-12 0 -22 -9q-10 -10 -14 -18t-8 -23q-4 -13 -14 -13q-5 0 -11 3zM121 349 q0 -119 85 -204t204 -85q118 0 204 85t86 204t-86 205t-204 86q-119 0 -204 -86t-85 -205zM51 349q1 149 105 255t254 106t255 -106t105 -255q0 -151 -105 -255t-255 -104t-254 104t-105 255z"/>
<glyph glyph-name="Odieresis" horiz-adv-x="821" unicode="Ö" d="M305 792q-19 0 -33 14t-14 33q0 20 14 34t33 14q20 0 34 -14t14 -34q0 -19 -14 -33t-34 -14zM516 792q-20 0 -34 14t-13 33q-1 20 13 34t34 14t34 -14t14 -34q0 -19 -14 -33t-34 -14zM121 349q0 -119 85 -204t204 -85q118 0 204 85t86 204t-86 205t-204 86 q-119 0 -204 -86t-85 -205zM51 349q1 149 105 255t254 106t255 -106t105 -255q0 -151 -105 -255t-255 -104t-254 104t-105 255z"/>
<glyph glyph-name="multiply" horiz-adv-x="481" unicode="×" d="M103 190l-20 20q-7 6 -7 13q0 6 7 13l111 111l-111 111q-7 7 -7 14t7 13l19 20q7 7 14 7t13 -7l111 -111l112 112q6 6 12 6q7 0 14 -7l20 -20q6 -6 6 -14q0 -7 -5 -12l-112 -112l112 -111q6 -7 6 -13q0 -7 -7 -14l-20 -19q-7 -7 -14 -7q-6 0 -12 6l-112 112l-111 -111 q-6 -6 -13 -6z"/>
<glyph glyph-name="Oslash" horiz-adv-x="821" unicode="Ø" d="M223 129q80 -69 187 -69q118 0 204 85t86 204q0 108 -70 188zM192 160l408 409q-82 71 -190 71q-119 0 -204 -86t-85 -205q0 -107 71 -189zM81 22q-13 14 -1 26l61 61q-90 103 -90 240q1 149 105 255t254 106q136 0 240 -91l63 63q13 13 26 0l5 -5q13 -13 0 -26l-63 -63 q89 -104 89 -239q0 -151 -105 -255t-255 -104q-137 0 -238 88l-61 -61q-5 -5 -13 -5t-13 6z"/>
<glyph glyph-name="Ugrave" horiz-adv-x="716" unicode="Ù" d="M423 781l-161 67q-14 5 -6 21l18 36q2 7 12 7h3q8 0 11 -4l150 -84q12 -6 6 -19l-10 -22q-5 -10 -23 -2zM93 258v423q-1 7 5 13t14 6h38q8 0 14 -6t5 -13v-417q0 -88 51 -146t137 -57q87 0 139 57t51 144v419q-1 7 5 13t14 6h38q8 0 14 -6t5 -13v-423q-1 -116 -75 -192 t-191 -76q-116 0 -190 76t-74 192z"/>
<glyph glyph-name="Uacute" horiz-adv-x="716" unicode="Ú" d="M266 783l-10 22q-6 13 6 19l150 84q4 4 11 4h3q10 0 12 -7l18 -36q8 -16 -6 -21l-161 -67q-18 -8 -23 2zM93 258v423q-1 7 5 13t14 6h38q8 0 14 -6t5 -13v-417q0 -88 51 -146t137 -57q87 0 139 57t51 144v419q-1 7 5 13t14 6h38q8 0 14 -6t5 -13v-423q-1 -116 -75 -192 t-191 -76q-116 0 -190 76t-74 192z"/>
<glyph glyph-name="Ucircumflex" horiz-adv-x="716" unicode="Û" d="M228 775l-14 18q-7 10 6 19l120 94q5 4 13 4t13 -4l120 -94q13 -9 6 -19q-4 -11 -14 -21t-23 -1l-102 70l-102 -68q-15 -10 -23 2zM93 258v423q-1 7 5 13t14 6h38q8 0 14 -6t5 -13v-417q0 -88 51 -146t137 -57q87 0 139 57t51 144v419q-1 7 5 13t14 6h38q8 0 14 -6t5 -13 v-423q-1 -116 -75 -192t-191 -76q-116 0 -190 76t-74 192z"/>
<glyph glyph-name="Udieresis" horiz-adv-x="716" unicode="Ü" d="M251 792q-19 0 -33 14t-14 33q0 20 14 34t33 14q20 0 34 -14t14 -34q0 -19 -14 -33t-34 -14zM462 792q-20 0 -34 14t-13 33q-1 20 13 34t34 14t34 -14t14 -34q0 -19 -14 -33t-34 -14zM93 258v423q-1 7 5 13t14 6h38q8 0 14 -6t5 -13v-417q0 -88 51 -146t137 -57 q87 0 139 57t51 144v419q-1 7 5 13t14 6h38q8 0 14 -6t5 -13v-423q-1 -116 -75 -192t-191 -76q-116 0 -190 76t-74 192z"/>
<glyph glyph-name="Yacute" horiz-adv-x="565" unicode="Ý" d="M193 783l-10 22q-6 13 6 19l150 84q4 4 11 4h2q10 0 13 -7l18 -36q8 -16 -6 -21l-161 -67q-18 -8 -23 2zM243 19v318l-241 334q-3 5 -3 11q0 4 2 8q5 10 17 10h47q9 0 16 -9l202 -279l202 279q7 9 16 9h47q12 0 17 -10q2 -4 2 -8q0 -5 -3 -11l-244 -333v-319q0 -7 -6 -13 t-13 -6h-39q-8 0 -14 6t-5 13z"/>
<glyph glyph-name="Thorn" horiz-adv-x="597" unicode="Þ" d="M178 202h159q62 0 107 44t45 109q0 59 -45 101t-107 42h-159v-296zM102 19v661q0 8 6 14t13 6h38q7 0 13 -6t6 -13v-107h164h3q90 0 155 -64q66 -66 66 -157q0 -93 -66 -159t-157 -66h-165v-109q0 -7 -6 -13t-13 -6h-38q-7 0 -13 6t-6 13z"/>
<glyph glyph-name="germandbls" horiz-adv-x="541" unicode="ß" d="M72 19v392q0 147 54 223t156 76q72 0 120 -38t48 -113q0 -33 -14 -67t-30 -56t-31 -46q-14 -24 -14 -38q0 -12 23 -34t50 -44t50 -61q23 -38 23 -80q1 -71 -47 -107t-117 -36q-59 0 -97 19q-19 9 -15 23l8 30q5 21 21 12q41 -23 83 -23q43 0 67 23t24 60q0 24 -16 48 t-38 44l-44 40t-38 40q-16 22 -15 43q0 31 48 104t48 103q0 44 -30 68t-69 24q-138 0 -138 -238v-391q0 -7 -6 -13t-13 -6h-32q-7 0 -13 6t-6 13z"/>
<glyph glyph-name="agrave" horiz-adv-x="419" unicode="à" d="M289 559l-161 67q-14 5 -6 21l18 36q2 7 12 7h3q8 0 11 -4l150 -84q12 -6 6 -19l-10 -22q-5 -10 -23 -2zM106 121q0 -31 19 -51t51 -20q35 0 65 18t45 38v79q-27 16 -84 16q-44 0 -70 -21t-26 -59zM42 121q0 59 42 96t118 37q27 0 56 -6l29 -7v9q1 53 -11 75 q-12 24 -54 24q-63 0 -120 -22q-14 -6 -19 10l-8 25q-5 15 11 22q6 3 22 8q16 6 49 12q34 6 68 6q75 0 101 -38t26 -131v-222q0 -7 -6 -13t-13 -6h-19q-12 0 -17 15l-8 27q-52 -52 -124 -52q-53 0 -88 36t-35 95z"/>
<glyph glyph-name="aacute" horiz-adv-x="419" unicode="á" d="M124 561l-10 22q-6 13 6 19l150 84q4 4 11 4h3q10 0 12 -7l18 -36q8 -16 -6 -21l-161 -67q-18 -8 -23 2zM106 121q0 -31 19 -51t51 -20q35 0 65 18t45 38v79q-27 16 -84 16q-44 0 -70 -21t-26 -59zM42 121q0 59 42 96t118 37q27 0 56 -6l29 -7v9q1 53 -11 75 q-12 24 -54 24q-63 0 -120 -22q-14 -6 -19 10l-8 25q-5 15 11 22q6 3 22 8q16 6 49 12q34 6 68 6q75 0 101 -38t26 -131v-222q0 -7 -6 -13t-13 -6h-19q-12 0 -17 15l-8 27q-52 -52 -124 -52q-53 0 -88 36t-35 95z"/>
<glyph glyph-name="acircumflex" horiz-adv-x="419" unicode="â" d="M81 555l-14 18q-7 10 6 19l120 94q5 4 13 4t13 -4l120 -94q13 -9 6 -19q-4 -11 -14 -21t-23 -1l-102 70l-102 -68q-15 -10 -23 2zM106 121q0 -31 19 -51t51 -20q35 0 65 18t45 38v79q-27 16 -84 16q-44 0 -70 -21t-26 -59zM42 121q0 59 42 96t118 37q27 0 56 -6l29 -7v9 q1 53 -11 75q-12 24 -54 24q-63 0 -120 -22q-14 -6 -19 10l-8 25q-5 15 11 22q6 3 22 8q16 6 49 12q34 6 68 6q75 0 101 -38t26 -131v-222q0 -7 -6 -13t-13 -6h-19q-12 0 -17 15l-8 27q-52 -52 -124 -52q-53 0 -88 36t-35 95z"/>
<glyph glyph-name="atilde" horiz-adv-x="419" unicode="ã" d="M82 575l-18 9q-11 6 -4 22q7 12 13 30q5 18 27 36t52 18q26 0 46 -18t36 -38q16 -18 28 -18q30 0 45 51q5 16 23 8l16 -8q6 -3 6 -13q0 -6 -2 -13q-28 -81 -89 -81q-23 0 -45 19t-38 37t-27 19q-12 0 -22 -9q-9 -10 -13 -18t-9 -23q-4 -13 -14 -13q-5 0 -11 3zM106 121 q0 -31 19 -51t51 -20q35 0 65 18t45 38v79q-27 16 -84 16q-44 0 -70 -21t-26 -59zM42 121q0 59 42 96t118 37q27 0 56 -6l29 -7v9q1 53 -11 75q-12 24 -54 24q-63 0 -120 -22q-14 -6 -19 10l-8 25q-5 15 11 22q6 3 22 8q16 6 49 12q34 6 68 6q75 0 101 -38t26 -131v-222 q0 -7 -6 -13t-13 -6h-19q-12 0 -17 15l-8 27q-52 -52 -124 -52q-53 0 -88 36t-35 95z"/>
<glyph glyph-name="adieresis" horiz-adv-x="419" unicode="ä" d="M122 585q-20 -1 -34 13t-13 34q-1 20 13 34t34 14t34 -14t14 -34t-14 -34t-34 -13zM315 585q-19 -1 -33 13t-14 34t14 34t33 14q20 0 34 -14t14 -34t-14 -34t-34 -13zM106 121q0 -31 19 -51t51 -20q35 0 65 18t45 38v79q-27 16 -84 16q-44 0 -70 -21t-26 -59zM42 121 q0 59 42 96t118 37q27 0 56 -6l29 -7v9q1 53 -11 75q-12 24 -54 24q-63 0 -120 -22q-14 -6 -19 10l-8 25q-5 15 11 22q6 3 22 8q16 6 49 12q34 6 68 6q75 0 101 -38t26 -131v-222q0 -7 -6 -13t-13 -6h-19q-12 0 -17 15l-8 27q-52 -52 -124 -52q-53 0 -88 36t-35 95z"/>
<glyph glyph-name="aring" horiz-adv-x="419" unicode="å" d="M207 540q23 0 41 18t18 43q0 23 -18 41t-41 18q-25 0 -43 -18t-18 -41q0 -25 18 -43t43 -18zM207 492q-45 0 -77 32t-32 77t32 77t77 32t77 -32t32 -77t-32 -77t-77 -32zM106 121q0 -31 19 -51t51 -20q35 0 65 18t45 38v79q-27 16 -84 16q-44 0 -70 -21t-26 -59zM42 121 q0 59 42 96t118 37q27 0 56 -6l29 -7v9q1 53 -11 75q-12 24 -54 24q-63 0 -120 -22q-14 -6 -19 10l-8 25q-5 15 11 22q6 3 22 8q16 6 49 12q34 6 68 6q75 0 101 -38t26 -131v-222q0 -7 -6 -13t-13 -6h-19q-12 0 -17 15l-8 27q-52 -52 -124 -52q-53 0 -88 36t-35 95z"/>
<glyph glyph-name="ae" horiz-adv-x="690" unicode="æ" d="M106 122q0 -36 24 -54t57 -18q31 0 57 15t40 36v89l-24 4q-25 5 -59 5q-39 -1 -67 -21t-28 -56zM354 240h230q-2 46 -34 77t-79 31q-37 0 -69 -19t-48 -48v-41zM43 124q-1 57 39 93t109 36q33 0 62 -3l29 -3v10q0 52 -10 72q-10 22 -46 22q-55 0 -127 -24q-17 -5 -21 14 l-5 25q-3 15 16 20l47 12q46 12 93 12q86 0 109 -55q57 55 134 55q76 0 128 -51t52 -132q0 -44 -20 -44h-280v-61q18 -31 52 -49t74 -18q53 0 99 28q13 7 16 8t12 -6l17 -23q6 -8 6 -13t-10 -13q-61 -46 -147 -46q-98 0 -151 71q-22 -29 -62 -50t-84 -21q-59 0 -95 36 t-36 98z"/>
<glyph glyph-name="ccedilla" horiz-adv-x="443" unicode="ç" d="M42 199q0 87 62 149t144 62q88 0 143 -70q5 -7 5 -13q0 -8 -9 -15l-19 -16q-7 -6 -12 -6q-4 0 -8 2q-4 4 -9 8q-37 42 -92 42q-57 0 -95 -41t-38 -101t38 -102t94 -42q20 0 38 5t29 13t21 16l18 18t16 8q7 0 14 -6l11 -8q11 -8 11 -17q0 -5 -4 -11q-47 -76 -138 -83v-44 q47 -5 76 -33t29 -70q-1 -44 -31 -74t-74 -30q-46 0 -76 35q-14 16 0 26l14 11q14 10 23 0q17 -18 41 -18q20 0 32 13t12 34t-15 35t-30 20q-15 4 -38 8q-17 3 -17 20v70q-70 13 -118 70t-48 135z"/>
<glyph glyph-name="egrave" horiz-adv-x="457" unicode="è" d="M304 559l-161 67q-14 5 -6 21l18 36q3 7 13 7h2q8 0 11 -4l150 -84q12 -6 6 -19l-10 -22q-5 -10 -23 -2zM112 239h238q-2 44 -34 77t-78 33q-50 1 -86 -31t-40 -79zM42 200q0 88 54 149t142 61q79 0 130 -52t51 -131q0 -13 -2 -27q-2 -17 -18 -17h-288q3 -51 43 -91 t91 -39q50 0 99 30q13 7 16 8t12 -6l17 -23q6 -8 6 -13t-10 -13q-58 -46 -147 -46q-88 0 -142 60t-54 150z"/>
<glyph glyph-name="eacute" horiz-adv-x="457" unicode="é" d="M144 561l-10 22q-6 13 6 19l150 84q4 4 11 4h3q10 0 12 -7l18 -36q8 -16 -6 -21l-161 -67q-18 -8 -23 2zM112 239h238q-2 44 -34 77t-78 33q-50 1 -86 -31t-40 -79zM42 200q0 88 54 149t142 61q79 0 130 -52t51 -131q0 -13 -2 -27q-2 -17 -18 -17h-288q3 -51 43 -91 t91 -39q50 0 99 30q13 7 16 8t12 -6l17 -23q6 -8 6 -13t-10 -13q-58 -46 -147 -46q-88 0 -142 60t-54 150z"/>
<glyph glyph-name="ecircumflex" horiz-adv-x="457" unicode="ê" d="M115 555l-14 18q-7 10 6 19l120 94q5 4 13 4t13 -4l120 -94q13 -9 6 -19q-4 -11 -14 -21t-23 -1l-102 70l-102 -68q-15 -10 -23 2zM112 239h238q-2 44 -34 77t-78 33q-50 1 -86 -31t-40 -79zM42 200q0 88 54 149t142 61q79 0 130 -52t51 -131q0 -13 -2 -27 q-2 -17 -18 -17h-288q3 -51 43 -91t91 -39q50 0 99 30q13 7 16 8t12 -6l17 -23q6 -8 6 -13t-10 -13q-58 -46 -147 -46q-88 0 -142 60t-54 150z"/>
<glyph glyph-name="edieresis" horiz-adv-x="457" unicode="ë" d="M140 585q-20 -1 -34 13t-13 34q-1 20 13 34t34 14t34 -14t14 -34t-14 -34t-34 -13zM333 585q-19 -1 -33 13t-14 34t14 34t33 14q20 0 34 -14t14 -34t-14 -34t-34 -13zM112 239h238q-2 44 -34 77t-78 33q-50 1 -86 -31t-40 -79zM42 200q0 88 54 149t142 61q79 0 130 -52 t51 -131q0 -13 -2 -27q-2 -17 -18 -17h-288q3 -51 43 -91t91 -39q50 0 99 30q13 7 16 8t12 -6l17 -23q6 -8 6 -13t-10 -13q-58 -46 -147 -46q-88 0 -142 60t-54 150z"/>
<glyph glyph-name="igrave" horiz-adv-x="211" unicode="ì" d="M173 559l-161 67q-9 3 -9 11q0 4 3 10l18 36q2 7 12 7h3q8 0 11 -4l150 -84q8 -4 8 -11q0 -4 -2 -8l-10 -22q-5 -10 -23 -2zM71 19v362q-1 7 5 13t14 6h31q7 0 13 -6t6 -13v-362q0 -7 -6 -13t-13 -6h-31q-8 0 -14 6t-5 13z"/>
<glyph glyph-name="iacute" horiz-adv-x="211" unicode="í" d="M16 561l-10 22q-2 4 -2 8q0 7 8 11l150 84q4 4 11 4h3q10 0 12 -7l18 -36q3 -6 3 -10q0 -8 -9 -11l-161 -67q-18 -8 -23 2zM71 19v362q-1 7 5 13t14 6h31q7 0 13 -6t6 -13v-362q0 -7 -6 -13t-13 -6h-31q-8 0 -14 6t-5 13z"/>
<glyph glyph-name="icircumflex" horiz-adv-x="211" unicode="î" d="M-18 555l-14 18q-2 4 -2 7q0 6 8 12l120 94q5 4 13 4t13 -4l120 -94q8 -6 8 -12q0 -3 -2 -7q-4 -11 -14 -21t-23 -1l-102 70l-102 -68q-15 -10 -23 2zM71 19v362q-1 7 5 13t14 6h31q7 0 13 -6t6 -13v-362q0 -7 -6 -13t-13 -6h-31q-8 0 -14 6t-5 13z"/>
<glyph glyph-name="idieresis" horiz-adv-x="211" unicode="ï" d="M9 585q-19 -1 -33 13t-14 34t14 34t33 14q20 0 34 -14t14 -34t-14 -34t-34 -13zM202 585q-20 -1 -34 13t-13 34q-1 20 13 34t34 14t34 -14t14 -34t-14 -34t-34 -13zM71 19v362q-1 7 5 13t14 6h31q7 0 13 -6t6 -13v-362q0 -7 -6 -13t-13 -6h-31q-8 0 -14 6t-5 13z"/>
<glyph glyph-name="eth" horiz-adv-x="544" unicode="ð" d="M112 215q0 -65 44 -112t106 -47q49 0 85 25t52 63q15 38 23 80q3 20 4 39q0 22 -5 43l-19 16q-18 16 -58 32t-81 17q-63 1 -107 -45t-44 -111zM41 219q-1 97 63 157t152 60q38 0 76 -11t57 -23l19 -11q-24 90 -128 172l-97 -56q-7 -3 -15 -1t-10 8l-4 7q-10 16 6 25 l80 46q-57 36 -99 53q-17 7 -8 24l13 27q4 8 12 8q4 0 8 -1q73 -28 138 -74l70 40q17 10 26 -7l4 -7q9 -14 -7 -25l-54 -31q152 -133 152 -324q-1 -127 -59 -206t-174 -79q-96 0 -158 66t-63 163z"/>
<glyph glyph-name="ntilde" horiz-adv-x="495" unicode="ñ" d="M127 575l-18 9q-11 6 -4 22q7 12 13 30t28 36t51 18q27 0 47 -18t36 -38q16 -18 27 -18q30 0 45 51q5 16 23 8l16 -8q10 -5 4 -26q-28 -81 -89 -81q-24 0 -46 19t-37 37q-16 18 -27 19q-12 0 -22 -9q-10 -10 -14 -18t-8 -23q-4 -13 -14 -13q-5 0 -11 3zM71 19v362 q-1 7 5 13t14 6h19q13 0 16 -12l9 -31l16 13q17 14 52 27t72 13q155 0 155 -180v-211q1 -7 -5 -13t-14 -6h-32q-8 0 -14 6t-5 13v211q1 56 -23 84t-67 29q-33 -1 -65 -15t-48 -28l-16 -14v-267q0 -7 -6 -13t-13 -6h-31q-8 0 -14 6t-5 13z"/>
<glyph glyph-name="ograve" d="M308 559l-161 67q-14 5 -6 21l18 36q3 7 13 7h2q8 0 11 -4l150 -84q12 -6 6 -19l-10 -22q-5 -10 -23 -2zM111 201q-1 -61 37 -103t93 -43q55 1 93 43t37 103q1 59 -37 101t-93 42t-93 -42t-37 -101zM42 201q0 85 58 147t141 62t141 -62t58 -147q0 -87 -58 -149t-141 -62 t-141 62t-58 149z" unicode="ò"/>
<glyph glyph-name="oacute" d="M151 561l-10 22q-6 13 6 19l150 84q4 4 11 4h2q10 0 13 -7l18 -36q8 -16 -6 -21l-161 -67q-18 -8 -23 2zM111 201q-1 -61 37 -103t93 -43q55 1 93 43t37 103q1 59 -37 101t-93 42t-93 -42t-37 -101zM42 201q0 85 58 147t141 62t141 -62t58 -147q0 -87 -58 -149t-141 -62 t-141 62t-58 149z" unicode="ó"/>
<glyph glyph-name="ocircumflex" d="M116 555l-14 18q-7 10 6 19l120 94q5 4 13 4t13 -4l120 -94q13 -9 6 -19q-4 -11 -14 -21t-23 -1l-102 70l-102 -68q-15 -10 -23 2zM111 201q-1 -61 37 -103t93 -43q55 1 93 43t37 103q1 59 -37 101t-93 42t-93 -42t-37 -101zM42 201q0 85 58 147t141 62t141 -62t58 -147 q0 -87 -58 -149t-141 -62t-141 62t-58 149z" unicode="ô"/>
<glyph glyph-name="otilde" d="M117 575l-18 9q-11 6 -4 22q7 12 13 30t28 36t51 18q27 0 47 -18t36 -38q16 -18 27 -18q30 0 45 51q5 16 23 8l16 -8q10 -5 4 -26q-28 -81 -89 -81q-24 0 -46 19t-37 37q-16 18 -27 19q-12 0 -22 -9q-10 -10 -14 -18t-8 -23q-4 -13 -14 -13q-5 0 -11 3zM111 201 q-1 -61 37 -103t93 -43q55 1 93 43t37 103q1 59 -37 101t-93 42t-93 -42t-37 -101zM42 201q0 85 58 147t141 62t141 -62t58 -147q0 -87 -58 -149t-141 -62t-141 62t-58 149z" unicode="õ"/>
<glyph glyph-name="odieresis" d="M143 585q-19 -1 -33 13t-14 34t14 34t33 14q20 0 34 -14t14 -34t-14 -34t-34 -13zM336 585q-20 -1 -34 13t-13 34q-1 20 13 34t34 14t34 -14t14 -34t-14 -34t-34 -13zM111 201q-1 -61 37 -103t93 -43q55 1 93 43t37 103q1 59 -37 101t-93 42t-93 -42t-37 -101zM42 201 q0 85 58 147t141 62t141 -62t58 -147q0 -87 -58 -149t-141 -62t-141 62t-58 149z" unicode="ö"/>
<glyph glyph-name="divide" horiz-adv-x="538" unicode="÷" d="M209 171q0 25 17 41t40 16q24 0 40 -16t17 -41q-1 -23 -17 -40t-40 -17q-23 0 -40 17t-17 40zM79 314q-7 0 -13 6t-6 13v28q0 7 6 13t13 6h381q6 0 12 -6t6 -13v-28q0 -7 -6 -13t-12 -6h-381zM266 472q-23 0 -40 17t-17 40q0 25 17 41t40 16q24 0 40 -16t17 -41 q-1 -23 -17 -40t-40 -17z"/>
<glyph glyph-name="oslash" horiz-adv-x="480" unicode="ø" d="M160 85q35 -30 81 -30q53 0 91 43t38 104q0 42 -20 76zM132 120l190 193q-34 31 -81 31q-55 0 -92 -42t-37 -100q0 -47 20 -82zM68 29q-14 13 -1 26l16 16q-40 58 -40 131q-1 84 57 146t141 62q73 0 128 -50l21 21q7 7 14 7t13 -7l5 -5q6 -5 6 -13t-6 -13l-23 -23 q40 -56 40 -125q1 -88 -57 -150t-141 -62q-74 0 -128 48l-14 -14q-12 -13 -27 0z"/>
<glyph glyph-name="ugrave" horiz-adv-x="485" unicode="ù" d="M315 559l-161 67q-14 5 -6 21l18 36q2 7 12 7h3q8 0 11 -4l150 -84q12 -6 6 -19l-10 -22q-5 -10 -23 -2zM66 171v210q0 7 6 13t13 6h32q7 0 13 -6t6 -13v-211q0 -56 24 -84t66 -29q34 1 64 15t42 28l13 14v267q-1 7 5 13t14 6h31q7 0 13 -6t6 -13v-362q0 -7 -6 -13 t-13 -6h-19q-13 0 -18 17l-7 26l-14 -13q-15 -14 -47 -27t-69 -13q-155 0 -155 181z"/>
<glyph glyph-name="uacute" horiz-adv-x="485" unicode="ú" d="M157 561l-10 22q-6 13 6 19l150 84q4 4 11 4h2q10 0 13 -7l18 -36q8 -16 -6 -21l-161 -67q-18 -8 -23 2zM66 171v210q0 7 6 13t13 6h32q7 0 13 -6t6 -13v-211q0 -56 24 -84t66 -29q34 1 64 15t42 28l13 14v267q-1 7 5 13t14 6h31q7 0 13 -6t6 -13v-362q0 -7 -6 -13 t-13 -6h-19q-13 0 -18 17l-7 26l-14 -13q-15 -14 -47 -27t-69 -13q-155 0 -155 181z"/>
<glyph glyph-name="ucircumflex" horiz-adv-x="485" unicode="û" d="M121 555l-14 18q-7 10 6 19l120 94q5 4 13 4t13 -4l120 -94q13 -9 6 -19q-4 -11 -14 -21t-23 -1l-102 70l-102 -68q-15 -10 -23 2zM66 171v210q0 7 6 13t13 6h32q7 0 13 -6t6 -13v-211q0 -56 24 -84t66 -29q34 1 64 15t42 28l13 14v267q-1 7 5 13t14 6h31q7 0 13 -6 t6 -13v-362q0 -7 -6 -13t-13 -6h-19q-13 0 -18 17l-7 26l-14 -13q-15 -14 -47 -27t-69 -13q-155 0 -155 181z"/>
<glyph glyph-name="udieresis" horiz-adv-x="485" unicode="ü" d="M146 585q-20 -1 -34 13t-13 34q-1 20 13 34t34 14t34 -14t14 -34t-14 -34t-34 -13zM339 585q-19 -1 -33 13t-14 34t14 34t33 14q20 0 34 -14t14 -34t-14 -34t-34 -13zM66 171v210q0 7 6 13t13 6h32q7 0 13 -6t6 -13v-211q0 -56 24 -84t66 -29q34 1 64 15t42 28l13 14v267 q-1 7 5 13t14 6h31q7 0 13 -6t6 -13v-362q0 -7 -6 -13t-13 -6h-19q-13 0 -18 17l-7 26l-14 -13q-15 -14 -47 -27t-69 -13q-155 0 -155 181z"/>
<glyph glyph-name="yacute" horiz-adv-x="466" unicode="ý" d="M148 561l-10 22q-6 13 6 19l150 84q4 4 11 4h3q10 0 12 -7l18 -36q8 -16 -6 -21l-161 -67q-18 -8 -23 2zM200 1l-186 377q-3 5 -3 9q1 4 3 7q4 6 15 6h44q11 0 17 -11l148 -306h1l140 306q5 11 17 11h38q12 0 16 -6q2 -3 2 -7t-3 -10l-307 -665q-6 -12 -17 -12h-37 q-11 0 -16 7t0 18z"/>
<glyph glyph-name="thorn" d="M142 92l12 -9q12 -9 36 -17t49 -9q57 0 94 41t37 102q0 63 -32 105t-94 42q-28 -1 -54 -13t-37 -24l-11 -12v-206zM141 23v-304q1 -7 -5 -13t-14 -6h-31q-7 0 -13 6t-6 13v962q0 7 6 13t13 6h31q8 0 14 -6t5 -13v-309l11 10q12 8 40 18t59 10q85 0 137 -61t52 -150 t-55 -149t-137 -60q-29 0 -56 8t-39 16z" unicode="þ"/>
<glyph glyph-name="ydieresis" horiz-adv-x="466" unicode="ÿ" d="M141 585q-19 -1 -33 13t-14 34t14 34t33 14q20 0 34 -14t14 -34t-14 -34t-34 -13zM334 585q-20 -1 -34 13t-13 34q-1 20 13 34t34 14t34 -14t14 -34t-14 -34t-34 -13zM200 1l-186 377q-3 5 -3 9q1 4 3 7q4 6 15 6h44q11 0 17 -11l148 -306h1l140 306q5 11 17 11h38 q12 0 16 -6q2 -3 2 -7t-3 -10l-307 -665q-6 -12 -17 -12h-37q-11 0 -16 7t0 18z"/>
<glyph glyph-name="Amacron" horiz-adv-x="663" unicode="Ā" d="M203 821q-7 0 -13 5t-6 13v21q0 19 19 19h256q19 0 19 -19v-21q0 -8 -6 -13t-13 -5h-256zM181 238h300l-146 328h-8zM23 0q-11 0 -17 8q-3 4 -2 9q0 4 2 9l304 673q6 11 17 11h10q11 0 17 -11l302 -673q2 -5 2 -9q0 -5 -2 -9q-6 -8 -17 -8h-40q-13 0 -17 11l-74 165h-355 l-73 -165q-4 -11 -17 -11h-40z"/>
<glyph glyph-name="amacron" horiz-adv-x="419" unicode="ā" d="M77 583q-7 0 -13 5t-6 13v21q0 19 19 19h256q19 0 19 -19v-21q0 -8 -6 -13t-13 -5h-256zM106 121q0 -31 19 -51t51 -20q35 0 65 18t45 38v79q-27 16 -84 16q-44 0 -70 -21t-26 -59zM42 121q0 59 42 96t118 37q27 0 56 -6l29 -7v9q1 53 -11 75q-12 24 -54 24 q-63 0 -120 -22q-14 -6 -19 10l-8 25q-5 15 11 22q6 3 22 8q16 6 49 12q34 6 68 6q75 0 101 -38t26 -131v-222q0 -7 -6 -13t-13 -6h-19q-12 0 -17 15l-8 27q-52 -52 -124 -52q-53 0 -88 36t-35 95z"/>
<glyph glyph-name="Abreve" horiz-adv-x="663" unicode="Ă" d="M331 771q-52 1 -90 33t-45 81q-4 20 14 20h21q13 0 19 -17q8 -28 30 -46t51 -18q27 0 49 18t30 46q6 17 19 17h23q18 0 14 -20q-8 -49 -46 -81t-89 -33zM181 238h300l-146 328h-8zM23 0q-11 0 -17 8q-3 4 -2 9q0 4 2 9l304 673q6 11 17 11h10q11 0 17 -11l302 -673 q2 -5 2 -9q0 -5 -2 -9q-6 -8 -17 -8h-40q-13 0 -17 11l-74 165h-355l-73 -165q-4 -11 -17 -11h-40z"/>
<glyph glyph-name="abreve" horiz-adv-x="419" unicode="ă" d="M216 531q-52 1 -90 33t-45 81q-4 20 14 20h21q13 0 19 -17q8 -28 30 -46t51 -18q26 0 48 18t31 46q6 17 19 17h23q18 0 14 -20q-8 -49 -46 -81t-89 -33zM106 121q0 -31 19 -51t51 -20q35 0 65 18t45 38v79q-27 16 -84 16q-44 0 -70 -21t-26 -59zM42 121q0 59 42 96 t118 37q27 0 56 -6l29 -7v9q1 53 -11 75q-12 24 -54 24q-63 0 -120 -22q-14 -6 -19 10l-8 25q-5 15 11 22q6 3 22 8q16 6 49 12q34 6 68 6q75 0 101 -38t26 -131v-222q0 -7 -6 -13t-13 -6h-19q-12 0 -17 15l-8 27q-52 -52 -124 -52q-53 0 -88 36t-35 95z"/>
<glyph glyph-name="Aogonek" horiz-adv-x="663" unicode="Ą" d="M181 238h300l-146 328h-8zM23 0q-11 0 -17 8q-3 4 -2 9q0 4 2 9l304 673q6 11 17 11h10q11 0 17 -11l302 -673q6 -10 0 -18t-17 -8h-13q-47 -44 -47 -99q0 -25 17 -41t40 -16q25 0 55 16q6 3 12 -1t6 -13v-25q0 -9 -14 -17q-30 -15 -70 -15q-45 0 -75 26t-31 76 q0 67 64 117l-75 168h-355l-73 -165q-4 -11 -17 -11h-40z"/>
<glyph glyph-name="aogonek" horiz-adv-x="420" unicode="ą" d="M106 121q0 -31 19 -51t51 -20q35 0 65 18t45 38v79q-27 16 -84 16q-44 0 -70 -21t-26 -59zM42 121q0 59 42 96t118 37q27 0 56 -6l29 -7v8q-1 53 -13 77q-14 26 -53 26q-46 0 -118 -24q-15 -5 -21 14l-7 20q-4 15 11 22q52 26 141 26q19 0 35 -2t28 -8q12 -5 22 -12 t15 -16q6 -9 11 -19q6 -9 8 -21l4 -24t2 -26v-26v-28v-209q0 -15 -15 -19q-48 -42 -48 -99q0 -25 17 -41t40 -16q25 0 55 16q6 3 12 -1t6 -13v-25q0 -9 -14 -17q-30 -15 -70 -15q-45 0 -75 26t-31 76q-1 34 17 64t35 43l17 13l-9 31q-52 -52 -124 -52q-53 0 -88 36t-35 95z "/>
<glyph glyph-name="Cacute" horiz-adv-x="707" unicode="Ć" d="M331 783l-10 22q-6 13 6 19l150 84q4 4 11 4h2q10 0 13 -7l18 -36q8 -16 -6 -21l-161 -67q-18 -8 -23 2zM51 349q-1 149 105 255t256 106q133 0 242 -93q7 -8 7 -15t-6 -13l-27 -27q-11 -14 -26 1q-87 75 -191 75q-117 0 -198 -85t-81 -203q0 -117 81 -202t198 -85 q41 -1 77 11t59 26q22 14 55 38q13 10 24 3l30 -27q6 -5 6 -12q0 -9 -7 -15q-100 -97 -243 -97q-150 0 -256 104t-105 255z"/>
<glyph glyph-name="cacute" horiz-adv-x="441" unicode="ć" d="M157 561l-10 22q-6 13 6 19l150 84q4 4 11 4h2q10 0 13 -7l18 -36q8 -16 -6 -21l-161 -67q-18 -8 -23 2zM41 199q-1 87 61 149t145 62q88 0 143 -70q5 -7 5 -13q0 -8 -9 -15l-19 -16q-7 -6 -12 -6t-9 2l-8 8q-37 42 -92 42q-56 0 -94 -41t-39 -101q0 -60 38 -102t94 -42 q21 0 39 5t28 13q12 8 22 16q10 10 17 18q8 8 16 8q7 0 14 -6l11 -8q11 -8 11 -17q0 -5 -4 -11q-24 -38 -64 -61t-89 -23q-84 0 -144 60t-61 149z"/>
<glyph glyph-name="Ccircumflex" horiz-adv-x="707" unicode="Ĉ" d="M286 775l-14 18q-7 10 6 19l120 94q5 4 13 4t13 -4l120 -94q13 -9 6 -19q-4 -11 -14 -21t-23 -1l-102 70l-102 -68q-15 -10 -23 2zM51 349q-1 149 105 255t256 106q133 0 242 -93q7 -8 7 -15t-6 -13l-27 -27q-11 -14 -26 1q-87 75 -191 75q-117 0 -198 -85t-81 -203 q0 -117 81 -202t198 -85q41 -1 77 11t59 26q22 14 55 38q13 10 24 3l30 -27q6 -5 6 -12q0 -9 -7 -15q-100 -97 -243 -97q-150 0 -256 104t-105 255z"/>
<glyph glyph-name="ccircumflex" horiz-adv-x="441" unicode="ĉ" d="M120 555l-14 18q-7 10 6 19l120 94q5 4 13 4t13 -4l120 -94q13 -9 6 -19q-4 -11 -14 -21t-23 -1l-102 70l-102 -68q-15 -10 -23 2zM41 199q-1 87 61 149t145 62q88 0 143 -70q5 -7 5 -13q0 -8 -9 -15l-19 -16q-7 -6 -12 -6t-9 2l-8 8q-37 42 -92 42q-56 0 -94 -41 t-39 -101q0 -60 38 -102t94 -42q21 0 39 5t28 13q12 8 22 16q10 10 17 18q8 8 16 8q7 0 14 -6l11 -8q11 -8 11 -17q0 -5 -4 -11q-24 -38 -64 -61t-89 -23q-84 0 -144 60t-61 149z"/>
<glyph glyph-name="Cdotaccent" horiz-adv-x="707" unicode="Ċ" d="M411 796q-23 0 -40 17t-17 40q0 25 17 41t40 16q25 0 41 -16t16 -41q0 -23 -16 -40t-41 -17zM51 349q-1 149 105 255t256 106q133 0 242 -93q7 -8 7 -15t-6 -13l-27 -27q-11 -14 -26 1q-87 75 -191 75q-117 0 -198 -85t-81 -203q0 -117 81 -202t198 -85q41 -1 77 11 t59 26q22 14 55 38q13 10 24 3l30 -27q6 -5 6 -12q0 -9 -7 -15q-100 -97 -243 -97q-150 0 -256 104t-105 255z"/>
<glyph glyph-name="cdotaccent" horiz-adv-x="441" unicode="ċ" d="M245 566q-23 0 -40 17t-17 40q0 25 17 41t40 16q25 0 41 -16t16 -41q0 -23 -16 -40t-41 -17zM41 199q-1 87 61 149t145 62q88 0 143 -70q5 -7 5 -13q0 -8 -9 -15l-19 -16q-7 -6 -12 -6t-9 2l-8 8q-37 42 -92 42q-56 0 -94 -41t-39 -101q0 -60 38 -102t94 -42q21 0 39 5 t28 13q12 8 22 16q10 10 17 18q8 8 16 8q7 0 14 -6l11 -8q11 -8 11 -17q0 -5 -4 -11q-24 -38 -64 -61t-89 -23q-84 0 -144 60t-61 149z"/>
<glyph glyph-name="Ccaron" horiz-adv-x="707" unicode="Č" d="M411 768q-8 0 -13 4l-120 94q-13 9 -6 19l14 18q4 7 11 7q5 0 12 -5l102 -68l102 70q7 5 12 5q6 0 11 -7l14 -20q4 -5 1 -11t-9 -10t-11 -8l-107 -84q-5 -4 -13 -4zM51 349q-1 149 105 255t256 106q133 0 242 -93q7 -8 7 -15t-6 -13l-27 -27q-11 -14 -26 1 q-87 75 -191 75q-117 0 -198 -85t-81 -203q0 -117 81 -202t198 -85q41 -1 77 11t59 26q22 14 55 38q13 10 24 3l30 -27q6 -5 6 -12q0 -9 -7 -15q-100 -97 -243 -97q-150 0 -256 104t-105 255z"/>
<glyph glyph-name="ccaron" horiz-adv-x="441" unicode="č" d="M232 546l-120 94q-13 9 -6 19l14 18q4 7 11 7q5 0 12 -5l102 -68l102 70q7 5 12 5q6 0 11 -7l14 -20q4 -5 1 -11t-9 -10t-11 -8l-107 -84q-5 -4 -13 -4t-13 4zM41 199q-1 87 61 149t145 62q88 0 143 -70q5 -7 5 -13q0 -8 -9 -15l-19 -16q-7 -6 -12 -6t-9 2l-8 8 q-37 42 -92 42q-56 0 -94 -41t-39 -101q0 -60 38 -102t94 -42q21 0 39 5t28 13q12 8 22 16q10 10 17 18q8 8 16 8q7 0 14 -6l11 -8q11 -8 11 -17q0 -5 -4 -11q-24 -38 -64 -61t-89 -23q-84 0 -144 60t-61 149z"/>
<glyph glyph-name="Dcaron" horiz-adv-x="747" unicode="Ď" d="M341 768q-8 0 -13 4l-120 94q-13 9 -6 19l14 18q4 7 11 7q5 0 12 -5l102 -68l102 70q7 5 12 5q6 0 11 -7l14 -20q4 -5 1 -11t-9 -10t-11 -8l-107 -84q-5 -4 -13 -4zM178 69h150q123 -1 203 79t80 203t-80 202t-203 79h-150v-563zM102 19v662q0 7 6 13t12 6h224 q145 0 248 -102t103 -247t-103 -248t-248 -103h-224q-6 0 -12 6t-6 13z"/>
<glyph glyph-name="dcaron" horiz-adv-x="512" unicode="ď" d="M527 434l-14 14q-10 10 6 24q62 56 62 126q-4 -1 -12 -1q-23 0 -40 17t-17 40q0 24 17 40t40 17q66 0 66 -90q-1 -56 -27 -106t-57 -79q-14 -12 -24 -2zM112 200q0 -61 33 -104t86 -43q25 1 47 11t34 22t20 22l8 11v200l-32 12q-31 12 -65 12q-63 0 -97 -40t-34 -103z M42 201q0 89 52 149t140 60q29 0 56 -6t39 -14l12 -6v297q-1 7 5 13t14 6h31q7 0 13 -6t6 -13v-662q0 -7 -6 -13t-13 -6h-21q-13 0 -17 16l-6 27l-14 -13q-14 -14 -45 -27t-64 -13q-76 0 -129 62t-53 149z"/>
<glyph glyph-name="Dcroat" horiz-adv-x="751" unicode="Đ" d="M182 69h150q123 -1 203 79t80 203t-80 202t-203 79h-150v-263h211q7 1 13 -5t6 -14v-8q0 -8 -6 -13t-13 -5h-211v-255zM106 19v305h-29q-7 0 -13 6t-5 13v7q-1 8 5 14t13 5h29v312q0 7 6 13t12 6h224q145 0 248 -102t103 -247t-103 -248t-248 -103h-224q-6 0 -12 6t-6 13 z"/>
<glyph glyph-name="dcroat" d="M112 200q0 -61 33 -104t86 -43q25 1 47 11t34 22t20 22l8 11v200l-32 12q-31 12 -65 12q-63 0 -97 -40t-34 -103zM42 201q0 89 52 149t140 60q29 0 56 -6t39 -14l12 -6v152h-155q-8 0 -14 5t-5 13v8q-1 8 5 14t14 5h155v100q-1 7 5 13t14 6h31q7 0 13 -6t6 -13v-100h33 q7 1 13 -5t5 -14v-7q1 -7 -5 -13t-13 -6h-33v-517q0 -7 -6 -13t-13 -6h-21q-13 0 -17 16l-6 27l-14 -13q-14 -14 -45 -27t-64 -13q-76 0 -129 62t-53 149z" unicode="đ"/>
<glyph glyph-name="Emacron" horiz-adv-x="592" unicode="Ē" d="M190 821q-8 0 -14 5t-5 13v21q0 19 19 19h256q19 0 19 -19v-21q1 -8 -5 -13t-14 -5h-256zM102 19v662q0 7 6 13t13 6h394q7 0 13 -6t6 -13v-29q0 -8 -6 -14t-13 -5h-336v-244h287q8 1 14 -5t5 -14v-29q1 -7 -5 -13t-14 -6h-287v-255h336q7 1 13 -5t6 -14v-29q0 -7 -6 -13 t-13 -6h-394q-7 0 -13 6t-6 13z"/>
<glyph glyph-name="emacron" horiz-adv-x="457" unicode="ē" d="M108 583q-8 0 -14 5t-5 13v21q0 19 19 19h256q19 0 19 -19v-21q1 -8 -5 -13t-14 -5h-256zM112 239h238q-2 44 -34 77t-78 33q-50 1 -86 -31t-40 -79zM42 200q0 88 54 149t142 61q79 0 130 -52t51 -131q0 -13 -2 -27q-2 -17 -18 -17h-288q3 -51 43 -91t91 -39q50 0 99 30 q13 7 16 8t12 -6l17 -23q6 -8 6 -13t-10 -13q-58 -46 -147 -46q-88 0 -142 60t-54 150z"/>
<glyph glyph-name="Ebreve" horiz-adv-x="592" unicode="Ĕ" d="M318 771q-52 1 -90 33t-45 81q-4 20 14 20h21q13 0 19 -17q8 -28 30 -46t51 -18q26 0 48 18t31 46q6 17 19 17h23q18 0 14 -20q-8 -49 -46 -81t-89 -33zM102 19v662q0 7 6 13t13 6h394q7 0 13 -6t6 -13v-29q0 -8 -6 -14t-13 -5h-336v-244h287q8 1 14 -5t5 -14v-29 q1 -7 -5 -13t-14 -6h-287v-255h336q7 1 13 -5t6 -14v-29q0 -7 -6 -13t-13 -6h-394q-7 0 -13 6t-6 13z"/>
<glyph glyph-name="ebreve" horiz-adv-x="457" unicode="ĕ" d="M237 531q-52 1 -90 33t-45 81q-4 20 14 20h21q13 0 19 -17q8 -28 30 -46t51 -18q27 0 49 18t30 46q6 17 19 17h23q18 0 14 -20q-8 -49 -46 -81t-89 -33zM112 239h238q-2 44 -34 77t-78 33q-50 1 -86 -31t-40 -79zM42 200q0 88 54 149t142 61q79 0 130 -52t51 -131 q0 -13 -2 -27q-2 -17 -18 -17h-288q3 -51 43 -91t91 -39q50 0 99 30q13 7 16 8t12 -6l17 -23q6 -8 6 -13t-10 -13q-58 -46 -147 -46q-88 0 -142 60t-54 150z"/>
<glyph glyph-name="Edotaccent" horiz-adv-x="592" unicode="Ė" d="M320 796q-23 0 -40 17t-17 40q0 25 17 41t40 16q24 0 40 -16t17 -41q-1 -23 -17 -40t-40 -17zM102 19v662q0 7 6 13t13 6h394q7 0 13 -6t6 -13v-29q0 -8 -6 -14t-13 -5h-336v-244h287q8 1 14 -5t5 -14v-29q1 -7 -5 -13t-14 -6h-287v-255h336q7 1 13 -5t6 -14v-29 q0 -7 -6 -13t-13 -6h-394q-7 0 -13 6t-6 13z"/>
<glyph glyph-name="edotaccent" horiz-adv-x="457" unicode="ė" d="M240 566q-23 0 -40 17t-17 40q0 25 17 41t40 16q24 0 40 -16t17 -41q-1 -23 -17 -40t-40 -17zM112 239h238q-2 44 -34 77t-78 33q-50 1 -86 -31t-40 -79zM42 200q0 88 54 149t142 61q79 0 130 -52t51 -131q0 -13 -2 -27q-2 -17 -18 -17h-288q3 -51 43 -91t91 -39 q50 0 99 30q13 7 16 8t12 -6l17 -23q6 -8 6 -13t-10 -13q-58 -46 -147 -46q-88 0 -142 60t-54 150z"/>
<glyph glyph-name="Eogonek" horiz-adv-x="592" unicode="Ę" d="M102 19v662q0 7 6 13t13 6h394q7 0 13 -6t6 -13v-29q0 -8 -6 -14t-13 -5h-336v-244h287q8 1 14 -5t5 -14v-29q1 -7 -5 -13t-14 -6h-287v-255h336q7 1 13 -5t6 -14v-25q0 -10 -15 -23q-48 -42 -48 -99q0 -25 17 -41t40 -16q25 0 55 16q6 3 12 -1t6 -13v-25q0 -9 -14 -17 q-30 -15 -70 -15q-45 0 -75 26t-31 76q0 63 54 109h-344q-7 0 -13 6t-6 13z"/>
<glyph glyph-name="eogonek" horiz-adv-x="459" unicode="ę" d="M113 239h238q-3 44 -35 77t-77 33q-49 1 -85 -31t-41 -79zM167 -109q0 56 45 101q-77 10 -123 68t-46 140q0 88 54 149t142 61q79 0 130 -52t51 -131q0 -13 -2 -27q-2 -17 -18 -17h-288q2 -51 42 -91t92 -39q50 0 99 30q13 7 16 8t12 -6l17 -23q6 -8 6 -13t-10 -13 q-46 -37 -120 -45q-39 -41 -39 -90q0 -25 17 -41t40 -16q25 0 55 16q6 3 12 -1t6 -13v-25q0 -9 -14 -17q-30 -15 -70 -15q-45 0 -75 26t-31 76z"/>
<glyph glyph-name="Ecaron" horiz-adv-x="592" unicode="Ě" d="M317 768q-8 0 -13 4l-120 94q-13 9 -6 19l14 18q4 7 11 7q5 0 12 -5l102 -68l102 70q7 5 12 5q6 0 11 -7l14 -20q4 -5 1 -11t-9 -10t-11 -8l-107 -84q-5 -4 -13 -4zM102 19v662q0 7 6 13t13 6h394q7 0 13 -6t6 -13v-29q0 -8 -6 -14t-13 -5h-336v-244h287q8 1 14 -5t5 -14 v-29q1 -7 -5 -13t-14 -6h-287v-255h336q7 1 13 -5t6 -14v-29q0 -7 -6 -13t-13 -6h-394q-7 0 -13 6t-6 13z"/>
<glyph glyph-name="ecaron" horiz-adv-x="457" unicode="ě" d="M223 546l-120 94q-13 9 -6 19l14 18q4 7 11 7q5 0 12 -5l102 -68l102 70q7 5 12 5q6 0 11 -7l14 -20q4 -5 1 -11q-4 -6 -10 -10t-10 -8l-107 -84q-5 -4 -13 -4t-13 4zM112 239h238q-2 44 -34 77t-78 33q-50 1 -86 -31t-40 -79zM42 200q0 88 54 149t142 61q79 0 130 -52 t51 -131q0 -13 -2 -27q-2 -17 -18 -17h-288q3 -51 43 -91t91 -39q50 0 99 30q13 7 16 8t12 -6l17 -23q6 -8 6 -13t-10 -13q-58 -46 -147 -46q-88 0 -142 60t-54 150z"/>
<glyph glyph-name="Gcircumflex" horiz-adv-x="732" unicode="Ĝ" d="M286 775l-14 18q-7 10 6 19l120 94q5 4 13 4t13 -4l120 -94q13 -9 6 -19q-4 -11 -14 -21t-23 -1l-102 70l-102 -68q-15 -10 -23 2zM51 349q-1 149 105 255t256 106q133 0 242 -93q7 -8 7 -15t-6 -13l-28 -28q-11 -12 -26 1q-41 34 -91 56t-99 22q-117 0 -197 -84 t-81 -203q1 -117 81 -203t197 -86q49 0 94 10t65 22l21 10v140h-115q-8 0 -14 5t-5 13v37q0 19 19 19h173q7 0 13 -6t5 -13v-229q0 -10 -8 -16l-29 -16q-30 -18 -92 -34t-126 -16q-150 0 -256 104t-105 255z"/>
<glyph glyph-name="gcircumflex" horiz-adv-x="459" unicode="ĝ" d="M124 555l-14 18q-7 10 6 19l120 94q5 4 13 4t13 -4l120 -94q13 -9 6 -19q-4 -11 -14 -21t-23 -1l-102 70l-102 -68q-15 -10 -23 2zM117 -162q1 -36 35 -60t85 -23q52 1 93 27t41 68q1 12 -3 24t-22 26t-51 15h-111l-17 -6q-17 -5 -33 -25t-17 -46zM236 124q44 0 72 31 t28 81t-28 81t-72 31q-46 0 -76 -32t-29 -80q-1 -48 29 -80t76 -32zM31 19q1 35 17 63t33 40l17 12l-8 12q-8 12 -16 37t-8 51q0 72 46 124t123 52h169q19 0 19 -19v-17q0 -15 -11 -17l-54 -11l11 -10q11 -11 23 -39t11 -63q-1 -70 -47 -120t-121 -50q-28 0 -52 6t-33 12 l-10 7l-11 -6q-11 -6 -22 -21t-11 -33q0 -21 14 -35t41 -14h144q66 0 108 -32t42 -96q1 -64 -59 -113t-148 -49q-94 0 -143 42t-49 96q0 58 58 93v3q-27 6 -50 30t-23 65z"/>
<glyph glyph-name="Gbreve" horiz-adv-x="732" unicode="Ğ" d="M412 771q-52 1 -90 33t-45 81q-4 20 14 20h21q13 0 19 -17q8 -28 30 -46t51 -18q26 0 48 18t31 46q6 17 19 17h23q18 0 14 -20q-8 -49 -46 -81t-89 -33zM51 349q-1 149 105 255t256 106q133 0 242 -93q7 -8 7 -15t-6 -13l-28 -28q-11 -12 -26 1q-41 34 -91 56t-99 22 q-117 0 -197 -84t-81 -203q1 -117 81 -203t197 -86q49 0 94 10t65 22l21 10v140h-115q-8 0 -14 5t-5 13v37q0 19 19 19h173q7 0 13 -6t5 -13v-229q0 -10 -8 -16l-29 -16q-30 -18 -92 -34t-126 -16q-150 0 -256 104t-105 255z"/>
<glyph glyph-name="gbreve" horiz-adv-x="459" unicode="ğ" d="M250 531q-52 1 -90 33t-45 81q-4 20 14 20h21q13 0 19 -17q8 -28 30 -46t51 -18q26 0 48 18t31 46q6 17 19 17h23q18 0 14 -20q-8 -49 -46 -81t-89 -33zM117 -162q1 -36 35 -60t85 -23q52 1 93 27t41 68q1 12 -3 24t-22 26t-51 15h-111l-17 -6q-17 -5 -33 -25t-17 -46z M236 124q44 0 72 31t28 81t-28 81t-72 31q-46 0 -76 -32t-29 -80q-1 -48 29 -80t76 -32zM31 19q1 35 17 63t33 40l17 12l-8 12q-8 12 -16 37t-8 51q0 72 46 124t123 52h169q19 0 19 -19v-17q0 -15 -11 -17l-54 -11l11 -10q11 -11 23 -39t11 -63q-1 -70 -47 -120t-121 -50 q-28 0 -52 6t-33 12l-10 7l-11 -6q-11 -6 -22 -21t-11 -33q0 -21 14 -35t41 -14h144q66 0 108 -32t42 -96q1 -64 -59 -113t-148 -49q-94 0 -143 42t-49 96q0 58 58 93v3q-27 6 -50 30t-23 65z"/>
<glyph glyph-name="Gdotaccent" horiz-adv-x="732" unicode="Ġ" d="M411 796q-23 0 -40 17t-17 40q0 25 17 41t40 16q25 0 41 -16t16 -41q0 -23 -16 -40t-41 -17zM51 349q-1 149 105 255t256 106q133 0 242 -93q7 -8 7 -15t-6 -13l-28 -28q-11 -12 -26 1q-41 34 -91 56t-99 22q-117 0 -197 -84t-81 -203q1 -117 81 -203t197 -86q49 0 94 10 t65 22l21 10v140h-115q-8 0 -14 5t-5 13v37q0 19 19 19h173q7 0 13 -6t5 -13v-229q0 -10 -8 -16l-29 -16q-30 -18 -92 -34t-126 -16q-150 0 -256 104t-105 255z"/>
<glyph glyph-name="gdotaccent" horiz-adv-x="459" unicode="ġ" d="M248 566q-23 0 -40 17t-17 40q0 25 17 41t40 16q24 0 40 -16t17 -41q-1 -23 -17 -40t-40 -17zM117 -162q1 -36 35 -60t85 -23q52 1 93 27t41 68q1 12 -3 24t-22 26t-51 15h-111l-17 -6q-17 -5 -33 -25t-17 -46zM236 124q44 0 72 31t28 81t-28 81t-72 31q-46 0 -76 -32 t-29 -80q-1 -48 29 -80t76 -32zM31 19q1 35 17 63t33 40l17 12l-8 12q-8 12 -16 37t-8 51q0 72 46 124t123 52h169q19 0 19 -19v-17q0 -15 -11 -17l-54 -11l11 -10q11 -11 23 -39t11 -63q-1 -70 -47 -120t-121 -50q-28 0 -52 6t-33 12l-10 7l-11 -6q-11 -6 -22 -21t-11 -33 q0 -21 14 -35t41 -14h144q66 0 108 -32t42 -96q1 -64 -59 -113t-148 -49q-94 0 -143 42t-49 96q0 58 58 93v3q-27 6 -50 30t-23 65z"/>
<glyph glyph-name="Gcommaaccent" horiz-adv-x="732" unicode="Ģ" d="M409 -92q66 0 66 -90q-1 -56 -27 -106t-57 -79q-8 -7 -14 -7q-5 0 -10 5l-14 14q-10 10 6 24q62 56 62 126q-4 -1 -12 -1q-23 0 -40 17t-17 40q0 25 17 41t40 16zM51 349q-1 149 105 255t256 106q133 0 242 -93q7 -8 7 -15t-6 -13l-28 -28q-11 -12 -26 1q-41 34 -91 56 t-99 22q-117 0 -197 -84t-81 -203q1 -117 81 -203t197 -86q49 0 94 10t65 22l21 10v140h-115q-8 0 -14 5t-5 13v37q0 19 19 19h173q7 0 13 -6t5 -13v-229q0 -10 -8 -16l-29 -16q-30 -18 -92 -34t-126 -16q-150 0 -256 104t-105 255z"/>
<glyph glyph-name="gcommaaccent" horiz-adv-x="459" unicode="ģ" d="M117 -162q1 -36 35 -60t85 -23q52 1 93 27t41 68q1 12 -3 24t-22 26t-51 15h-111l-17 -6q-17 -5 -33 -25t-17 -46zM236 124q44 0 72 31t28 81t-28 81t-72 31q-46 0 -76 -32t-29 -80q-1 -48 29 -80t76 -32zM31 19q1 35 17 63t33 40l17 12l-8 12q-8 12 -16 37t-8 51 q0 72 46 124t123 52h169q19 0 19 -19v-17q0 -15 -11 -17l-54 -11l11 -10q11 -11 23 -39t11 -63q-1 -70 -47 -120t-121 -50q-28 0 -52 6t-33 12l-10 7l-11 -6q-11 -6 -22 -21t-11 -33q0 -21 14 -35t41 -14h144q66 0 108 -32t42 -96q1 -64 -59 -113t-148 -49q-94 0 -143 42 t-49 96q0 58 58 93v3q-27 6 -50 30t-23 65zM258 530q-66 0 -66 90q0 56 26 106t58 79q8 7 14 7q5 0 10 -5l14 -14q4 -4 4 -8q0 -7 -10 -16q-62 -56 -62 -126q4 1 12 1q23 0 40 -17t17 -40q0 -25 -17 -41t-40 -16z"/>
<glyph glyph-name="Hcircumflex" horiz-adv-x="764" unicode="Ĥ" d="M259 775l-14 18q-7 10 6 19l120 94q5 4 13 4t13 -4l120 -94q13 -9 6 -19q-4 -11 -14 -21t-23 -1l-102 70l-102 -68q-15 -10 -23 2zM102 19v662q0 7 6 13t13 6h39q8 0 14 -6t5 -13v-292h406v292q-1 7 5 13t14 6h39q7 0 13 -6t6 -13v-662q0 -7 -6 -13t-13 -6h-39 q-8 0 -14 6t-5 13v303h-406v-303q1 -7 -5 -13t-14 -6h-39q-7 0 -13 6t-6 13z"/>
<glyph glyph-name="hcircumflex" horiz-adv-x="496" unicode="ĥ" d="M-19 772l-14 18q-2 4 -2 7q0 6 8 12l120 94q5 4 13 4t13 -4l120 -94q13 -9 6 -19q-4 -11 -14 -21t-23 -1l-102 70l-102 -68q-15 -10 -23 2zM72 19v662q0 7 6 13t13 6h31q8 0 14 -6t5 -13v-324l15 13q16 14 50 27t69 13q75 0 115 -46t40 -134v-211q0 -7 -6 -13t-13 -6h-32 q-7 0 -13 6t-6 13v211q0 56 -24 84t-66 29q-34 0 -66 -14t-48 -28l-15 -14v-268q1 -7 -5 -13t-14 -6h-31q-7 0 -13 6t-6 13z"/>
<glyph glyph-name="Hbar" horiz-adv-x="764" unicode="Ħ" d="M179 389h406v147h-406v-147zM102 19v517h-22q-6 0 -12 6t-6 13v7q0 8 6 14t12 5h22v100q0 7 6 13t13 6h39q8 0 14 -6t5 -13v-100h406v100q-1 7 5 13t14 6h39q7 0 13 -6t6 -13v-100h21q7 1 13 -5t6 -14v-8q0 -8 -6 -13t-13 -5h-21v-517q0 -7 -6 -13t-13 -6h-39q-8 0 -14 6 t-5 13v303h-406v-303q1 -7 -5 -13t-14 -6h-39q-7 0 -13 6t-6 13z"/>
<glyph glyph-name="hbar" horiz-adv-x="496" unicode="ħ" d="M72 19v517h-33q-7 0 -13 6t-5 13v7q-1 8 5 14t13 5h33v100q0 7 6 13t13 6h31q8 0 14 -6t5 -13v-100h155q8 1 14 -5t5 -14v-8q1 -8 -5 -13t-14 -5h-155v-179l15 13q16 14 50 27t69 13q155 0 155 -183v-208q0 -7 -6 -13t-13 -6h-32q-7 0 -13 6t-6 13v211q0 56 -24 84 t-66 29q-34 0 -66 -14t-48 -28l-15 -14v-268q1 -7 -5 -13t-14 -6h-31q-7 0 -13 6t-6 13z"/>
<glyph glyph-name="Itilde" horiz-adv-x="282" unicode="Ĩ" d="M16 795l-18 9q-7 4 -7 11q0 5 3 11q7 12 13 30q5 18 27 36t52 18q26 0 46 -18t36 -38q16 -18 28 -18q30 0 45 51q5 16 23 8l16 -8q6 -3 6 -13q0 -6 -2 -13q-28 -81 -89 -81q-23 0 -45 19t-38 37t-27 19q-12 0 -22 -9q-9 -10 -13 -18t-9 -23q-4 -13 -14 -13q-5 0 -11 3z M102 19v662q0 7 6 13t13 6h40q7 0 13 -6t6 -13v-662q0 -7 -6 -13t-13 -6h-40q-7 0 -13 6t-6 13z"/>
<glyph glyph-name="itilde" horiz-adv-x="211" unicode="ĩ" d="M-18 575l-18 9q-7 4 -7 11q0 5 3 11q7 12 13 30q5 18 27 36t52 18q26 0 46 -18t36 -38q16 -18 28 -18q30 0 45 51q5 16 23 8l16 -8q6 -3 6 -13q0 -6 -2 -13q-28 -81 -89 -81q-23 0 -45 19t-38 37t-27 19q-12 0 -22 -9q-9 -10 -13 -18t-9 -23q-4 -13 -14 -13q-5 0 -11 3z M71 19v362q-1 7 5 13t14 6h31q7 0 13 -6t6 -13v-362q0 -7 -6 -13t-13 -6h-31q-8 0 -14 6t-5 13z"/>
<glyph glyph-name="Imacron" horiz-adv-x="282" unicode="Ī" d="M14 821q-8 0 -14 5t-5 13v21q0 19 19 19h256q19 0 19 -19v-21q1 -8 -5 -13t-14 -5h-256zM102 19v662q0 7 6 13t13 6h40q7 0 13 -6t6 -13v-662q0 -7 -6 -13t-13 -6h-40q-7 0 -13 6t-6 13z"/>
<glyph glyph-name="imacron" horiz-adv-x="211" unicode="ī" d="M-20 583q-8 0 -14 5t-5 13v21q0 19 19 19h256q19 0 19 -19v-21q1 -8 -5 -13t-14 -5h-256zM71 19v362q-1 7 5 13t14 6h31q7 0 13 -6t6 -13v-362q0 -7 -6 -13t-13 -6h-31q-8 0 -14 6t-5 13z"/>
<glyph glyph-name="Ibreve" horiz-adv-x="282" unicode="Ĭ" d="M142 771q-52 1 -90 33t-45 81q-1 4 -1 7q0 13 15 13h21q13 0 19 -17q8 -28 30 -46t51 -18q26 0 48 18t31 46q6 17 19 17h23q15 0 15 -13q0 -3 -1 -7q-8 -49 -46 -81t-89 -33zM102 19v662q0 7 6 13t13 6h40q7 0 13 -6t6 -13v-662q0 -7 -6 -13t-13 -6h-40q-7 0 -13 6t-6 13 z"/>
<glyph glyph-name="ibreve" horiz-adv-x="211" unicode="ĭ" d="M108 531q-52 1 -90 33t-45 81q-1 4 -1 7q0 13 15 13h21q13 0 19 -17q8 -28 30 -46t51 -18q26 0 48 18t31 46q6 17 19 17h23q15 0 15 -13q0 -3 -1 -7q-8 -49 -46 -81t-89 -33zM71 19v362q-1 7 5 13t14 6h31q7 0 13 -6t6 -13v-362q0 -7 -6 -13t-13 -6h-31q-8 0 -14 6t-5 13 z"/>
<glyph glyph-name="Iogonek" horiz-adv-x="282" unicode="Į" d="M102 19v662q0 7 6 13t13 6h40q7 0 13 -6t6 -13v-662q0 -7 -6 -13t-13 -6h-3q-47 -44 -47 -99q0 -25 17 -41t40 -16q25 0 55 16q6 3 12 -1t6 -13v-25q0 -9 -14 -17q-30 -15 -70 -15q-45 0 -75 26t-31 76q0 39 19 67t40 45q-8 6 -8 16z"/>
<glyph glyph-name="iogonek" horiz-adv-x="212" unicode="į" d="M72 19v362q0 7 6 13t13 6h31q8 0 14 -6t5 -13v-362q1 -7 -5 -13t-14 -6q-47 -44 -47 -99q0 -25 17 -41t40 -16q25 0 55 16q6 3 12 -1t6 -13v-25q0 -9 -14 -17q-30 -15 -70 -15q-45 0 -75 26t-31 76q0 69 62 115q-5 5 -5 13zM105 585q-19 -1 -33 13t-14 34t14 34t33 14 q20 0 34 -14t14 -34t-14 -34t-34 -13z"/>
<glyph glyph-name="Idotaccent" horiz-adv-x="282" unicode="İ" d="M141 796q-23 0 -40 17t-17 40q0 25 17 41t40 16q25 0 41 -16t16 -41q0 -23 -16 -40t-41 -17zM102 19v662q0 7 6 13t13 6h40q7 0 13 -6t6 -13v-662q0 -7 -6 -13t-13 -6h-40q-7 0 -13 6t-6 13z"/>
<glyph glyph-name="dotlessi" horiz-adv-x="211" unicode="ı" d="M71 19v362q-1 7 5 13t14 6h31q7 0 13 -6t6 -13v-362q0 -7 -6 -13t-13 -6h-31q-8 0 -14 6t-5 13z"/>
<glyph glyph-name="IJ" horiz-adv-x="699" unicode="Ĳ" d="M274 64q-8 13 2 25l21 24q8 7 16 7l18 -10q47 -53 97 -53t86 38t36 112v474q0 7 6 13t13 6h39q8 0 14 -6t5 -13v-472q1 -103 -55 -161t-146 -58q-92 0 -152 74zM102 19v662q0 7 6 13t13 6h40q7 0 13 -6t6 -13v-662q0 -7 -6 -13t-13 -6h-40q-7 0 -13 6t-6 13z"/>
<glyph glyph-name="ij" horiz-adv-x="449" unicode="ĳ" d="M308 -140v521q0 7 6 13t13 6h31q8 0 14 -6t5 -13v-521q-1 -82 -43 -126t-110 -44q-67 0 -110 41q-12 10 -4 23l16 26q9 15 26 1q38 -29 73 -29q37 0 60 26t23 82zM342 585q-20 -1 -34 13t-13 34q-1 20 13 34t34 14t34 -14t14 -34t-14 -34t-34 -13zM71 19v362q-1 7 5 13 t14 6h31q7 0 13 -6t6 -13v-362q0 -7 -6 -13t-13 -6h-31q-8 0 -14 6t-5 13zM104 585q-20 -1 -34 13t-13 34q-1 20 13 34t34 14t34 -14t14 -34t-14 -34t-34 -13z"/>
<glyph glyph-name="Jcircumflex" horiz-adv-x="405" unicode="Ĵ" d="M169 775l-14 18q-7 10 6 19l120 94q5 4 13 4t13 -4l120 -94q8 -6 8 -12q0 -3 -2 -7q-4 -11 -14 -21t-23 -1l-102 70l-102 -68q-15 -10 -23 2zM-20 64q-4 6 -4 11q0 7 6 14l21 24q8 7 16 7l18 -10q47 -53 97 -53t86 38t36 112v474q0 7 6 13t13 6h39q8 0 14 -6t5 -13v-472 q1 -103 -55 -161t-146 -58q-92 0 -152 74z"/>
<glyph glyph-name="jcircumflex" horiz-adv-x="213" unicode="ĵ" d="M-19 555l-14 18q-7 10 6 19l120 94q5 4 13 4t13 -4l120 -94q8 -6 8 -12q0 -3 -2 -7q-4 -11 -14 -21t-23 -1l-102 70l-102 -68q-15 -10 -23 2zM72 -140v521q0 7 6 13t13 6h31q8 0 14 -6t5 -13v-521q-1 -82 -43 -126t-110 -44q-67 0 -110 41q-7 6 -7 13q0 5 3 10l16 26 q9 15 26 1q38 -29 73 -29q37 0 60 26t23 82z"/>
<glyph glyph-name="Kcommaaccent" horiz-adv-x="618" unicode="Ķ" d="M312 -92q66 0 66 -90q0 -56 -26 -106t-58 -79q-8 -7 -14 -7q-5 0 -10 5l-14 14q-10 10 6 24q62 56 62 126q-4 -1 -12 -1q-23 0 -40 17t-17 40q0 25 17 41t40 16zM102 24v652q0 10 7 17t17 7h29q10 0 17 -7t7 -17v-283l312 297q8 10 19 10h49q15 0 19 -12t-7 -23 l-316 -295l331 -339q4 -3 4 -9q0 -4 -2 -9q-4 -13 -19 -13h-51q-13 0 -18 7l-321 335v-318q0 -10 -7 -17t-17 -7h-29q-10 0 -17 7t-7 17z"/>
<glyph glyph-name="kcommaaccent" horiz-adv-x="447" unicode="ķ" d="M226 -92q66 0 66 -90q0 -56 -26 -106t-58 -79q-8 -7 -14 -7q-5 0 -10 5l-14 14q-10 10 6 24q62 56 62 126q-4 -1 -12 -1q-23 0 -40 17t-17 40q0 25 17 41t40 16zM71 19v662q-1 7 5 13t14 6h31q7 0 13 -6t6 -13v-433l170 140q14 12 24 12h54q12 0 14 -10t-5 -15l-190 -152 l221 -198q5 -4 5 -10q-1 -2 -1 -5q-2 -10 -14 -10h-55q-9 0 -20 8l-203 193v-182q0 -7 -6 -13t-13 -6h-31q-8 0 -14 6t-5 13z"/>
<glyph glyph-name="kgreenlandic" horiz-adv-x="449" unicode="ĸ" d="M71 19v362q-1 7 5 13t14 6h31q7 0 13 -6t6 -13v-163l178 170q14 12 24 12h52q12 0 14 -10t-5 -15l-196 -177l221 -173q5 -4 5 -10q-1 -2 -1 -5q-2 -10 -14 -10h-55q-9 0 -20 8l-203 163v-152q0 -7 -6 -13t-13 -6h-31q-8 0 -14 6t-5 13z"/>
<glyph glyph-name="Lacute" horiz-adv-x="491" unicode="Ĺ" d="M51 783l-10 22q-2 4 -2 8q0 7 8 11l150 84q4 4 11 4h2q10 0 13 -7l18 -36q8 -16 -6 -21l-161 -67q-18 -8 -23 2zM102 19v662q0 7 6 13t13 6h39q8 0 14 -6t5 -13v-614h288q7 1 13 -5t6 -14v-29q0 -7 -6 -13t-13 -6h-346q-7 0 -13 6t-6 13z"/>
<glyph glyph-name="lacute" horiz-adv-x="213" unicode="ĺ" d="M18 778l-10 22q-2 4 -2 8q0 7 8 11l150 84q4 4 11 4q1 -1 3 -1q10 0 12 -6l18 -36q3 -6 3 -10q0 -8 -9 -11l-161 -67q-18 -8 -23 2zM72 19v662q0 7 6 13t13 6h31q8 0 14 -6t5 -13v-662q1 -7 -5 -13t-14 -6h-31q-7 0 -13 6t-6 13z"/>
<glyph glyph-name="Lcommaaccent" horiz-adv-x="492" unicode="Ļ" d="M294 -92q66 0 66 -90q0 -56 -26 -106t-58 -79q-8 -7 -14 -7q-5 0 -10 5l-14 14q-10 10 6 24q62 56 62 126q-4 -1 -12 -1q-23 0 -40 17t-17 40q0 25 17 41t40 16zM102 19v662q0 7 6 13t13 6h39q8 0 14 -6t5 -13v-614h288q7 1 13 -5t6 -14v-29q0 -7 -6 -13t-13 -6h-346 q-7 0 -13 6t-6 13z"/>
<glyph glyph-name="lcommaaccent" horiz-adv-x="212" unicode="ļ" d="M103 -92q66 0 66 -90q-1 -56 -27 -106t-57 -79q-8 -7 -14 -7q-5 0 -10 5l-14 14q-4 4 -4 8q0 7 10 16q62 56 62 126q-4 -1 -12 -1q-23 0 -40 17t-17 40q0 25 17 41t40 16zM70 19v662q0 7 6 13t13 6h31q8 0 14 -6t5 -13v-662q1 -7 -5 -13t-14 -6h-31q-7 0 -13 6t-6 13z "/>
<glyph glyph-name="Lcaron" horiz-adv-x="491" unicode="Ľ" d="M394 710q66 0 66 -90q0 -56 -26 -106t-58 -79q-14 -12 -24 -2l-14 14q-10 10 6 24q62 56 62 126q-4 -1 -12 -1q-23 0 -40 17t-17 40q0 25 17 41t40 16zM102 19v662q0 7 6 13t13 6h39q8 0 14 -6t5 -13v-614h288q7 1 13 -5t6 -14v-29q0 -7 -6 -13t-13 -6h-346q-7 0 -13 6 t-6 13z"/>
<glyph glyph-name="lcaron" horiz-adv-x="243" unicode="ľ" d="M258 434l-14 14q-10 10 6 24q62 56 62 126q-4 -1 -12 -1q-23 0 -40 17t-17 40q0 24 17 40t40 17q66 0 66 -90q0 -56 -26 -106t-58 -79q-14 -12 -24 -2zM72 19v662q0 7 6 13t13 6h31q8 0 14 -6t5 -13v-662q1 -7 -5 -13t-14 -6h-31q-7 0 -13 6t-6 13z"/>
<glyph glyph-name="Ldot" horiz-adv-x="574" unicode="Ŀ" d="M484 292q-23 0 -40 17t-17 40q0 25 17 41t40 16q24 0 40 -16t17 -41q-1 -23 -17 -40t-40 -17zM102 19v662q0 7 6 13t13 6h39q8 0 14 -6t5 -13v-614h288q7 1 13 -5t6 -14v-29q0 -7 -6 -13t-13 -6h-346q-7 0 -13 6t-6 13z"/>
<glyph glyph-name="ldot" horiz-adv-x="326" unicode="ŀ" d="M268 303q-23 0 -40 17t-17 40q0 24 17 40t40 17q24 -1 40 -17t17 -40q-1 -23 -17 -40t-40 -17zM72 19v662q0 7 6 13t13 6h31q8 0 14 -6t5 -13v-662q1 -7 -5 -13t-14 -6h-31q-7 0 -13 6t-6 13z"/>
<glyph glyph-name="Lslash" horiz-adv-x="497" unicode="Ł" d="M108 19v292l-21 -12q-16 -10 -25 7l-4 8q-3 6 -3 10q0 9 10 14l43 24v319q0 7 6 13t13 6h39q8 0 14 -6t5 -13v-274l111 64q17 10 26 -7l3 -6q9 -16 -7 -26l-133 -76v-289h288q7 1 13 -5t6 -14v-29q0 -7 -6 -13t-13 -6h-346q-7 0 -13 6t-6 13z"/>
<glyph glyph-name="lslash" horiz-adv-x="238" unicode="ł" d="M88 19v303l-51 -29q-5 -4 -13 -2t-12 9l-3 6q-4 6 -4 11q0 8 10 15l73 41v308q0 7 6 13t13 6h31q8 0 14 -6t5 -13v-268l89 52q16 9 26 -7l3 -6q3 -6 3 -11q0 -9 -10 -15l-111 -64v-343q1 -7 -5 -13t-14 -6h-31q-7 0 -13 6t-6 13z"/>
<glyph glyph-name="Nacute" horiz-adv-x="774" unicode="Ń" d="M309 783l-10 22q-6 13 6 19l150 84q4 4 11 4h2q10 0 13 -7l18 -36q8 -16 -6 -21l-161 -67q-18 -8 -23 2zM102 19v673q0 6 6 12t13 6h25l451 -562h2v533q-1 7 5 13t14 6h35q7 0 13 -6t6 -13v-673q0 -6 -6 -12t-13 -6h-18l-459 573h-1v-544q1 -7 -5 -13t-14 -6h-35 q-7 0 -13 6t-6 13z"/>
<glyph glyph-name="nacute" horiz-adv-x="495" unicode="ń" d="M169 561l-10 22q-6 13 6 19l150 84q4 4 11 4h2q10 0 13 -7l18 -36q8 -16 -6 -21l-161 -67q-18 -8 -23 2zM71 19v362q-1 7 5 13t14 6h19q13 0 16 -12l9 -31l16 13q17 14 52 27t72 13q155 0 155 -180v-211q1 -7 -5 -13t-14 -6h-32q-8 0 -14 6t-5 13v211q1 56 -23 84t-67 29 q-33 -1 -65 -15t-48 -28l-16 -14v-267q0 -7 -6 -13t-13 -6h-31q-8 0 -14 6t-5 13z"/>
<glyph glyph-name="Ncommaaccent" horiz-adv-x="774" unicode="Ņ" d="M388 -92q66 0 66 -90q0 -56 -26 -106t-58 -79q-8 -7 -14 -7q-5 0 -10 5l-14 14q-10 10 6 24q62 56 62 126q-4 -1 -12 -1q-23 0 -40 17t-17 40q0 25 17 41t40 16zM102 19v673q0 6 6 12t13 6h25l451 -562h2v533q-1 7 5 13t14 6h35q7 0 13 -6t6 -13v-673q0 -6 -6 -12t-13 -6 h-18l-459 573h-1v-544q1 -7 -5 -13t-14 -6h-35q-7 0 -13 6t-6 13z"/>
<glyph glyph-name="ncommaaccent" horiz-adv-x="497" unicode="ņ" d="M243 -92q66 0 66 -90q-1 -56 -27 -106t-57 -79q-8 -7 -14 -7q-5 0 -10 5l-14 14q-10 10 6 24q62 56 62 126q-4 -1 -12 -1q-23 0 -40 17t-17 40q0 25 17 41t40 16zM72 19v362q0 7 6 13t13 6h19q13 0 16 -12l9 -31l17 13q16 14 51 27t72 13q155 0 155 -180v-211 q0 -7 -6 -13t-13 -6h-32q-7 0 -13 6t-6 13v211q0 56 -24 84t-66 29q-34 -1 -66 -15t-48 -28l-15 -14v-267q1 -7 -5 -13t-14 -6h-31q-7 0 -13 6t-6 13z"/>
<glyph glyph-name="Ncaron" horiz-adv-x="774" unicode="Ň" d="M392 768q-8 0 -13 4l-120 94q-13 9 -6 19l14 18q4 7 11 7q5 0 12 -5l102 -68l102 70q7 5 12 5q6 0 11 -7l14 -20q4 -5 1 -11q-4 -6 -10 -10t-10 -8l-107 -84q-5 -4 -13 -4zM102 19v673q0 6 6 12t13 6h25l451 -562h2v533q-1 7 5 13t14 6h35q7 0 13 -6t6 -13v-673 q0 -6 -6 -12t-13 -6h-18l-459 573h-1v-544q1 -7 -5 -13t-14 -6h-35q-7 0 -13 6t-6 13z"/>
<glyph glyph-name="ncaron" horiz-adv-x="495" unicode="ň" d="M238 546l-120 94q-13 9 -6 19l14 18q4 7 11 7q5 0 12 -5l102 -68l102 70q7 5 12 5q6 0 11 -7l14 -20q4 -5 1 -11t-9 -10t-11 -8l-107 -84q-5 -4 -13 -4t-13 4zM71 19v362q-1 7 5 13t14 6h19q13 0 16 -12l9 -31l16 13q17 14 52 27t72 13q155 0 155 -180v-211q1 -7 -5 -13 t-14 -6h-32q-8 0 -14 6t-5 13v211q1 56 -23 84t-67 29q-33 -1 -65 -15t-48 -28l-16 -14v-267q0 -7 -6 -13t-13 -6h-31q-8 0 -14 6t-5 13z"/>
<glyph glyph-name="napostrophe" horiz-adv-x="495" unicode="ŉ" d="M-50 710q66 0 66 -90q0 -56 -26 -106t-58 -79q-14 -12 -24 -2l-14 14q-4 4 -4 8q0 7 10 16q62 56 62 126q-4 -1 -12 -1q-23 0 -40 17t-17 40q0 25 17 41t40 16zM70 19v362q0 7 6 13t13 6h19q13 0 16 -12l9 -31l17 13q16 14 51 27t72 13q155 0 155 -180v-211q0 -7 -6 -13 t-13 -6h-32q-7 0 -13 6t-6 13v211q0 56 -24 84t-66 29q-34 -1 -66 -15t-48 -28l-15 -14v-267q1 -7 -5 -13t-14 -6h-31q-7 0 -13 6t-6 13z"/>
<glyph glyph-name="Eng" horiz-adv-x="774" unicode="Ŋ" d="M102 19v673q0 6 6 12t13 6h25l451 -562h2v533q-1 7 5 13t14 6h35q7 0 13 -6t6 -13v-821q0 -82 -42 -126t-111 -44q-67 0 -110 41q-12 10 -4 23l16 26q9 15 26 1q38 -29 73 -29q36 0 58 26t22 82v171l-424 532h-1v-544q1 -7 -5 -13t-14 -6h-35q-7 0 -13 6t-6 13z"/>
<glyph glyph-name="eng" horiz-adv-x="496" unicode="ŋ" d="M71 19v362q-1 7 5 13t14 6h19q13 0 16 -12l9 -31l16 13q17 14 52 27t72 13q155 0 155 -180v-370q-1 -82 -43 -126t-110 -44q-67 0 -110 41q-12 10 -4 23l16 26q9 15 26 1q38 -29 73 -29q37 0 59 26t23 82v370q1 56 -23 84t-67 29q-33 -1 -65 -15t-48 -28l-16 -14v-267 q0 -7 -6 -13t-13 -6h-31q-8 0 -14 6t-5 13z"/>
<glyph glyph-name="Omacron" horiz-adv-x="821" unicode="Ō" d="M283 821q-7 0 -13 5t-6 13v21q0 19 19 19h256q19 0 19 -19v-21q0 -8 -6 -13t-13 -5h-256zM121 349q0 -119 85 -204t204 -85q118 0 204 85t86 204t-86 205t-204 86q-119 0 -204 -86t-85 -205zM51 349q1 149 105 255t254 106t255 -106t105 -255q0 -151 -105 -255t-255 -104 t-254 104t-105 255z"/>
<glyph glyph-name="omacron" d="M114 583q-8 0 -14 5t-5 13v21q0 19 19 19h256q19 0 19 -19v-21q1 -8 -5 -13t-14 -5h-256zM111 201q-1 -61 37 -103t93 -43q55 1 93 43t37 103q1 59 -37 101t-93 42t-93 -42t-37 -101zM42 201q0 85 58 147t141 62t141 -62t58 -147q0 -87 -58 -149t-141 -62t-141 62 t-58 149z" unicode="ō"/>
<glyph glyph-name="Obreve" horiz-adv-x="821" unicode="Ŏ" d="M411 771q-52 1 -90 33t-45 81q-4 20 14 20h21q13 0 19 -17q8 -28 30 -46t51 -18q27 0 49 18t30 46q6 17 19 17h23q18 0 14 -20q-8 -49 -46 -81t-89 -33zM121 349q0 -119 85 -204t204 -85q118 0 204 85t86 204t-86 205t-204 86q-119 0 -204 -86t-85 -205zM51 349 q1 149 105 255t254 106t255 -106t105 -255q0 -151 -105 -255t-255 -104t-254 104t-105 255z"/>
<glyph glyph-name="obreve" d="M241 531q-52 1 -90 33t-45 81q-4 20 14 20h21q13 0 19 -17q8 -28 30 -46t51 -18q27 0 49 18t30 46q6 17 19 17h23q18 0 14 -20q-8 -49 -46 -81t-89 -33zM111 201q-1 -61 37 -103t93 -43q55 1 93 43t37 103q1 59 -37 101t-93 42t-93 -42t-37 -101zM42 201q0 85 58 147 t141 62t141 -62t58 -147q0 -87 -58 -149t-141 -62t-141 62t-58 149z" unicode="ŏ"/>
<glyph glyph-name="Ohungarumlaut" horiz-adv-x="821" unicode="Ő" d="M341 769q-9 0 -15 6t-4 13l50 141q6 19 19 19h39q14 0 19 -8t-1 -17l-78 -139q-8 -15 -18 -15h-11zM507 769q-9 0 -15 6t-4 13l50 141q6 19 19 19h39q14 0 19 -8t-1 -17l-78 -139q-8 -15 -18 -15h-11zM121 349q0 -119 85 -204t204 -85q118 0 204 85t86 204t-86 205 t-204 86q-119 0 -204 -86t-85 -205zM51 349q1 149 105 255t254 106t255 -106t105 -255q0 -151 -105 -255t-255 -104t-254 104t-105 255z"/>
<glyph glyph-name="ohungarumlaut" d="M166 521q-8 0 -14 6t-5 13l50 141q6 19 19 19h39q14 0 19 -8t-1 -17l-78 -139q-7 -15 -18 -15h-11zM332 521q-8 0 -14 6t-5 13l50 141q6 19 19 19h39q14 0 19 -8q2 -3 2 -7q0 -5 -3 -10l-78 -139q-7 -15 -18 -15h-11zM111 201q-1 -61 37 -103t93 -43q55 1 93 43t37 103 q1 59 -37 101t-93 42t-93 -42t-37 -101zM42 201q0 85 58 147t141 62t141 -62t58 -147q0 -87 -58 -149t-141 -62t-141 62t-58 149z" unicode="ő"/>
<glyph glyph-name="OE" horiz-adv-x="967" unicode="Œ" d="M121 349q0 -119 85 -204t204 -85q36 0 67 7v564q-35 8 -67 8q-119 1 -204 -85t-85 -205zM51 349q1 149 105 255t254 106q28 0 57 -5l29 -5h394q8 0 14 -6t5 -13v-29q1 -8 -5 -14t-14 -5h-336v-244h287q7 1 13 -5t6 -14v-29q0 -7 -6 -13t-13 -6h-287v-255h336q8 1 14 -5 t5 -14v-29q1 -7 -5 -13t-14 -6h-394l-29 -5q-29 -5 -57 -5q-150 0 -254 104t-105 255z"/>
<glyph glyph-name="oe" horiz-adv-x="779" unicode="œ" d="M110 202q0 -61 38 -104t91 -43t91 43t38 104q0 58 -37 100t-92 42t-92 -42t-37 -100zM436 238h237q-3 46 -35 77t-78 31q-50 0 -84 -30t-40 -78zM41 202q-1 84 57 146t141 62q100 0 160 -86q57 86 161 86q77 0 129 -51t52 -132q0 -13 -2 -27q-2 -17 -18 -17h-286 q7 -53 45 -91t87 -38q51 0 99 29q13 7 16 8t12 -6l17 -23q6 -8 6 -13t-10 -13q-58 -46 -147 -46q-103 0 -161 86q-60 -86 -160 -86q-83 0 -141 62t-57 150z"/>
<glyph glyph-name="Racute" horiz-adv-x="661" unicode="Ŕ" d="M226 783l-10 22q-6 13 6 19l150 84q4 4 11 4h3q10 0 12 -7l18 -36q8 -16 -6 -21l-161 -67q-18 -8 -23 2zM181 340h194q58 0 101 42t43 104q0 57 -43 99t-101 42h-194v-287zM102 19v662q0 7 6 13t13 6h259q90 0 154 -62t64 -151q0 -69 -40 -123t-108 -81l137 -254 q7 -9 1 -19t-18 -10h-51q-11 0 -16 9l-133 265h-191v-255q1 -7 -5 -13t-14 -6h-39q-7 0 -13 6t-6 13z"/>
<glyph glyph-name="racute" horiz-adv-x="334" unicode="ŕ" d="M96 561l-10 22q-6 13 6 19l150 84q4 4 11 4h3q10 0 12 -7l18 -36q8 -16 -6 -21l-161 -67q-18 -8 -23 2zM71 19v362q-1 7 5 13t14 6h19q14 0 17 -14l8 -29l8 9q6 8 20 18t38 18t54 8q18 0 34 -2t28 -10q9 -6 9 -14q0 -3 -1 -7l-12 -34q-6 -16 -24 -9q-18 8 -39 8 q-34 0 -61 -14t-38 -28l-10 -14v-267q0 -7 -6 -13t-13 -6h-31q-8 0 -14 6t-5 13z"/>
<glyph glyph-name="Rcommaaccent" horiz-adv-x="660" unicode="Ŗ" d="M315 -92q66 0 66 -90q-1 -56 -27 -106t-57 -79q-8 -7 -14 -7q-5 0 -10 5l-14 14q-10 10 6 24q62 56 62 126q-4 -1 -12 -1q-23 0 -40 17t-17 40q0 25 17 41t40 16zM181 340h194q58 0 101 42t43 104q0 57 -43 99t-101 42h-194v-287zM102 19v662q0 7 6 13t13 6h259 q90 0 154 -62t64 -151q0 -69 -40 -123t-108 -81l137 -254q7 -9 1 -19t-18 -10h-51q-11 0 -16 9l-133 265h-191v-255q1 -7 -5 -13t-14 -6h-39q-7 0 -13 6t-6 13z"/>
<glyph glyph-name="rcommaaccent" horiz-adv-x="334" unicode="ŗ" d="M106 -92q66 0 66 -90q0 -56 -26 -106t-58 -79q-8 -7 -14 -7q-5 0 -10 5l-14 14q-4 4 -4 8q0 7 10 16q62 56 62 126q-4 -1 -12 -1q-23 0 -40 17t-17 40q0 25 17 41t40 16zM71 19v362q-1 7 5 13t14 6h19q14 0 17 -14l8 -29l8 9q6 8 20 18t38 18t54 8q18 0 34 -2t28 -10 q9 -6 9 -14q0 -3 -1 -7l-12 -34q-6 -16 -24 -9q-18 8 -39 8q-34 0 -61 -14t-38 -28l-10 -14v-267q0 -7 -6 -13t-13 -6h-31q-8 0 -14 6t-5 13z"/>
<glyph glyph-name="Rcaron" horiz-adv-x="661" unicode="Ř" d="M306 768q-8 0 -13 4l-120 94q-13 9 -6 19l14 18q4 7 11 7q5 0 12 -5l102 -68l102 70q7 5 12 5q6 0 11 -7l14 -20q4 -5 1 -11q-4 -6 -10 -10t-10 -8l-107 -84q-5 -4 -13 -4zM181 340h194q58 0 101 42t43 104q0 57 -43 99t-101 42h-194v-287zM102 19v662q0 7 6 13t13 6h259 q90 0 154 -62t64 -151q0 -69 -40 -123t-108 -81l137 -254q7 -9 1 -19t-18 -10h-51q-11 0 -16 9l-133 265h-191v-255q1 -7 -5 -13t-14 -6h-39q-7 0 -13 6t-6 13z"/>
<glyph glyph-name="rcaron" horiz-adv-x="334" unicode="ř" d="M158 546l-120 94q-8 6 -8 12q0 3 2 7l14 18q4 7 11 7q5 0 12 -5l102 -68l102 70q7 5 12 5q6 0 11 -7l14 -20q4 -5 1 -11t-9 -10t-11 -8l-107 -84q-5 -4 -13 -4t-13 4zM71 19v362q-1 7 5 13t14 6h19q14 0 17 -14l8 -29l8 9q6 8 20 18t38 18t54 8q18 0 34 -2t28 -10 q9 -6 9 -14q0 -3 -1 -7l-12 -34q-6 -16 -24 -9q-18 8 -39 8q-34 0 -61 -14t-38 -28l-10 -14v-267q0 -7 -6 -13t-13 -6h-31q-8 0 -14 6t-5 13z"/>
<glyph glyph-name="Sacute" horiz-adv-x="533" unicode="Ś" d="M193 783l-10 22q-6 13 6 19l150 84q4 4 11 4h2q10 0 13 -7l18 -36q8 -16 -6 -21l-161 -67q-18 -8 -23 2zM63 71q-11 9 -11 19q0 7 5 15q3 3 8 9t7 10q11 15 22 15q7 0 13 -6q89 -76 169 -76q58 0 96 32t38 78q0 49 -42 85t-133 73q-92 39 -134 83t-42 124q-1 28 11 57 t36 57t66 46q44 18 100 18q44 0 86 -13t64 -25l21 -13q7 -3 10 -11t-4 -23l-6 -9t-6 -10q-9 -13 -21 -13q-7 0 -14 4q-80 46 -131 46q-71 0 -105 -35t-33 -75q-1 -49 33 -81t102 -60q114 -47 168 -94t54 -128q0 -76 -64 -128t-152 -52q-52 0 -104 20t-72 34t-35 27z"/>
<glyph glyph-name="sacute" horiz-adv-x="356" unicode="ś" d="M102 561l-10 22q-6 13 6 19l150 84q4 4 11 4h3q10 0 12 -7l18 -36q8 -16 -6 -21l-161 -67q-18 -8 -23 2zM52 35q-10 8 -5 21q1 3 7 13t7 12q9 14 27 3l12 -9q12 -9 36 -17t46 -9q30 -1 48 13t17 35q0 23 -19 39t-69 41q-33 16 -55 30q-22 15 -40 41q-19 26 -19 58 q0 38 32 71t95 33q66 0 111 -31q10 -7 10 -17q0 -6 -4 -14l-8 -16q-7 -12 -17 -12q-5 0 -12 3l-28 12q-29 12 -52 12q-30 0 -44 -12t-13 -28q0 -16 12 -29t23 -19t39 -20q33 -16 51 -26q18 -11 40 -27t30 -36q10 -20 10 -47q0 -45 -39 -79t-99 -34q-72 0 -130 45z"/>
<glyph glyph-name="Scircumflex" horiz-adv-x="533" unicode="Ŝ" d="M148 775l-14 18q-7 10 6 19l120 94q5 4 13 4t13 -4l120 -94q13 -9 6 -19q-4 -11 -14 -21t-23 -1l-102 70l-102 -68q-15 -10 -23 2zM63 71q-11 9 -11 19q0 7 5 15q3 3 8 9t7 10q11 15 22 15q7 0 13 -6q89 -76 169 -76q58 0 96 32t38 78q0 49 -42 85t-133 73 q-92 39 -134 83t-42 124q-1 28 11 57t36 57t66 46q44 18 100 18q44 0 86 -13t64 -25l21 -13q7 -3 10 -11t-4 -23l-6 -9t-6 -10q-9 -13 -21 -13q-7 0 -14 4q-80 46 -131 46q-71 0 -105 -35t-33 -75q-1 -49 33 -81t102 -60q114 -47 168 -94t54 -128q0 -76 -64 -128t-152 -52 q-52 0 -104 20t-72 34t-35 27z"/>
<glyph glyph-name="scircumflex" horiz-adv-x="356" unicode="ŝ" d="M59 555l-14 18q-2 4 -2 7q0 6 8 12l120 94q5 4 13 4t13 -4l120 -94q8 -6 8 -12q0 -3 -2 -7q-4 -11 -14 -21t-23 -1l-102 70l-102 -68q-15 -10 -23 2zM52 35q-10 8 -5 21q1 3 7 13t7 12q9 14 27 3l12 -9q12 -9 36 -17t46 -9q30 -1 48 13t17 35q0 23 -19 39t-69 41 q-33 16 -55 30q-22 15 -40 41q-19 26 -19 58q0 38 32 71t95 33q66 0 111 -31q10 -7 10 -17q0 -6 -4 -14l-8 -16q-7 -12 -17 -12q-5 0 -12 3l-28 12q-29 12 -52 12q-30 0 -44 -12t-13 -28q0 -16 12 -29t23 -19t39 -20q33 -16 51 -26q18 -11 40 -27t30 -36q10 -20 10 -47 q0 -45 -39 -79t-99 -34q-72 0 -130 45z"/>
<glyph glyph-name="Scedilla" horiz-adv-x="534" unicode="Ş" d="M64 71q-11 9 -11 19q0 7 5 15l15 19q11 15 22 15q7 0 13 -6q89 -76 169 -76q59 0 97 32t37 78q1 49 -41 85t-134 73q-92 39 -134 83t-42 124q0 28 12 57t34 57q24 28 68 46t99 18q45 0 87 -13t63 -25l21 -13q7 -3 10 -11t-4 -23l-12 -19q-9 -13 -21 -13q-7 0 -14 4 q-81 46 -131 46q-70 0 -104 -35t-34 -75q0 -49 34 -81t101 -60q115 -47 169 -94t53 -128q0 -74 -58 -124t-142 -55v-44q47 -5 76 -33t29 -70q0 -44 -30 -74t-75 -30q-46 0 -76 35q-14 16 0 26l14 11q14 10 23 0q17 -18 41 -18q20 0 32 13t12 34t-15 35t-30 20q-15 4 -38 8 q-17 3 -17 20v69q-43 5 -85 23t-60 32q-18 13 -28 23z"/>
<glyph glyph-name="scedilla" horiz-adv-x="358" unicode="ş" d="M53 35q-10 8 -5 21q2 3 8 13t6 12q9 14 27 3l12 -9q11 -9 35 -17t47 -9q29 -1 47 13t18 35q0 23 -19 39t-69 41q-32 16 -54 30q-22 15 -41 41t-19 58q0 38 32 71t95 33q66 0 111 -31q10 -7 10 -17q0 -6 -4 -14l-8 -16q-7 -12 -17 -12q-5 0 -12 3l-29 12q-28 12 -51 12 q-29 0 -43 -12t-14 -28t12 -29t23 -19t39 -20q33 -16 51 -26q17 -11 39 -27t32 -36t9 -47q-1 -42 -35 -75t-88 -37v-44q47 -5 76 -33t29 -70q-1 -44 -31 -74t-74 -30q-46 0 -76 35q-14 16 0 26l14 11q14 10 23 0q17 -18 41 -18q20 0 32 13t12 34t-15 35t-30 20q-15 4 -38 8 q-17 3 -17 20v70q-51 8 -91 41z"/>
<glyph glyph-name="Scaron" horiz-adv-x="533" unicode="Š" d="M273 768q-8 0 -13 4l-120 94q-13 9 -6 19l14 18q4 7 11 7q5 0 12 -5l102 -68l102 70q7 5 12 5q6 0 11 -7l14 -20q4 -5 1 -11t-9 -10t-11 -8l-107 -84q-5 -4 -13 -4zM63 71q-11 9 -11 19q0 7 5 15q3 3 8 9t7 10q11 15 22 15q7 0 13 -6q89 -76 169 -76q58 0 96 32t38 78 q0 49 -42 85t-133 73q-92 39 -134 83t-42 124q-1 28 11 57t36 57t66 46q44 18 100 18q44 0 86 -13t64 -25l21 -13q7 -3 10 -11t-4 -23l-6 -9t-6 -10q-9 -13 -21 -13q-7 0 -14 4q-80 46 -131 46q-71 0 -105 -35t-33 -75q-1 -49 33 -81t102 -60q114 -47 168 -94t54 -128 q0 -76 -64 -128t-152 -52q-52 0 -104 20t-72 34t-35 27z"/>
<glyph glyph-name="scaron" horiz-adv-x="356" unicode="š" d="M174 546l-120 94q-13 9 -6 19l14 18q4 7 11 7q5 0 12 -5l102 -68l102 70q7 5 12 5q6 0 11 -7l14 -20q2 -3 2 -6t-1 -5q-3 -6 -9 -10t-11 -8l-107 -84q-5 -4 -13 -4t-13 4zM52 35q-10 8 -5 21q1 3 7 13t7 12q9 14 27 3l12 -9q12 -9 36 -17t46 -9q30 -1 48 13t17 35 q0 23 -19 39t-69 41q-33 16 -55 30q-22 15 -40 41q-19 26 -19 58q0 38 32 71t95 33q66 0 111 -31q10 -7 10 -17q0 -6 -4 -14l-8 -16q-7 -12 -17 -12q-5 0 -12 3l-28 12q-29 12 -52 12q-30 0 -44 -12t-13 -28q0 -16 12 -29t23 -19t39 -20q33 -16 51 -26q18 -11 40 -27t30 -36 q10 -20 10 -47q0 -45 -39 -79t-99 -34q-72 0 -130 45z"/>
<glyph glyph-name="Tcommaaccent" horiz-adv-x="478" unicode="Ţ" d="M236 -92q66 0 66 -90q0 -56 -26 -106t-58 -79q-8 -7 -14 -7q-5 0 -10 5l-14 14q-10 10 6 24q62 56 62 126q-4 -1 -12 -1q-23 0 -40 17t-17 40q0 25 17 41t40 16zM201 19v614h-174q-7 -1 -13 5t-6 14v29q0 7 6 13t13 6h424q7 0 13 -6t6 -13v-29q0 -8 -6 -14t-13 -5h-174 v-614q1 -7 -5 -13t-14 -6h-38q-8 0 -14 6t-5 13z"/>
<glyph glyph-name="tcommaaccent" horiz-adv-x="343" unicode="ţ" d="M184 -92q66 0 66 -90q0 -56 -26 -106t-58 -79q-8 -7 -14 -7q-5 0 -10 5l-14 14q-10 10 6 24q62 56 62 126q-4 -1 -12 -1q-23 0 -40 17t-17 40q0 25 17 41t40 16zM97 100v240h-51q-8 0 -14 6t-5 13v22q0 19 19 19h51v111q-1 7 5 13t14 6l32 2q6 0 12 -6t6 -13v-113h116 q19 0 19 -19v-22q1 -7 -5 -13t-14 -6h-116v-234q0 -28 8 -38t25 -10q32 0 73 22q15 8 24 -6l15 -25q3 -5 3 -10q0 -8 -10 -15q-16 -10 -50 -22t-65 -12q-55 0 -73 28t-19 82z"/>
<glyph glyph-name="Tcaron" horiz-adv-x="478" unicode="Ť" d="M238 768q-8 0 -13 4l-120 94q-13 9 -6 19l14 18q4 7 11 7q5 0 12 -5l102 -68l102 70q7 5 12 5q6 0 11 -7l14 -20q4 -5 1 -11q-4 -6 -10 -10t-10 -8l-107 -84q-5 -4 -13 -4zM201 19v614h-174q-7 -1 -13 5t-6 14v29q0 7 6 13t13 6h424q7 0 13 -6t6 -13v-29q0 -8 -6 -14 t-13 -5h-174v-614q1 -7 -5 -13t-14 -6h-38q-8 0 -14 6t-5 13z"/>
<glyph glyph-name="tcaron" horiz-adv-x="342" unicode="ť" d="M372 434l-14 14q-10 10 6 24q62 56 62 126q-4 -1 -12 -1q-23 0 -40 17t-17 40q0 24 17 40t40 17q66 0 66 -90q0 -56 -26 -106t-58 -79q-14 -12 -24 -2zM97 100v240h-51q-8 0 -14 6t-5 13v22q0 19 19 19h51v111q-1 7 5 13t14 6l32 2q6 0 12 -6t6 -13v-113h116q19 0 19 -19 v-22q1 -7 -5 -13t-14 -6h-116v-234q0 -28 8 -38t25 -10q32 0 73 22q15 8 24 -6l15 -25q3 -5 3 -10q0 -8 -10 -15q-16 -10 -50 -22t-65 -12q-55 0 -73 28t-19 82z"/>
<glyph glyph-name="Tbar" horiz-adv-x="478" unicode="Ŧ" d="M201 19v276h-104q-7 -1 -13 5t-5 14v7q-1 7 5 13t13 6h104v293h-174q-7 -1 -13 5t-6 14v29q0 7 6 13t13 6h424q7 0 13 -6t6 -13v-29q0 -8 -6 -14t-13 -5h-174v-293h104q7 0 13 -6t6 -13v-8q0 -8 -6 -13t-13 -5h-104v-276q1 -7 -5 -13t-14 -6h-38q-8 0 -14 6t-5 13z"/>
<glyph glyph-name="tbar" horiz-adv-x="342" unicode="ŧ" d="M97 100v73h-41q-6 -1 -12 5t-6 14v7q0 7 6 13t12 6h41v122h-51q-8 0 -14 6t-5 13v22q0 19 19 19h51v111q-1 7 5 13t14 6l32 2q6 0 12 -6t6 -13v-113h116q19 0 19 -19v-22q1 -7 -5 -13t-14 -6h-116v-122h94q8 0 14 -6t5 -13v-8q1 -8 -5 -13t-14 -5h-94v-67q0 -28 8 -38 t25 -10q32 0 73 22q15 8 24 -6l15 -25q3 -5 3 -10q0 -8 -10 -15q-16 -10 -50 -22t-65 -12q-55 0 -73 28t-19 82z"/>
<glyph glyph-name="Utilde" horiz-adv-x="716" unicode="Ũ" d="M237 795l-18 9q-11 6 -4 22q7 12 13 30t28 36t51 18q27 0 47 -18t36 -38q16 -18 27 -18q30 0 45 51q5 16 23 8l16 -8q10 -5 4 -26q-28 -81 -89 -81q-24 0 -46 19t-37 37q-16 18 -27 19q-12 0 -22 -9q-10 -10 -14 -18t-8 -23q-4 -13 -14 -13q-5 0 -11 3zM93 258v423 q-1 7 5 13t14 6h38q8 0 14 -6t5 -13v-417q0 -88 51 -146t137 -57q87 0 139 57t51 144v419q-1 7 5 13t14 6h38q8 0 14 -6t5 -13v-423q-1 -116 -75 -192t-191 -76q-116 0 -190 76t-74 192z"/>
<glyph glyph-name="utilde" horiz-adv-x="485" unicode="ũ" d="M120 575l-18 9q-11 6 -4 22q7 12 13 30q5 18 27 36t52 18q26 0 46 -18t36 -38q16 -18 28 -18q30 0 45 51q5 16 23 8l16 -8q10 -5 4 -26q-28 -81 -89 -81q-23 0 -45 19t-38 37t-27 19q-12 0 -22 -9q-9 -10 -13 -18t-9 -23q-4 -13 -14 -13q-5 0 -11 3zM66 171v210q0 7 6 13 t13 6h32q7 0 13 -6t6 -13v-211q0 -56 24 -84t66 -29q34 1 64 15t42 28l13 14v267q-1 7 5 13t14 6h31q7 0 13 -6t6 -13v-362q0 -7 -6 -13t-13 -6h-19q-13 0 -18 17l-7 26l-14 -13q-15 -14 -47 -27t-69 -13q-155 0 -155 181z"/>
<glyph glyph-name="Umacron" horiz-adv-x="716" unicode="Ū" d="M229 821q-7 0 -13 5t-6 13v21q0 19 19 19h256q19 0 19 -19v-21q0 -8 -6 -13t-13 -5h-256zM93 258v423q-1 7 5 13t14 6h38q8 0 14 -6t5 -13v-417q0 -88 51 -146t137 -57q87 0 139 57t51 144v419q-1 7 5 13t14 6h38q8 0 14 -6t5 -13v-423q-1 -116 -75 -192t-191 -76 q-116 0 -190 76t-74 192z"/>
<glyph glyph-name="umacron" horiz-adv-x="485" unicode="ū" d="M113 583q-7 0 -13 5t-6 13v21q0 19 19 19h256q19 0 19 -19v-21q0 -8 -6 -13t-13 -5h-256zM66 171v210q0 7 6 13t13 6h32q7 0 13 -6t6 -13v-211q0 -56 24 -84t66 -29q34 1 64 15t42 28l13 14v267q-1 7 5 13t14 6h31q7 0 13 -6t6 -13v-362q0 -7 -6 -13t-13 -6h-19 q-13 0 -18 17l-7 26l-14 -13q-15 -14 -47 -27t-69 -13q-155 0 -155 181z"/>
<glyph glyph-name="Ubreve" horiz-adv-x="716" unicode="Ŭ" d="M356 771q-52 1 -90 33t-45 81q-4 20 14 20h21q13 0 19 -17q8 -28 30 -46t51 -18q26 0 48 18t31 46q6 17 19 17h23q18 0 14 -20q-8 -49 -46 -81t-89 -33zM93 258v423q-1 7 5 13t14 6h38q8 0 14 -6t5 -13v-417q0 -88 51 -146t137 -57q87 0 139 57t51 144v419q-1 7 5 13 t14 6h38q8 0 14 -6t5 -13v-423q-1 -116 -75 -192t-191 -76q-116 0 -190 76t-74 192z"/>
<glyph glyph-name="ubreve" horiz-adv-x="485" unicode="ŭ" d="M245 531q-52 1 -90 33t-45 81q-4 20 14 20h21q13 0 19 -17q8 -28 30 -46t51 -18q27 0 49 18t30 46q6 17 19 17h23q18 0 14 -20q-8 -49 -46 -81t-89 -33zM66 171v210q0 7 6 13t13 6h32q7 0 13 -6t6 -13v-211q0 -56 24 -84t66 -29q34 1 64 15t42 28l13 14v267q-1 7 5 13 t14 6h31q7 0 13 -6t6 -13v-362q0 -7 -6 -13t-13 -6h-19q-13 0 -18 17l-7 26l-14 -13q-15 -14 -47 -27t-69 -13q-155 0 -155 181z"/>
<glyph glyph-name="Uring" horiz-adv-x="716" unicode="Ů" d="M356 806q24 0 42 18t17 43q1 23 -17 41t-42 18t-42 -18t-19 -41q1 -25 19 -43t42 -18zM356 758q-46 0 -78 32t-31 77q-1 45 31 77t78 32q45 0 77 -32t32 -77t-32 -77t-77 -32zM93 258v423q-1 7 5 13t14 6h38q8 0 14 -6t5 -13v-417q0 -88 51 -146t137 -57q87 0 139 57 t51 144v419q-1 7 5 13t14 6h38q8 0 14 -6t5 -13v-423q-1 -116 -75 -192t-191 -76q-116 0 -190 76t-74 192z"/>
<glyph glyph-name="uring" horiz-adv-x="485" unicode="ů" d="M244 540q24 0 42 18t17 43q1 23 -17 41t-42 18t-42 -18t-19 -41q1 -25 19 -43t42 -18zM244 492q-46 0 -78 32t-31 77q-1 45 31 77t78 32q45 0 77 -32t32 -77t-32 -77t-77 -32zM66 171v210q0 7 6 13t13 6h32q7 0 13 -6t6 -13v-211q0 -56 24 -84t66 -29q34 1 64 15t42 28 l13 14v267q-1 7 5 13t14 6h31q7 0 13 -6t6 -13v-362q0 -7 -6 -13t-13 -6h-19q-13 0 -18 17l-7 26l-14 -13q-15 -14 -47 -27t-69 -13q-155 0 -155 181z"/>
<glyph glyph-name="Uhungarumlaut" horiz-adv-x="716" unicode="Ű" d="M279 769q-9 0 -15 6t-4 13l50 141q6 19 19 19h39q14 0 19 -8t-1 -17l-78 -139q-8 -15 -18 -15h-11zM445 769q-9 0 -15 6t-4 13l50 141q6 19 19 19h39q14 0 19 -8t-1 -17l-78 -139q-8 -15 -18 -15h-11zM93 258v423q-1 7 5 13t14 6h38q8 0 14 -6t5 -13v-417q0 -88 51 -146 t137 -57q87 0 139 57t51 144v419q-1 7 5 13t14 6h38q8 0 14 -6t5 -13v-423q-1 -116 -75 -192t-191 -76q-116 0 -190 76t-74 192z"/>
<glyph glyph-name="uhungarumlaut" horiz-adv-x="485" unicode="ű" d="M160 521q-8 0 -14 6t-5 13l50 141q6 19 19 19h39q14 0 19 -8t-1 -17l-78 -139q-7 -15 -18 -15h-11zM326 521q-8 0 -14 6t-5 13l50 141q6 19 19 19h39q14 0 19 -8q2 -3 2 -7q0 -5 -3 -10l-78 -139q-7 -15 -18 -15h-11zM66 171v210q0 7 6 13t13 6h32q7 0 13 -6t6 -13v-211 q0 -56 24 -84t66 -29q34 1 64 15t42 28l13 14v267q-1 7 5 13t14 6h31q7 0 13 -6t6 -13v-362q0 -7 -6 -13t-13 -6h-19q-13 0 -18 17l-7 26l-14 -13q-15 -14 -47 -27t-69 -13q-155 0 -155 181z"/>
<glyph glyph-name="Uogonek" horiz-adv-x="720" unicode="Ų" d="M95 258v423q-1 7 5 13t14 6h38q8 0 14 -6t5 -13v-417q0 -88 51 -146t137 -57q87 0 139 57t51 144v419q-1 7 5 13t14 6h38q8 0 14 -6t5 -13v-423q0 -109 -67 -184t-175 -83q-39 -41 -39 -90q0 -25 17 -41t40 -16q25 0 55 16q6 3 12 -1t6 -13v-25q0 -9 -14 -17 q-30 -15 -70 -15q-46 0 -76 26t-30 76q0 56 45 101q-104 10 -169 84t-65 182z"/>
<glyph glyph-name="uogonek" horiz-adv-x="485" unicode="ų" d="M66 171v210q0 7 6 13t13 6h32q7 0 13 -6t6 -13v-211q0 -56 24 -84t66 -29q34 1 64 15t42 28l13 14v267q-1 7 5 13t14 6h31q7 0 13 -6t6 -13v-362q0 -15 -15 -19q-48 -42 -48 -99q0 -25 17 -41t40 -16q25 0 55 16q6 3 12 -1t6 -13v-25q0 -9 -14 -17q-30 -15 -70 -15 q-45 0 -75 26t-31 76q-1 34 17 64t35 43l17 13l-9 32l-14 -13q-15 -14 -47 -27t-69 -13q-155 0 -155 181z"/>
<glyph glyph-name="Wcircumflex" horiz-adv-x="902" unicode="Ŵ" d="M325 775l-14 18q-7 10 6 19l120 94q5 4 13 4t13 -4l120 -94q13 -9 6 -19q-4 -11 -14 -21t-23 -1l-102 70l-102 -68q-15 -10 -23 2zM226 4l-189 672q-1 4 -1 7q0 6 3 10q5 7 16 7h42q14 0 18 -14l139 -518h4l167 531q4 11 17 11h18q13 0 17 -11l170 -531h4l136 518 q4 14 18 14h42q11 0 16 -7q3 -4 3 -10q0 -3 -1 -7l-189 -672q-4 -14 -18 -14h-16q-12 0 -17 11l-173 541h-5l-170 -541q-5 -11 -17 -11h-16q-14 0 -18 14z"/>
<glyph glyph-name="wcircumflex" horiz-adv-x="604" unicode="ŵ" d="M176 555l-14 18q-7 10 6 19l120 94q5 4 13 4t13 -4l120 -94q13 -9 6 -19q-4 -11 -14 -21t-23 -1l-102 70l-102 -68q-15 -10 -23 2zM144 0l-111 377q-2 6 -2 10q0 13 17 13h31q14 0 18 -11l73 -264h1l113 275q4 10 17 10h5q13 0 17 -10l112 -276h1l72 265q4 11 17 11h31 q17 0 17 -13q0 -4 -2 -10l-109 -377q-3 -10 -17 -10h-5q-13 0 -17 10l-122 300l-118 -300q-4 -10 -17 -10h-5q-14 0 -17 10z"/>
<glyph glyph-name="Ycircumflex" horiz-adv-x="565" unicode="Ŷ" d="M158 775l-14 18q-7 10 6 19l120 94q5 4 13 4t13 -4l120 -94q13 -9 6 -19q-4 -11 -14 -21t-23 -1l-102 70l-102 -68q-15 -10 -23 2zM243 19v318l-241 334q-3 5 -3 11q0 4 2 8q5 10 17 10h47q9 0 16 -9l202 -279l202 279q7 9 16 9h47q12 0 17 -10q2 -4 2 -8q0 -5 -3 -11 l-244 -333v-319q0 -7 -6 -13t-13 -6h-39q-8 0 -14 6t-5 13z"/>
<glyph glyph-name="ycircumflex" horiz-adv-x="466" unicode="ŷ" d="M114 555l-14 18q-7 10 6 19l120 94q5 4 13 4t13 -4l120 -94q13 -9 6 -19q-4 -11 -14 -21t-23 -1l-102 70l-102 -68q-15 -10 -23 2zM200 1l-186 377q-3 5 -3 9q1 4 3 7q4 6 15 6h44q11 0 17 -11l148 -306h1l140 306q5 11 17 11h38q12 0 16 -6q2 -3 2 -7t-3 -10l-307 -665 q-6 -12 -17 -12h-37q-11 0 -16 7t0 18z"/>
<glyph glyph-name="Ydieresis" horiz-adv-x="565" unicode="Ÿ" d="M177 792q-19 0 -33 14t-14 33q0 20 14 34t33 14q20 0 34 -14t14 -34q0 -19 -14 -33t-34 -14zM388 792q-20 0 -34 14t-13 33q-1 20 13 34t34 14t34 -14t14 -34q0 -19 -14 -33t-34 -14zM243 19v318l-241 334q-3 5 -3 11q0 4 2 8q5 10 17 10h47q9 0 16 -9l202 -279l202 279 q7 9 16 9h47q12 0 17 -10q2 -4 2 -8q0 -5 -3 -11l-244 -333v-319q0 -7 -6 -13t-13 -6h-39q-8 0 -14 6t-5 13z"/>
<glyph glyph-name="Zacute" horiz-adv-x="534" unicode="Ź" d="M205 783l-10 22q-6 13 6 19l150 84q4 4 11 4h2q10 0 13 -7l18 -36q8 -16 -6 -21l-161 -67q-18 -8 -23 2zM30 19v18l363 590v3h-315q-8 0 -14 6t-5 13v32q-1 7 5 13t14 6h405q7 0 13 -6t6 -13v-13l-369 -597v-1h330q7 0 13 -6t6 -13v-32q0 -7 -6 -13t-13 -6h-414 q-7 0 -13 6t-6 13z"/>
<glyph glyph-name="zacute" horiz-adv-x="365" unicode="ź" d="M95 561l-10 22q-6 13 6 19l150 84q4 4 11 4h2q10 0 13 -7l18 -36q8 -16 -6 -21l-161 -67q-18 -8 -23 2zM36 19v10l196 305v3h-168q-6 -1 -12 5t-6 14v25q0 7 5 13t13 6h251q11 0 17 -8q3 -4 3 -9t-3 -10l-191 -307v-3h154q19 0 19 -19v-25q0 -7 -6 -13t-13 -6h-240 q-7 0 -13 6t-6 13z"/>
<glyph glyph-name="Zdotaccent" horiz-adv-x="534" unicode="Ż" d="M285 796q-23 0 -40 17t-17 40q0 25 17 41t40 16q25 0 41 -16t16 -41q0 -23 -16 -40t-41 -17zM30 19v18l363 590v3h-315q-8 0 -14 6t-5 13v32q-1 7 5 13t14 6h405q7 0 13 -6t6 -13v-13l-369 -597v-1h330q7 0 13 -6t6 -13v-32q0 -7 -6 -13t-13 -6h-414q-7 0 -13 6t-6 13z "/>
<glyph glyph-name="zdotaccent" horiz-adv-x="365" unicode="ż" d="M190 566q-23 0 -40 17t-17 40q0 25 17 41t40 16q24 0 40 -16t17 -41q-1 -23 -17 -40t-40 -17zM36 19v10l196 305v3h-168q-6 -1 -12 5t-6 14v25q0 7 5 13t13 6h251q11 0 17 -8q3 -4 3 -9t-3 -10l-191 -307v-3h154q19 0 19 -19v-25q0 -7 -6 -13t-13 -6h-240q-7 0 -13 6 t-6 13z"/>
<glyph glyph-name="Zcaron" horiz-adv-x="534" unicode="Ž" d="M285 768q-8 0 -13 4l-120 94q-13 9 -6 19l14 18q4 7 11 7q5 0 12 -5l102 -68l102 70q7 5 12 5q6 0 11 -7l14 -20q4 -5 1 -11t-9 -10t-11 -8l-107 -84q-5 -4 -13 -4zM30 19v18l363 590v3h-315q-8 0 -14 6t-5 13v32q-1 7 5 13t14 6h405q7 0 13 -6t6 -13v-13l-369 -597v-1 h330q7 0 13 -6t6 -13v-32q0 -7 -6 -13t-13 -6h-414q-7 0 -13 6t-6 13z"/>
<glyph glyph-name="zcaron" horiz-adv-x="365" unicode="ž" d="M177 546l-120 94q-13 9 -6 19l14 18q4 7 11 7q5 0 12 -5l102 -68l102 70q7 5 12 5q6 0 11 -7l14 -20q4 -5 1 -11q-4 -6 -10 -10t-10 -8l-107 -84q-5 -4 -13 -4t-13 4zM36 19v10l196 305v3h-168q-6 -1 -12 5t-6 14v25q0 7 5 13t13 6h251q11 0 17 -8q3 -4 3 -9t-3 -10 l-191 -307v-3h154q19 0 19 -19v-25q0 -7 -6 -13t-13 -6h-240q-7 0 -13 6t-6 13z"/>
<glyph glyph-name="florin" horiz-adv-x="323" unicode="ƒ" d="M103 -140v480h-61q-8 0 -14 6t-5 13v22q0 19 19 19h61v140q1 82 43 126t110 44q67 0 110 -41q7 -6 7 -13q0 -5 -3 -10l-16 -26q-9 -15 -26 -1q-38 29 -73 29q-37 0 -60 -26t-23 -82v-140h116q19 0 19 -19v-22q1 -7 -5 -13t-14 -6h-116v-480q0 -82 -42 -126t-111 -44 q-67 0 -110 41q-7 6 -7 13q0 5 3 10l16 26q9 15 26 1q38 -29 73 -29q37 0 60 26t23 82z"/>
<glyph glyph-name="Aringacute" horiz-adv-x="663" unicode="Ǻ" d="M181 238h300l-146 328h-8zM331 712q23 0 41 18t18 43q0 23 -18 41t-41 18q-25 0 -43 -18t-18 -41q0 -25 18 -43t43 -18zM23 0q-11 0 -17 8q-3 4 -2 9q0 4 2 9l290 643q-34 11 -54 39t-20 65q0 45 32 77t77 32t77 -32t32 -77q0 -36 -20 -64t-53 -39l289 -644q2 -5 2 -9 q0 -5 -2 -9q-6 -8 -17 -8h-40q-13 0 -17 11l-74 165h-355l-73 -165q-4 -11 -17 -11h-40zM241 903l-10 22q-2 4 -2 8q0 7 8 11l150 84q4 4 11 4h2q10 0 13 -7l18 -36q3 -6 3 -10q0 -8 -9 -11l-161 -67q-8 -4 -13 -4q-7 0 -10 6z"/>
<glyph glyph-name="aringacute" horiz-adv-x="419" unicode="ǻ" d="M109 665l-10 22q-6 13 6 19l150 84q4 4 11 4h2q10 0 13 -7l18 -36q8 -16 -6 -21l-161 -67q-18 -8 -23 2zM203 484q23 0 41 18t18 43q0 23 -18 41t-41 18q-25 0 -43 -18t-18 -41q0 -25 18 -43t43 -18zM203 436q-45 0 -77 32t-32 77t32 77t77 32t77 -32t32 -77t-32 -77 t-77 -32zM106 121q0 -31 19 -51t51 -20q35 0 65 18t45 38v79q-27 16 -84 16q-44 0 -70 -21t-26 -59zM42 121q0 59 42 96t118 37q27 0 56 -6l29 -7v9q1 53 -11 75q-12 24 -54 24q-63 0 -120 -22q-14 -6 -19 10l-8 25q-5 15 11 22q6 3 22 8q16 6 49 12q34 6 68 6q75 0 101 -38 t26 -131v-222q0 -7 -6 -13t-13 -6h-19q-12 0 -17 15l-8 27q-52 -52 -124 -52q-53 0 -88 36t-35 95z"/>
<glyph glyph-name="AEacute" horiz-adv-x="897" unicode="Ǽ" d="M525 784l-10 22q-6 13 6 19l150 84q4 4 11 4q0 -1 2 -1q10 0 13 -6l18 -36q8 -16 -6 -21l-161 -67q-18 -8 -23 2zM206 238h201v328zM6 0q-10 0 -14 8l-2 6q0 6 4 12l401 643q4 6 7 11q2 4 6 8t8 6t10 4t13 2h381q8 0 14 -6t5 -13v-29q1 -8 -5 -14t-14 -5h-342v-244h293 q7 1 13 -5t6 -14v-29q0 -7 -6 -13t-13 -6h-293v-255h342q8 1 14 -5t5 -14v-29q1 -7 -5 -13t-14 -6h-394q-8 0 -14 6t-5 13v157h-237l-104 -165q-9 -11 -19 -11h-41z"/>
<glyph glyph-name="aeacute" horiz-adv-x="690" unicode="ǽ" d="M294 561l-10 22q-6 13 6 19l150 84q4 4 11 4h3q10 0 12 -7l18 -36q8 -16 -6 -21l-161 -67q-18 -8 -23 2zM106 122q0 -36 24 -54t57 -18q31 0 57 15t40 36v89l-24 4q-25 5 -59 5q-39 -1 -67 -21t-28 -56zM354 240h230q-2 46 -34 77t-79 31q-37 0 -69 -19t-48 -48v-41z M43 124q-1 57 39 93t109 36q33 0 62 -3l29 -3v10q0 52 -10 72q-10 22 -46 22q-55 0 -127 -24q-17 -5 -21 14l-5 25q-3 15 16 20l47 12q46 12 93 12q86 0 109 -55q57 55 134 55q76 0 128 -51t52 -132q0 -44 -20 -44h-280v-61q18 -31 52 -49t74 -18q53 0 99 28q13 7 16 8 t12 -6l17 -23q6 -8 6 -13t-10 -13q-61 -46 -147 -46q-98 0 -151 71q-22 -29 -62 -50t-84 -21q-59 0 -95 36t-36 98z"/>
<glyph glyph-name="Oslashacute" horiz-adv-x="821" unicode="Ǿ" d="M330 783l-10 22q-6 13 6 19l150 84q4 4 11 4h3q10 0 12 -7l18 -36q8 -16 -6 -21l-161 -67q-18 -8 -23 2zM223 129q80 -69 187 -69q118 0 204 85t86 204q0 108 -70 188zM192 160l408 409q-82 71 -190 71q-119 0 -204 -86t-85 -205q0 -107 71 -189zM81 22q-13 14 -1 26 l61 61q-90 103 -90 240q1 149 105 255t254 106q136 0 240 -91l63 63q13 13 26 0l5 -5q13 -13 0 -26l-63 -63q89 -104 89 -239q0 -151 -105 -255t-255 -104q-137 0 -238 88l-61 -61q-5 -5 -13 -5t-13 6z"/>
<glyph glyph-name="oslashacute" horiz-adv-x="480" unicode="ǿ" d="M150 561l-10 22q-6 13 6 19l150 84q4 4 11 4h3q10 0 12 -7l18 -36q8 -16 -6 -21l-161 -67q-18 -8 -23 2zM160 85q35 -30 81 -30q53 0 91 43t38 104q0 42 -20 76zM132 120l190 193q-34 31 -81 31q-55 0 -92 -42t-37 -100q0 -47 20 -82zM68 29q-14 13 -1 26l16 16 q-40 58 -40 131q-1 84 57 146t141 62q73 0 128 -50l21 21q7 7 14 7t13 -7l5 -5q6 -5 6 -13t-6 -13l-23 -23q40 -56 40 -125q1 -88 -57 -150t-141 -62q-74 0 -128 48l-14 -14q-12 -13 -27 0z"/>
<glyph glyph-name="Scommaaccent" horiz-adv-x="533" unicode="Ș" d="M275 -92q66 0 66 -90q-1 -56 -27 -106t-57 -79q-8 -7 -14 -7q-5 0 -10 5l-14 14q-10 10 6 24q62 56 62 126q-4 -1 -12 -1q-23 0 -40 17t-17 40q0 25 17 41t40 16zM63 71q-11 9 -11 19q0 7 5 15q3 3 8 9t7 10q11 15 22 15q7 0 13 -6q89 -76 169 -76q58 0 96 32t38 78 q0 49 -42 85t-133 73q-92 39 -134 83t-42 124q-1 28 11 57t36 57t66 46q44 18 100 18q44 0 86 -13t64 -25l21 -13q7 -3 10 -11t-4 -23l-6 -9t-6 -10q-9 -13 -21 -13q-7 0 -14 4q-80 46 -131 46q-71 0 -105 -35t-33 -75q-1 -49 33 -81t102 -60q114 -47 168 -94t54 -128 q0 -76 -64 -128t-152 -52q-52 0 -104 20t-72 34t-35 27z"/>
<glyph glyph-name="scommaaccent" horiz-adv-x="356" unicode="ș" d="M180 -92q66 0 66 -90q0 -56 -26 -106t-58 -79q-8 -7 -14 -7q-5 0 -10 5l-14 14q-10 10 6 24q62 56 62 126q-4 -1 -12 -1q-23 0 -40 17t-17 40q0 25 17 41t40 16zM52 35q-10 8 -5 21q1 3 7 13t7 12q9 14 27 3l12 -9q12 -9 36 -17t46 -9q30 -1 48 13t17 35q0 23 -19 39 t-69 41q-33 16 -55 30q-22 15 -40 41q-19 26 -19 58q0 38 32 71t95 33q66 0 111 -31q10 -7 10 -17q0 -6 -4 -14l-8 -16q-7 -12 -17 -12q-5 0 -12 3l-28 12q-29 12 -52 12q-30 0 -44 -12t-13 -28q0 -16 12 -29t23 -19t39 -20q33 -16 51 -26q18 -11 40 -27t30 -36 q10 -20 10 -47q0 -45 -39 -79t-99 -34q-72 0 -130 45z"/>
<glyph glyph-name="uni021A" horiz-adv-x="478" unicode="Ț" d="M237 -92q66 0 66 -90q-1 -56 -27 -106t-57 -79q-8 -7 -14 -7q-5 0 -10 5l-14 14q-10 10 6 24q62 56 62 126q-4 -1 -12 -1q-23 0 -40 17t-17 40q0 25 17 41t40 16zM201 19v614h-174q-7 -1 -13 5t-6 14v29q0 7 6 13t13 6h424q7 0 13 -6t6 -13v-29q0 -8 -6 -14t-13 -5h-174 v-614q1 -7 -5 -13t-14 -6h-38q-8 0 -14 6t-5 13z"/>
<glyph glyph-name="uni021B" horiz-adv-x="343" unicode="ț" d="M184 -92q66 0 66 -90q0 -56 -26 -106t-58 -79q-8 -7 -14 -7q-5 0 -10 5l-14 14q-10 10 6 24q62 56 62 126q-4 -1 -12 -1q-23 0 -40 17t-17 40q0 25 17 41t40 16zM97 100v240h-51q-8 0 -14 6t-5 13v22q0 19 19 19h51v111q-1 7 5 13t14 6l32 2q6 0 12 -6t6 -13v-113h116 q19 0 19 -19v-22q1 -7 -5 -13t-14 -6h-116v-234q0 -28 8 -38t25 -10q32 0 73 22q15 8 24 -6l15 -25q3 -5 3 -10q0 -8 -10 -15q-16 -10 -50 -22t-65 -12q-55 0 -73 28t-19 82z"/>
<glyph glyph-name="dotlessj" horiz-adv-x="213" unicode="ȷ" d="M72 -140v521q0 7 6 13t13 6h31q8 0 14 -6t5 -13v-521q-1 -82 -43 -126t-110 -44q-67 0 -110 41q-7 6 -7 13q0 5 3 10l16 26q9 15 26 1q38 -29 73 -29q37 0 60 26t23 82z"/>
<glyph glyph-name="circumflex" horiz-adv-x="373" unicode="ˆ" d="M60 555l-14 18q-2 4 -2 7q0 6 8 12l120 94q5 4 13 4t13 -4l120 -94q8 -6 8 -12q0 -3 -2 -7q-4 -11 -14 -21q-5 -5 -11 -5q-5 0 -12 4l-102 70l-102 -68q-7 -5 -12 -5q-7 0 -11 7z"/>
<glyph glyph-name="caron" horiz-adv-x="373" unicode="ˇ" d="M172 546l-120 94q-8 6 -8 12q0 3 2 7l14 18q4 7 11 7q5 0 12 -5l102 -68l102 70q7 5 12 5q6 0 11 -7l14 -20q2 -3 2 -6t-1 -5q-3 -6 -9 -10t-11 -8l-107 -84q-5 -4 -13 -4t-13 4z"/>
<glyph glyph-name="uni02C9" horiz-adv-x="414" unicode="ˉ" d="M79 583q-7 0 -13 5t-6 13v21q0 19 19 19h256q19 0 19 -19v-21q0 -8 -6 -13t-13 -5h-256z"/>
<glyph glyph-name="breve" horiz-adv-x="346" unicode="˘" d="M173 531q-52 1 -90 33t-45 81q-1 4 -1 7q0 13 15 13h21q13 0 19 -17q8 -28 30 -46t51 -18q27 0 49 18t30 46q6 17 19 17h23q15 0 15 -13q0 -3 -1 -7q-8 -49 -46 -81t-89 -33z"/>
<glyph glyph-name="dotaccent" horiz-adv-x="219" unicode="˙" d="M108 566q-23 0 -40 17t-17 40q0 25 17 41t40 16q24 0 40 -16t17 -41q-1 -23 -17 -40t-40 -17z"/>
<glyph glyph-name="ring" horiz-adv-x="290" unicode="˚" d="M145 540q23 0 41 18t18 43q0 23 -18 41t-41 18q-25 0 -43 -18t-18 -41q0 -25 18 -43t43 -18zM145 492q-45 0 -77 32t-32 77t32 77t77 32t77 -32t32 -77t-32 -77t-77 -32z"/>
<glyph glyph-name="ogonek" horiz-adv-x="276" unicode="˛" d="M112 11h51l-15 -13q-15 -12 -30 -40t-15 -57q0 -25 17 -41t40 -16q25 0 55 16q6 3 12 -1t6 -13v-25q0 -9 -14 -17q-30 -15 -70 -15q-45 0 -75 26t-31 76q-1 34 17 64t35 43z"/>
<glyph glyph-name="tilde" horiz-adv-x="380" unicode="˜" d="M64 575l-18 9q-7 4 -7 11q0 5 3 11q7 12 13 30q5 18 27 36t52 18q26 0 46 -18t36 -38q16 -18 28 -18q30 0 45 51q5 16 23 8l16 -8q6 -3 6 -13q0 -6 -2 -13q-28 -81 -89 -81q-23 0 -45 19t-38 37t-27 19q-12 0 -22 -9q-9 -10 -13 -18t-9 -23q-4 -13 -14 -13q-5 0 -11 3z "/>
<glyph glyph-name="hungarumlaut" horiz-adv-x="392" unicode="˝" d="M75 521q-9 0 -15 6t-4 13l50 141q6 19 19 19h39q14 0 19 -8t-1 -17l-78 -139q-8 -15 -18 -15h-11zM241 521q-9 0 -15 6t-4 13l50 141q6 19 19 19h39q14 0 19 -8q2 -3 2 -7q0 -5 -3 -10l-78 -139q-8 -15 -18 -15h-11z"/>
<glyph glyph-name="Wgrave" horiz-adv-x="902" unicode="Ẁ" d="M517 781l-161 67q-14 5 -6 21l18 36q2 7 12 7h3q8 0 11 -4l150 -84q12 -6 6 -19l-10 -22q-5 -10 -23 -2zM226 4l-189 672q-1 4 -1 7q0 6 3 10q5 7 16 7h42q14 0 18 -14l139 -518h4l167 531q4 11 17 11h18q13 0 17 -11l170 -531h4l136 518q4 14 18 14h42q11 0 16 -7 q3 -4 3 -10q0 -3 -1 -7l-189 -672q-4 -14 -18 -14h-16q-12 0 -17 11l-173 541h-5l-170 -541q-5 -11 -17 -11h-16q-14 0 -18 14z"/>
<glyph glyph-name="wgrave" horiz-adv-x="604" unicode="ẁ" d="M368 559l-161 67q-14 5 -6 21l18 36q3 7 13 7h2q8 0 11 -4l150 -84q12 -6 6 -19l-10 -22q-5 -10 -23 -2zM144 0l-111 377q-2 6 -2 10q0 13 17 13h31q14 0 18 -11l73 -264h1l113 275q4 10 17 10h5q13 0 17 -10l112 -276h1l72 265q4 11 17 11h31q17 0 17 -13q0 -4 -2 -10 l-109 -377q-3 -10 -17 -10h-5q-13 0 -17 10l-122 300l-118 -300q-4 -10 -17 -10h-5q-14 0 -17 10z"/>
<glyph glyph-name="Wacute" horiz-adv-x="902" unicode="Ẃ" d="M360 783l-10 22q-6 13 6 19l150 84q4 4 11 4h3q10 0 12 -7l18 -36q8 -16 -6 -21l-161 -67q-18 -8 -23 2zM226 4l-189 672q-1 4 -1 7q0 6 3 10q5 7 16 7h42q14 0 18 -14l139 -518h4l167 531q4 11 17 11h18q13 0 17 -11l170 -531h4l136 518q4 14 18 14h42q11 0 16 -7 q3 -4 3 -10q0 -3 -1 -7l-189 -672q-4 -14 -18 -14h-16q-12 0 -17 11l-173 541h-5l-170 -541q-5 -11 -17 -11h-16q-14 0 -18 14z"/>
<glyph glyph-name="wacute" horiz-adv-x="604" unicode="ẃ" d="M213 561l-10 22q-6 13 6 19l150 84q4 4 11 4h2q10 0 13 -7l18 -36q8 -16 -6 -21l-161 -67q-18 -8 -23 2zM144 0l-111 377q-2 6 -2 10q0 13 17 13h31q14 0 18 -11l73 -264h1l113 275q4 10 17 10h5q13 0 17 -10l112 -276h1l72 265q4 11 17 11h31q17 0 17 -13q0 -4 -2 -10 l-109 -377q-3 -10 -17 -10h-5q-13 0 -17 10l-122 300l-118 -300q-4 -10 -17 -10h-5q-14 0 -17 10z"/>
<glyph glyph-name="Wdieresis" horiz-adv-x="902" unicode="Ẅ" d="M344 792q-20 0 -34 14t-13 33q-1 20 13 34t34 14t34 -14t14 -34q0 -19 -14 -33t-34 -14zM555 792q-19 0 -33 14t-14 33q0 20 14 34t33 14q20 0 34 -14t14 -34q0 -19 -14 -33t-34 -14zM226 4l-189 672q-1 4 -1 7q0 6 3 10q5 7 16 7h42q14 0 18 -14l139 -518h4l167 531 q4 11 17 11h18q13 0 17 -11l170 -531h4l136 518q4 14 18 14h42q11 0 16 -7q3 -4 3 -10q0 -3 -1 -7l-189 -672q-4 -14 -18 -14h-16q-12 0 -17 11l-173 541h-5l-170 -541q-5 -11 -17 -11h-16q-14 0 -18 14z"/>
<glyph glyph-name="wdieresis" horiz-adv-x="604" unicode="ẅ" d="M204 585q-20 -1 -34 13t-13 34q-1 20 13 34t34 14t34 -14t14 -34t-14 -34t-34 -13zM397 585q-19 -1 -33 13t-14 34t14 34t33 14q20 0 34 -14t14 -34t-14 -34t-34 -13zM144 0l-111 377q-2 6 -2 10q0 13 17 13h31q14 0 18 -11l73 -264h1l113 275q4 10 17 10h5q13 0 17 -10 l112 -276h1l72 265q4 11 17 11h31q17 0 17 -13q0 -4 -2 -10l-109 -377q-3 -10 -17 -10h-5q-13 0 -17 10l-122 300l-118 -300q-4 -10 -17 -10h-5q-14 0 -17 10z"/>
<glyph glyph-name="Ygrave" horiz-adv-x="565" unicode="Ỳ" d="M350 781l-161 67q-14 5 -6 21l18 36q3 7 13 7h2q8 0 11 -4l150 -84q12 -6 6 -19l-10 -22q-5 -10 -23 -2zM243 19v318l-241 334q-3 5 -3 11q0 4 2 8q5 10 17 10h47q9 0 16 -9l202 -279l202 279q7 9 16 9h47q12 0 17 -10q2 -4 2 -8q0 -5 -3 -11l-244 -333v-319q0 -7 -6 -13 t-13 -6h-39q-8 0 -14 6t-5 13z"/>
<glyph glyph-name="ygrave" horiz-adv-x="466" unicode="ỳ" d="M306 559l-161 67q-14 5 -6 21l18 36q3 7 13 7h2q8 0 11 -4l150 -84q12 -6 6 -19l-10 -22q-5 -10 -23 -2zM200 1l-186 377q-3 5 -3 9q1 4 3 7q4 6 15 6h44q11 0 17 -11l148 -306h1l140 306q5 11 17 11h38q12 0 16 -6q2 -3 2 -7t-3 -10l-307 -665q-6 -12 -17 -12h-37 q-11 0 -16 7t0 18z"/>
<glyph glyph-name="endash" horiz-adv-x="577" unicode="–" d="M104 223q-8 0 -14 5t-5 13v11q0 19 19 19h369q19 0 19 -19v-11q0 -8 -6 -13t-13 -5h-369z"/>
<glyph glyph-name="emdash" horiz-adv-x="797" unicode="—" d="M104 223q-8 0 -14 5t-5 13v11q0 19 19 19h589q19 0 19 -19v-11q0 -8 -6 -13t-13 -5h-589z"/>
<glyph glyph-name="quoteleft" horiz-adv-x="204" unicode="‘" d="M104 427q-66 0 -66 90q0 56 26 106t58 79q8 7 14 7q5 0 10 -5l14 -14q4 -4 4 -8q0 -7 -10 -16q-62 -56 -62 -126q4 1 12 1q23 0 40 -17t17 -40q0 -24 -17 -40t-40 -17z"/>
<glyph glyph-name="quoteright" horiz-adv-x="202" unicode="’" d="M60 434l-14 14q-4 4 -4 8q0 7 10 16q62 56 62 126q-4 -1 -12 -1q-23 0 -40 17t-17 40q0 24 17 40t40 17q66 0 66 -90q0 -56 -26 -106t-58 -79q-8 -7 -14 -7q-5 0 -10 5z"/>
<glyph glyph-name="quotesinglbase" horiz-adv-x="233" unicode="‚" d="M55 47q0 25 17 41t40 16q66 0 66 -90q0 -56 -26 -106t-58 -79q-8 -7 -14 -7q-5 0 -10 5l-14 14q-4 4 -4 8q0 7 10 16q62 56 62 126q-4 -1 -12 -1q-23 0 -40 17t-17 40z"/>
<glyph glyph-name="quotedblleft" horiz-adv-x="384" unicode="“" d="M104 429q-66 0 -66 90q0 56 26 106t58 79q8 7 14 7q5 0 10 -5l14 -14q10 -10 -6 -24q-62 -56 -62 -126q4 1 12 1q23 0 40 -17t17 -40q0 -24 -17 -40t-40 -17zM284 429q-66 0 -66 90q0 56 26 106t58 79q8 7 14 7q5 0 10 -5l14 -14q4 -4 4 -8q0 -7 -10 -16 q-62 -56 -62 -126q4 1 12 1q23 0 40 -17t17 -40q0 -24 -17 -40t-40 -17z"/>
<glyph glyph-name="quotedblright" horiz-adv-x="382" unicode="”" d="M60 434l-14 14q-4 4 -4 8q0 7 10 16q62 56 62 126q-4 -1 -12 -1q-23 0 -40 17t-17 40q0 24 17 40t40 17q66 0 66 -90q0 -56 -26 -106t-58 -79q-8 -7 -14 -7q-5 0 -10 5zM240 434l-14 14q-4 4 -4 8q0 7 10 16q62 56 62 126q-4 -1 -12 -1q-23 0 -40 17t-17 40q0 24 17 40 t40 17q66 0 66 -90q0 -56 -26 -106t-58 -79q-8 -7 -14 -7q-5 0 -10 5z"/>
<glyph glyph-name="quotedblbase" horiz-adv-x="413" unicode="„" d="M55 47q0 25 17 41t40 16q66 0 66 -90q0 -56 -26 -106t-58 -79q-8 -7 -14 -7q-5 0 -10 5l-14 14q-4 4 -4 8q0 7 10 16q62 56 62 126q-4 -1 -12 -1q-23 0 -40 17t-17 40zM235 47q0 25 17 41t40 16q66 0 66 -90q0 -56 -26 -106t-58 -79q-8 -7 -14 -7q-5 0 -10 5l-14 14 q-4 4 -4 8q0 7 10 16q62 56 62 126q-4 -1 -12 -1q-23 0 -40 17t-17 40z"/>
<glyph glyph-name="bullet" horiz-adv-x="354" unicode="•" d="M175 119q-43 0 -74 31t-31 74q0 45 31 77t74 32q45 0 77 -32t32 -77q0 -43 -32 -74t-77 -31z"/>
<glyph glyph-name="guilsinglleft" horiz-adv-x="252" unicode="‹" d="M145 39l-104 155q-4 6 -4 12t4 12l109 148q9 12 18 12h14q13 0 17 -10q2 -4 2 -8q0 -6 -4 -13l-74 -139l71 -147q6 -12 2 -21t-17 -9h-19q-9 0 -15 8z"/>
<glyph glyph-name="guilsinglright" horiz-adv-x="252" unicode="›" d="M72 31q-12 0 -16 9t1 21l71 147l-74 139q-4 7 -4 13q0 4 2 8q4 10 17 10h14q10 0 18 -12l109 -148q4 -6 4 -12t-4 -12l-104 -155q-6 -8 -15 -8h-19z"/>
<glyph glyph-name="fraction" horiz-adv-x="119" unicode="⁄" d="M-79 10q-5 -10 -17 -10h-14q-10 0 -16 8q-3 4 -3 10q0 4 2 9l343 663q6 10 17 10h16q11 0 17 -8q3 -4 2 -10q0 -4 -2 -9z"/>
<glyph glyph-name="zerosuperior" horiz-adv-x="348" unicode="⁰" d="M174 542q33 0 51 28t18 81t-18 81t-51 29q-33 -1 -51 -29t-18 -81t18 -81t51 -28zM174 494q-60 0 -92 42t-32 115q0 75 32 117t92 41q60 1 92 -41t32 -117q0 -73 -32 -115t-92 -42z"/>
<glyph glyph-name="foursuperior" horiz-adv-x="361" unicode="⁴" d="M105 607h106v118zM219 504q-10 0 -10 9v50h-150q-9 0 -9 9v29l172 196q3 3 8 3h21q10 0 10 -9v-185h41q9 0 9 -8v-26q0 -8 -9 -8h-41v-51q0 -9 -10 -9h-32z"/>
<glyph glyph-name="fivesuperior" horiz-adv-x="323" unicode="⁵" d="M155 494q-63 0 -98 38q-4 5 -4 9q0 3 3 6l21 20q7 5 12 0q3 -3 11 -9t24 -12q17 -6 33 -6q28 0 46 17t18 40q0 24 -17 39t-49 15h-77q-15 0 -15 16v124q0 9 9 9h156q9 0 9 -9v-27q0 -8 -9 -8h-117v-60h48q55 0 85 -26t30 -72q0 -44 -34 -74t-85 -30z"/>
<glyph glyph-name="sixsuperior" horiz-adv-x="324" unicode="⁶" d="M165 541q25 0 43 17t17 40q0 24 -18 40t-44 16q-22 0 -40 -11t-26 -23q1 -29 19 -54t49 -25zM164 494q-54 0 -84 38t-30 96q0 42 19 78t48 57q29 22 52 34t42 18q2 1 4 1q5 0 8 -7l10 -23q5 -10 -9 -13q-29 -9 -67 -35t-49 -59q28 17 64 17q42 0 72 -26t30 -72 q0 -44 -32 -74t-78 -30z"/>
<glyph glyph-name="sevensuperior" horiz-adv-x="319" unicode="⁷" d="M79 504q-9 0 -9 7v7l132 237h-143q-9 0 -9 9v27q0 9 9 9h201q9 0 9 -9v-11l-143 -267q-5 -9 -13 -9h-34z"/>
<glyph glyph-name="eightsuperior" horiz-adv-x="321" unicode="⁸" d="M160 537q24 0 40 12t17 32q0 17 -15 31t-42 20q-26 -6 -41 -20t-15 -31q0 -20 16 -32t40 -12zM160 680q50 9 50 45q0 18 -14 30t-37 12q-20 0 -34 -12t-14 -30q0 -36 49 -45zM159 494q-49 0 -79 24t-30 60q0 26 20 48t37 30v2q-17 8 -33 27t-16 43q0 38 29 60t73 22 t74 -22t29 -60q1 -23 -15 -42t-35 -28v-2q21 -8 39 -30t19 -48q-1 -36 -31 -60t-81 -24z"/>
<glyph glyph-name="ninesuperior" horiz-adv-x="324" unicode="⁹" d="M161 648q22 0 40 11t26 23q-1 29 -19 54t-49 25q-25 0 -43 -17t-17 -40q0 -24 18 -40t44 -16zM113 487q-2 -1 -4 -1q-5 0 -8 7l-10 23q-5 10 9 13q29 9 67 35t49 59q-28 -17 -64 -17q-42 0 -72 26t-30 72q0 44 32 74t78 30q54 0 84 -38t30 -96q0 -42 -19 -78t-48 -57 q-29 -22 -52 -34t-42 -18z"/>
<glyph glyph-name="zeroinferior" horiz-adv-x="348" unicode="₀" d="M105 -3q0 -53 18 -81t51 -28t51 28t18 81t-18 81t-51 29q-33 -1 -51 -29t-18 -81zM50 -3q0 75 32 117t92 41q60 1 92 -41t32 -117q0 -73 -32 -115t-92 -42t-92 42t-32 115z"/>
<glyph glyph-name="oneinferior" horiz-adv-x="211" unicode="₁" d="M56 62l-5 17q-1 7 3 11l70 56h28q9 0 9 -9v-278q0 -9 -9 -9h-35q-10 0 -10 9v210l-41 -11q-9 -2 -10 4z"/>
<glyph glyph-name="twoinferior" horiz-adv-x="313" unicode="₂" d="M78 79l-20 21q-6 6 0 11l11 11q11 12 35 23t51 11q52 0 80 -25t28 -64t-49 -90l-81 -83h121q9 0 9 -10v-25q0 -9 -9 -9h-194q-10 0 -10 9v14l127 133q32 35 32 56q-1 18 -15 32t-42 15q-32 0 -62 -30q-6 -6 -12 0z"/>
<glyph glyph-name="threeinferior" horiz-adv-x="320" unicode="₃" d="M100 12q0 9 10 9h31q33 1 49 13t16 31q0 21 -16 33t-38 12q-32 0 -56 -24q-6 -6 -13 0l-20 18q-8 6 0 12l11 10q10 10 34 20t48 10q45 0 75 -23t30 -60q0 -24 -16 -43t-36 -27v-2q21 -9 41 -29t20 -46q0 -38 -32 -62t-82 -24q-65 0 -103 41q-3 3 -3 5q0 3 4 6l21 20 q7 4 13 -1q39 -26 66 -26q24 1 42 13t18 32t-18 34t-55 14h-31q-10 0 -10 9v25z"/>
<glyph glyph-name="fourinferior" horiz-adv-x="361" unicode="₄" d="M105 -47h106v118zM50 -53l172 196q3 3 8 3h21q10 0 10 -9v-185h41q9 0 9 -8v-26q0 -8 -9 -8h-41v-51q0 -9 -10 -9h-32q-10 0 -10 9v50h-150q-9 0 -9 9v29z"/>
<glyph glyph-name="fiveinferior" horiz-adv-x="323" unicode="₅" d="M63 13v124q0 9 9 9h156q9 0 9 -9v-27q0 -8 -9 -8h-117v-60h48q55 0 85 -26t30 -72q0 -44 -34 -74t-85 -30q-63 0 -98 38q-4 5 -4 9q0 3 3 6l21 20q7 5 12 0q3 -3 11 -9t24 -12q17 -6 33 -6q28 0 46 17t18 40q0 24 -17 39t-49 15h-77q-15 0 -15 16z"/>
<glyph glyph-name="sixinferior" horiz-adv-x="324" unicode="₆" d="M97 -34q1 -29 19 -54t49 -25q25 0 43 17t17 40q0 24 -18 40t-44 16q-22 0 -40 -11t-26 -23zM50 -26q0 42 19 78t48 57q29 22 52 34t42 18q2 1 4 1q5 0 8 -7l10 -23q5 -10 -9 -13q-29 -9 -67 -35t-49 -59q28 17 64 17q42 0 72 -26t30 -72q0 -44 -32 -74t-78 -30 q-54 0 -84 38t-30 96z"/>
<glyph glyph-name="seveninferior" horiz-adv-x="319" unicode="₇" d="M59 101q-9 0 -9 9v27q0 9 9 9h201q9 0 9 -9v-11l-143 -267q-5 -9 -13 -9h-34q-9 0 -9 7v7l132 237h-143z"/>
<glyph glyph-name="eightinferior" horiz-adv-x="321" unicode="₈" d="M104 -73q0 -20 16 -32t40 -12t40 12t17 32q0 17 -15 31t-42 20q-26 -6 -41 -20t-15 -31zM111 71q0 -36 49 -45q50 9 50 45q0 18 -14 30t-37 12q-20 0 -34 -12t-14 -30zM50 -76q0 26 20 48t37 30v2q-17 8 -33 27t-16 43q0 38 29 60t73 22t74 -22t29 -60q1 -23 -15 -42 t-35 -28v-2q21 -8 39 -30t19 -48q-1 -36 -31 -60t-81 -24q-49 0 -79 24t-30 60z"/>
<glyph glyph-name="nineinferior" horiz-adv-x="324" unicode="₉" d="M99 50q0 -24 18 -40t44 -16q22 0 40 11t26 23q-1 29 -19 54t-49 25q-25 0 -43 -17t-17 -40zM50 50q0 44 32 74t78 30q54 0 84 -38t30 -96q0 -42 -19 -78t-48 -57q-29 -22 -52 -34t-42 -18q-2 -1 -4 -1q-5 0 -8 7l-10 23q-5 10 9 13q29 9 67 35t49 59q-28 -17 -64 -17 q-42 0 -72 26t-30 72z"/>
<glyph glyph-name="Euro" horiz-adv-x="731" unicode="€" d="M38 253q-6 -1 -12 5t-6 14v7q0 7 6 13t12 6h40q-3 24 -3 51q0 16 1 24h-38q-6 -1 -12 5t-6 14v7q0 7 6 13t12 6h43q23 126 123 209t232 83q133 0 242 -93q7 -8 7 -15t-6 -13l-24 -24q-8 -8 -16 -8t-17 9q-77 72 -187 72q-99 0 -174 -62t-97 -158h281q7 0 13 -6t6 -13v-8 q0 -8 -6 -13t-13 -5h-288q-1 -8 -1 -23q0 -29 4 -52h245q7 0 13 -6t6 -13v-8q0 -8 -6 -13t-13 -5h-233q28 -84 100 -137t163 -53q58 -1 100 19t92 58q12 10 24 3l29 -29q6 -5 6 -12q0 -9 -7 -15q-100 -97 -243 -97q-124 0 -220 74t-128 189h-50z"/>
<glyph glyph-name="uni2215" horiz-adv-x="119" unicode="∕" d="M-79 10q-5 -10 -17 -10h-14q-10 0 -16 8q-3 4 -3 10q0 4 2 9l343 663q6 10 17 10h16q11 0 17 -8q3 -4 2 -10q0 -4 -2 -9z"/>
</font>
</defs>
</svg>
